<svg width="130" height="36" viewBox="0 0 130 36" fill="none" xmlns="http://www.w3.org/2000/svg">
<path d="M27.6805 0H3.67282C1.64829 0 0 1.64769 0 3.67147V27.6704C0 29.6942 1.64829 31.3418 3.67282 31.3418H23.9898L23.0402 28.0644L25.3335 30.1777L27.5014 32.1657L31.3713 35.5148V3.67147C31.3534 1.64769 29.7051 0 27.6805 0ZM20.7649 23.193C20.7649 23.193 20.1199 22.4228 19.5824 21.7602C21.9294 21.0975 22.8253 19.6469 22.8253 19.6469C22.0907 20.1304 21.392 20.4707 20.7649 20.7035C19.8691 21.0796 19.0091 21.3125 18.167 21.4736C16.4471 21.796 14.8705 21.7065 13.5267 21.4557C12.5055 21.2587 11.6276 20.9901 10.8931 20.6856C10.481 20.5244 10.0331 20.3274 9.58517 20.0767C9.53142 20.0409 9.47767 20.023 9.42393 19.9871C9.38809 19.9692 9.37018 19.9513 9.35226 19.9513C9.02977 19.7722 8.85061 19.6469 8.85061 19.6469C8.85061 19.6469 9.71059 21.0617 11.9859 21.7423C11.4485 22.4228 10.7856 23.2109 10.7856 23.2109C6.82607 23.0855 5.32111 20.5065 5.32111 20.5065C5.32111 14.7933 7.90105 10.1548 7.90105 10.1548C10.481 8.23843 12.9176 8.29215 12.9176 8.29215L13.0967 8.50707C9.87183 9.42046 8.4027 10.8353 8.4027 10.8353C8.4027 10.8353 8.79686 10.6204 9.45976 10.3339C11.3768 9.4921 12.8997 9.27718 13.5267 9.20555C13.6342 9.18764 13.7238 9.16973 13.8313 9.16973C14.9242 9.02645 16.1604 8.99063 17.4504 9.13391C19.1524 9.33091 20.9799 9.83238 22.8432 10.8353C22.8432 10.8353 21.4278 9.4921 18.382 8.57871L18.6329 8.29215C18.6329 8.29215 21.0874 8.23843 23.6494 10.1548C23.6494 10.1548 26.2293 14.7933 26.2293 20.5065C26.2293 20.4886 24.7244 23.0676 20.7649 23.193ZM47.8184 7.66532H41.8702V14.3456L45.8297 17.9096V11.4263H47.9438C49.2875 11.4263 49.9504 12.0711 49.9504 13.1098V18.0708C49.9504 19.1096 49.3233 19.808 47.9438 19.808H41.8523V23.587H47.8004C50.9895 23.6049 53.9815 22.0109 53.9815 18.3574V13.0203C53.9995 9.29509 51.0074 7.66532 47.8184 7.66532ZM78.9926 18.3574V12.877C78.9926 10.907 82.54 10.4592 83.6149 12.4293L86.8936 11.104C85.6037 8.27425 83.2566 7.4504 81.3038 7.4504C78.1147 7.4504 74.9614 9.29509 74.9614 12.877V18.3574C74.9614 21.9751 78.1147 23.784 81.2321 23.784C83.2387 23.784 85.6395 22.799 86.9653 20.22L83.4537 18.6081C82.5937 20.811 78.9926 20.2737 78.9926 18.3574ZM68.1533 13.6292C66.917 13.3606 66.0929 12.9128 66.0391 12.1427C66.1108 10.298 68.9595 10.2264 70.6257 11.9994L73.2594 9.97566C71.6111 7.96978 69.7478 7.43249 67.8308 7.43249C64.9104 7.43249 62.0797 9.08018 62.0797 12.1965C62.0797 15.2232 64.4088 16.853 66.9708 17.247C68.2787 17.4261 69.7299 17.9454 69.6941 18.8409C69.5866 20.5423 66.075 20.4528 64.4804 18.5185L61.9363 20.9005C63.4234 22.8169 65.4479 23.784 67.347 23.784C70.2674 23.784 73.5102 22.1005 73.6356 19.02C73.8148 15.1336 70.984 14.1486 68.1533 13.6292ZM56.1494 23.5691H60.1626V7.66532H56.1494V23.5691ZM123.819 7.66532H117.871V14.3456L121.83 17.9096V11.4263H123.944C125.288 11.4263 125.951 12.0711 125.951 13.1098V18.0708C125.951 19.1096 125.324 19.808 123.944 19.808H117.853V23.587H123.819C127.008 23.6049 130 22.0109 130 18.3574V13.0203C130 9.29509 127.008 7.66532 123.819 7.66532ZM94.6334 7.4504C91.3368 7.4504 88.0582 9.24136 88.0582 12.9128V18.3395C88.0582 21.9751 91.3547 23.8019 94.6692 23.8019C97.9658 23.8019 101.244 21.9751 101.244 18.3395V12.9128C101.244 9.25927 97.93 7.4504 94.6334 7.4504ZM97.2133 18.3395C97.2133 19.4857 95.9234 20.0767 94.6513 20.0767C93.3614 20.0767 92.0714 19.5215 92.0714 18.3395V12.9128C92.0714 11.7487 93.3255 11.1219 94.5797 11.1219C95.8875 11.1219 97.2133 11.6771 97.2133 12.9128V18.3395ZM115.649 12.9128C115.56 9.18764 113.015 7.68323 109.737 7.68323H103.377V23.587H107.443V18.5365H108.16L111.851 23.587H116.867L112.532 18.1245C114.449 17.5156 115.649 15.85 115.649 12.9128ZM109.808 15.062H107.443V11.4263H109.808C112.335 11.4263 112.335 15.062 109.808 15.062Z" fill="#737373"/>
</svg>
