<svg width="130" height="26" viewBox="0 0 130 26" fill="none" xmlns="http://www.w3.org/2000/svg">
<path d="M8.2355 24.831H3.33697V12.591H0V8.60593H3.33684V5.77025C3.33684 2.40997 4.81273 0 9.698 0C10.7312 0 12.3534 0.208747 12.3534 0.208747V3.90912H10.6496C8.91358 3.90912 8.23576 4.43842 8.23576 5.90173V8.60593H12.2884L11.9275 12.591H8.23563L8.2355 24.831ZM19.4753 8.28747C19.4039 8.28747 19.3305 8.29007 19.2578 8.2919C14.7156 8.2919 12.6374 11.7165 12.6374 16.5779C12.6374 22.702 15.3331 25.153 19.2933 25.153C21.5591 25.153 23.0477 24.1971 23.9525 22.4132V24.8327H28.6117V8.60763H23.9525V11.1028C23.2137 9.49747 21.6835 8.30649 19.4753 8.28747ZM20.66 12.1214C22.5677 12.1214 23.7128 13.4552 23.7128 15.7239L23.7172 18.0411C23.7172 19.5702 22.7715 21.3592 20.66 21.3592C17.4139 21.3592 17.5006 17.8459 17.5006 16.6758C17.5006 12.7397 19.2301 12.1214 20.66 12.1214ZM30.4933 16.721C30.4933 14.7494 30.3992 8.29802 38.7847 8.29802C42.1508 8.29802 43.5564 9.37082 43.5564 9.37082L42.4267 12.8829C42.4267 12.8829 41.0229 12.1081 39.1938 12.1081C36.8511 12.1081 35.3562 13.4694 35.3562 15.8645L35.3588 17.5819C35.3588 19.8834 36.8012 21.4196 39.1986 21.4196C40.865 21.4196 42.4008 20.6376 42.4008 20.6376L43.5276 24.0763C43.5276 24.0763 42.2425 25.1558 38.8082 25.1558C30.8239 25.1558 30.4934 19.3677 30.4934 16.721H30.4933ZM70.875 8.2919C75.4173 8.2919 77.5282 11.7165 77.5282 16.5779C77.5282 22.702 74.8324 25.153 70.8722 25.153C68.6065 25.153 66.9315 24.1972 66.0267 22.4132V24.8327L61.4262 24.8309V0.493331L66.3108 0.0663248V10.883C67.0158 8.99059 69.3326 8.2919 70.8751 8.2919H70.875ZM69.5055 12.1214C67.5978 12.1214 66.3108 13.4552 66.3108 15.7239L66.3062 18.0411C66.3034 19.5702 67.1975 21.3592 69.5055 21.3592C72.7516 21.3592 72.6649 17.8459 72.6649 16.6758C72.6649 12.7397 70.9355 12.1214 69.5055 12.1214ZM52.0316 8.30532C46.8797 8.30532 44.1598 11.1208 44.1598 16.1242V17.0538C44.1598 23.5478 47.9794 25.2197 52.533 25.2197C56.9591 25.2197 58.9625 23.9788 58.9625 23.9788L58.0485 20.6743C58.0485 20.6743 55.6919 21.6793 53.1186 21.6793C50.451 21.6793 49.3038 20.9978 49.0097 18.4283H59.3531V15.7772C59.3531 10.3498 56.3005 8.30519 52.0315 8.30519L52.0316 8.30532ZM52.1557 11.6143C53.9391 11.6143 55.0946 12.7104 55.0312 15.2525H49.0187C49.123 12.5769 50.3691 11.6144 52.1557 11.6144V11.6143ZM87.268 8.28304C81.9773 8.28304 79.1921 11.2714 79.1921 16.6268C79.1921 23.9746 83.9933 25.1574 87.2768 25.1574C92.0837 25.1574 95.2817 22.5634 95.2817 16.6935C95.2817 10.5839 91.6859 8.28304 87.268 8.28304ZM87.2014 12.1347C89.5277 12.1347 90.4496 13.8799 90.4496 15.8663V17.5742C90.4496 19.9807 89.1597 21.3726 87.1926 21.3726C85.3528 21.3726 84.0598 20.0706 84.0598 17.5742V15.8663C84.0598 13.204 85.5984 12.1347 87.2014 12.1347ZM105.013 8.28304C99.7221 8.28304 96.9368 11.2714 96.9368 16.6268C96.9368 23.9746 101.738 25.1574 105.022 25.1574C109.828 25.1574 113.026 22.5634 113.026 16.6935C113.026 10.5839 109.43 8.28304 105.013 8.28304ZM104.946 12.1347C107.272 12.1347 108.194 13.8799 108.194 15.8663V17.5742C108.194 19.9807 106.904 21.3726 104.937 21.3726C103.098 21.3726 101.805 20.0706 101.805 17.5742V15.8663C101.805 13.204 103.343 12.1347 104.946 12.1347ZM114.872 24.831V0.493331L119.771 0.0663248V16.379L124.631 8.60593H129.805L124.735 16.6565L130 24.831H124.812L119.771 16.8937V24.831H114.872Z" fill="#737373"/>
</svg>
