<svg width="185" height="53" viewBox="0 0 185 53" fill="none" xmlns="http://www.w3.org/2000/svg">
<g clip-path="url(#clip0_1202_691)">
<path d="M9.52782 0.186443C5.73996 1.78747 1.57532 6.30518 0.260587 11.9887C-1.40687 19.1822 5.52752 22.2183 6.0947 21.2286C6.76008 20.0526 4.84811 19.6579 4.4573 15.9276C3.95425 11.1042 6.16885 5.71618 8.96265 3.35208C9.48373 2.91893 9.45968 3.53019 9.45968 4.65355C9.45968 6.67761 9.34745 24.8253 9.34745 28.6123C9.34745 33.7393 9.14703 35.3545 8.7462 36.9494C8.34537 38.5444 7.76416 39.6556 8.22512 40.0847C8.7462 40.5543 10.9608 39.435 12.2455 37.6255C13.7807 35.4577 14.3218 32.8528 14.422 30.0251C14.5362 26.6186 14.5282 21.2043 14.5362 18.1237C14.5362 15.29 14.5803 7.00145 14.4921 2.01214C14.4661 0.797707 11.1071 -0.485547 9.52582 0.190489L9.52782 0.186443ZM184.164 27.1105C183.623 27.1105 183.363 27.6813 183.162 28.6427C182.447 31.9905 181.691 32.7455 180.715 32.7455C179.627 32.7455 178.651 31.0878 178.394 27.7703C178.194 25.1654 178.23 20.3602 178.483 15.5814C178.533 14.6038 178.268 13.6323 175.663 12.6729C174.536 12.2681 172.907 11.6608 172.095 13.6383C169.799 19.2247 168.905 23.6716 168.688 25.471C168.688 25.5661 168.57 25.5783 168.55 25.3637C168.229 22.1767 168.071 18.9751 168.075 15.7717C168.061 14.707 167.842 13.7841 166.66 13.0332C165.898 12.5514 163.582 11.6872 162.744 12.7113C162.026 13.5493 161.191 15.8 160.317 18.4678C159.611 20.6416 159.114 22.1111 159.114 22.1111C159.114 22.1111 159.114 16.2514 159.134 14.027C159.134 13.189 158.567 12.9097 158.397 12.8591C157.623 12.6304 156.094 12.2519 155.453 12.2519C154.651 12.2519 154.465 12.7032 154.465 13.357C154.465 13.44 154.332 21.0646 154.332 26.396V27.1469C153.897 29.6001 152.465 32.9297 150.909 32.9297C149.354 32.9297 148.617 31.5432 148.617 25.1897C148.617 21.4836 148.731 19.8704 148.781 17.1885C148.811 15.6442 148.875 14.4561 148.869 14.1828C148.855 13.3732 147.44 12.9421 146.785 12.7903C146.234 12.6499 145.667 12.5859 145.099 12.6C144.47 12.6385 144.023 13.0574 144.023 13.6424V14.531C143.221 13.2356 141.897 12.3328 141.017 12.0737C138.662 11.3674 136.207 11.9968 134.345 14.6139C132.874 16.6987 131.986 19.0669 131.641 22.443C131.381 24.9225 131.465 27.4323 131.924 29.5556C131.369 31.95 130.351 32.9357 129.236 32.9357C127.613 32.9357 126.443 30.266 126.575 25.6491C126.671 22.613 127.268 20.4857 127.928 17.395C128.212 16.0794 127.978 15.3952 127.407 14.7273C126.883 14.1201 125.763 13.8185 124.16 14.1929C123.019 14.4662 121.378 14.7577 119.887 14.9823C119.96 14.6483 120.014 14.3104 120.049 13.9703C120.434 10.6083 116.817 10.8816 115.664 11.9564C114.973 12.598 114.5 13.355 114.323 14.7151C114.241 15.3304 114.335 15.9566 114.594 16.5197C114.853 17.0828 115.266 17.5593 115.784 17.8929C115.211 20.5343 113.814 23.9914 112.361 26.4891C111.712 27.6549 111 28.784 110.229 29.8713C110.229 29.4827 110.229 29.088 110.229 28.7014C110.215 23.1413 110.285 18.7633 110.317 17.1865C110.349 15.6422 110.411 14.4844 110.411 14.2112C110.399 13.6141 110.052 13.3793 109.323 13.0999C108.62 12.8284 107.881 12.66 107.13 12.6C106.142 12.5231 105.539 13.0574 105.557 13.6869V14.531C104.739 13.2356 103.425 12.3328 102.551 12.0737C100.19 11.3674 97.7309 11.9968 95.8751 14.6139C94.408 16.6987 93.438 19.6154 93.1614 22.4126C92.9109 25.0298 92.961 27.2421 93.3077 29.1103C92.9289 30.9785 91.8527 32.9357 90.6342 32.9357C89.0789 32.9357 88.1911 31.5432 88.1911 25.1897C88.1911 21.4836 88.3053 19.8704 88.3615 17.1885C88.3915 15.6442 88.4496 14.4561 88.4436 14.1828C88.4436 13.3732 87.0227 12.9421 86.3613 12.7903C85.7936 12.6458 85.2088 12.5817 84.6237 12.6C84.0225 12.6506 83.5976 13.191 83.5976 13.612V14.5391C82.7799 13.2437 81.4651 12.3409 80.5913 12.0818C78.2384 11.3754 75.7974 12.0171 73.9275 14.622C72.709 16.3202 71.7229 18.2066 71.2119 22.3884C71.0767 23.5146 71.0097 24.6482 71.0114 25.7827C70.5264 28.7803 68.382 32.2395 66.6324 32.2395C65.6002 32.2395 64.6182 30.2296 64.6182 25.9406C64.6182 20.2348 64.9709 12.1001 65.033 11.3127C65.033 11.3127 67.2376 11.2722 67.6825 11.2682C68.7828 11.2682 69.7909 11.2864 71.258 11.2095C71.9995 11.173 72.711 8.49724 71.9414 8.15922C71.6027 8.01349 69.1616 7.8799 68.1916 7.86168C67.3739 7.84144 65.1152 7.67142 65.1152 7.67142C65.1152 7.67142 65.3156 2.27527 65.3617 1.71056C65.3978 1.22681 64.7945 0.985947 64.4418 0.838191C63.6344 0.508186 62.7946 0.265302 61.9366 0.11358C60.686 -0.1455 60.1329 0.113578 60.0186 1.16811C59.8543 2.77724 59.7661 7.4933 59.7661 7.4933C58.8482 7.4933 55.7337 7.30708 54.8198 7.30708C53.9721 7.30708 53.0522 10.9949 54.2306 11.0395C55.5834 11.0901 57.9303 11.1407 59.4895 11.1852C59.4895 11.1852 59.4194 19.4535 59.4194 22.0018V22.7891C58.9141 25.47 57.5542 27.9103 55.5473 29.7377C56.1967 26.7441 54.8759 24.5015 52.485 22.607C51.6032 21.9026 49.8676 20.5829 47.9215 19.1316C47.9215 19.1316 49.0479 18.0063 50.0479 15.7555C50.7534 14.1606 50.7855 12.3247 49.0458 11.924C46.1779 11.258 43.817 13.3874 43.1075 15.6604C42.5664 17.4152 42.849 18.7248 43.9232 20.0769L44.1697 20.3825C43.5284 21.6415 42.6345 23.3376 41.885 24.6533C39.7906 28.3087 38.2134 31.195 37.0229 31.195C36.0669 31.195 36.0789 28.2642 36.0789 25.5277C36.0789 23.1636 36.2553 19.5992 36.3936 15.9134C36.4377 14.699 35.8344 14.0007 34.8223 13.3712C34.205 12.9906 32.8963 12.2397 32.1347 12.2397C31.0024 12.2397 27.7256 12.3915 24.6151 21.4472C24.2263 22.5928 23.4567 24.6695 23.4567 24.6695L23.5269 13.778C23.523 13.6361 23.4796 13.4981 23.4016 13.3799C23.3236 13.2618 23.2142 13.1683 23.086 13.1101C22.5649 12.8247 21.162 12.2397 19.9274 12.2397C19.3262 12.2397 19.0336 12.5211 19.0336 13.0716L18.9333 30.102C18.9333 31.3995 18.9634 32.9114 19.0917 33.5733C19.1708 34.1193 19.3708 34.6403 19.6769 35.0974C19.9282 35.4354 20.2919 35.6704 20.701 35.7593C21.1479 35.8544 23.6091 36.1641 23.7353 35.2189C23.8916 34.0814 23.8977 32.8548 25.1883 28.2602C27.1925 21.1173 29.8199 17.6359 31.0525 16.3951C31.273 16.1806 31.5195 16.1664 31.5054 16.5226C31.4493 18.0913 31.2669 22.0018 31.1407 25.3232C30.808 34.2291 32.4053 35.8726 34.7021 35.8726C36.4517 35.8726 38.9108 34.1137 41.5683 29.6649C43.2218 26.8878 44.8211 24.1736 45.9775 22.2102C46.7791 22.9591 47.677 23.7667 48.5829 24.6391C50.6732 26.6247 51.3586 28.5233 50.8997 30.3449C50.553 31.7294 49.2382 33.1523 46.9034 31.7618C46.224 31.357 45.9334 31.0493 45.248 30.5919C44.8832 30.3449 44.316 30.2741 43.9833 30.5291C43.1507 31.1619 42.5614 32.0668 42.3159 33.0896C42.0453 34.1137 43.0574 34.6461 44.1096 35.1136C45.0095 35.5184 46.9475 35.8888 48.1861 35.9334C53.0181 36.0993 56.8761 33.5834 59.5637 27.1064C60.0487 32.705 62.0929 35.8747 65.6483 35.8747C68.0313 35.8747 70.4162 32.7677 71.4604 29.7114C71.7207 30.8561 72.1648 31.9501 72.7751 32.9499C75.5188 37.336 80.8418 36.3908 83.5094 32.6706C84.3391 31.5148 84.4674 31.0999 84.4674 31.0999C84.8562 34.6157 87.662 35.8544 89.2774 35.8544C91.0811 35.8544 92.9329 34.9902 94.2356 32.029C94.3861 32.3464 94.5561 32.654 94.7447 32.9499C97.4824 37.336 102.805 36.3908 105.479 32.6706C105.599 32.4864 105.713 32.3346 105.806 32.1868L105.89 34.5003C105.89 34.5003 104.361 35.9172 103.423 36.7814C99.3022 40.6008 96.1677 43.4993 95.9352 46.8673C95.6446 51.1685 99.0937 52.7654 101.711 52.9739C104.479 53.1966 106.858 51.6522 108.325 49.4784C109.61 47.5717 110.453 43.473 110.391 39.4188C110.365 37.7995 110.327 35.735 110.289 33.5166C111.995 31.5352 113.53 29.4096 114.877 27.1631C116.518 24.4286 118.268 20.7489 119.161 17.8828C119.161 17.8828 120.691 17.897 122.314 17.7937C122.837 17.7614 122.987 17.8707 122.885 18.2532C122.773 18.7147 120.835 26.2725 122.603 31.3043C123.817 34.7452 126.543 35.8605 128.166 35.8605C130.058 35.8605 131.872 34.4113 132.84 32.2637C132.96 32.5006 133.08 32.7333 133.219 32.9499C135.956 37.336 141.259 36.3908 143.953 32.6706C144.314 32.1756 144.632 31.6501 144.903 31.0999C145.482 34.7432 148.29 35.8666 149.893 35.8666C151.573 35.8666 153.158 35.1743 154.449 32.0978C154.499 33.4539 154.581 34.559 154.719 34.9072C154.801 35.1237 155.278 35.3909 155.619 35.5245C157.154 36.0953 158.715 35.822 159.287 35.7026C159.688 35.6196 160.004 35.2978 160.042 34.4639C160.154 32.2637 160.086 28.5719 160.748 25.8212C161.86 21.2205 162.892 19.4353 163.383 18.5507C163.656 18.0548 163.968 17.9719 163.974 18.4941C163.994 19.5547 164.051 22.6697 164.483 26.8636C164.794 29.9381 165.215 31.7618 165.542 32.3407C166.46 33.9862 167.606 34.0631 168.53 34.0631C169.131 34.0631 170.356 33.8972 170.247 32.8487C170.191 32.3407 170.288 29.1811 171.374 24.6452C172.091 21.6779 173.282 19.0021 173.709 18.0225C173.873 17.6602 173.943 17.9415 173.943 17.9982C173.847 20.0384 173.646 26.7158 174.464 30.3632C175.585 35.316 178.811 35.8666 179.938 35.8666C182.343 35.8666 184.307 34.0247 184.966 29.169C185.13 27.9991 184.89 27.0983 184.18 27.0983L184.164 27.1105ZM83.5715 24.0987C83.4392 26.6652 82.9422 28.8148 82.1506 30.3733C80.7016 33.207 77.8536 34.0915 76.599 30.017C75.6871 27.0761 75.9978 23.0583 76.3786 20.8906C76.9337 17.6743 78.3366 15.4013 80.5252 15.6098C82.7658 15.8324 83.8601 18.7491 83.5715 24.1108V24.0987ZM105.525 24.1493C105.401 26.5782 104.778 29.007 104.098 30.3834C102.695 33.2292 99.7611 34.1198 98.5466 30.0272C97.7169 27.2238 97.9113 23.6089 98.3261 21.3338C98.8633 18.3726 100.152 15.6199 102.475 15.6199C104.733 15.6199 105.846 18.1237 105.525 24.1493ZM106.098 40.696C106.066 45.1267 105.381 48.9946 103.908 50.1342C101.807 51.7352 98.9815 50.5268 99.5667 47.3005C100.084 44.4405 102.531 41.5238 106.106 37.9595C106.106 37.9595 106.118 38.7691 106.106 40.698L106.098 40.696ZM143.987 24.1655C143.861 26.8291 143.275 28.9079 142.554 30.3753C141.151 33.2211 138.243 34.1056 137.002 30.0191C136.329 27.7926 136.297 24.0643 136.782 20.9573C137.273 17.7917 138.652 15.4033 140.929 15.6118C143.205 15.8203 144.233 18.7511 143.987 24.1655Z" fill="#737373"/>
</g>
<defs>
<clipPath id="clip0_1202_691">
<rect width="185" height="53" fill="white"/>
</clipPath>
</defs>
</svg>
