<svg width="130" height="36" viewBox="0 0 130 36" fill="none" xmlns="http://www.w3.org/2000/svg">
<path fill-rule="evenodd" clip-rule="evenodd" d="M105.24 27.1829C105.211 26.9215 105.19 26.6593 105.176 26.3967C104.956 22.7743 106.305 19.4453 109.224 16.4132C112.357 13.0447 116.295 11.3599 121.04 11.3599C124.085 11.3599 126.392 12.3513 127.959 14.3295C129.44 16.1418 130.114 18.4783 129.984 21.3412C129.809 25.2163 128.33 28.5651 125.544 31.3862C122.759 34.2085 119.298 35.6185 115.163 35.6185C111.726 35.6185 109.114 34.5448 107.33 32.395C106.927 31.9015 106.579 31.3683 106.291 30.8041C105.806 31.0951 105.315 31.3762 104.818 31.6471C100.205 34.2178 95.5248 35.5002 90.7816 35.5002C87.2561 35.5002 84.73 34.3615 83.2082 32.0854C83.0968 31.9258 82.991 31.7626 82.8909 31.5961C82.8446 31.636 82.7981 31.6758 82.7514 31.7155C79.8342 34.1598 76.9193 35.3819 74.0033 35.3819C71.1719 35.3819 69.8027 33.8664 69.8886 30.8296C69.9315 29.4799 70.2046 27.8589 70.7044 25.9619C71.2053 24.0649 71.4772 22.5888 71.5213 21.5348C71.5655 19.9347 71.0633 19.1311 70.0138 19.1311C68.8784 19.1311 67.5259 20.4414 65.954 23.055C64.2938 25.7972 63.3969 28.4537 63.2681 31.0256C63.1799 32.8414 63.3635 34.234 63.8168 35.2034C60.7802 35.288 58.6525 34.8022 57.4384 33.747C56.3519 32.8194 55.8522 31.2818 55.9416 29.1286C55.9866 27.7587 56.2016 26.3992 56.5821 25.0795C56.9649 23.7298 57.1784 22.5285 57.2225 21.4734C57.3108 19.9115 56.7216 19.1311 55.4574 19.1311C54.3661 19.1311 53.189 20.3347 51.9271 22.7384C50.6629 25.1421 49.9652 27.6537 49.8352 30.2684C49.7482 32.6304 49.9044 34.2746 50.3027 35.2034C47.3151 35.288 45.1934 34.6769 43.9375 33.3713C43.3651 32.7707 42.9631 31.9973 42.7329 31.0499C42.4884 31.2749 42.238 31.4975 41.9804 31.7155C39.0631 34.1598 36.1483 35.3819 33.2322 35.3819C31.8809 35.3819 30.8469 34.961 30.1301 34.118C29.4121 33.2739 29.0746 32.1793 29.1188 30.8296C29.1605 29.4393 29.6077 27.2896 30.4557 24.3803C31.3049 21.4722 31.7307 19.9115 31.7307 19.7004C31.7307 18.6058 31.3371 18.0574 30.5559 18.0574C30.309 18.0574 29.6376 18.4516 28.5403 19.2355C27.7138 21.6322 25.9105 24.5635 23.1316 28.0293C19.1779 33.0095 15.8337 35.5002 13.0978 35.5002C11.4042 35.5002 9.96824 33.9847 8.79705 30.9502L6.45228 22.6074C5.58164 19.5752 4.64898 18.0574 3.65073 18.0574C3.43366 18.0574 2.67275 18.5015 1.36917 19.385L0 17.6759C1.42416 16.464 2.83869 15.2414 4.24348 14.0083C6.1565 12.4047 7.59365 11.5617 8.55136 11.477C10.8138 11.266 12.2069 12.7653 12.7292 15.976C13.2946 19.4384 13.6858 21.5928 13.9052 22.4346C14.5576 25.3091 15.2744 26.7434 16.0591 26.7434C16.6674 26.7434 17.581 25.8123 18.7999 23.949C20.0176 22.0844 20.67 20.6663 20.7582 19.6912C20.9323 18.0829 20.28 17.277 18.7999 17.277C18.1046 17.277 17.3866 17.4324 16.6483 17.7397C18.0771 13.2013 20.8071 10.9982 24.8371 11.1234C27.5277 11.1999 28.9375 12.7317 29.0663 15.7163L31.0091 14.0083C32.8816 12.4047 34.2746 11.5617 35.1906 11.477C36.6253 11.3506 37.6808 11.76 38.3559 12.7061C39.0285 13.6523 39.279 14.8803 39.1073 16.3934C38.5407 18.9583 37.9301 22.2143 37.2777 26.1625C37.2336 27.9714 37.9098 28.8735 39.3017 28.8735C39.9099 28.8735 40.9976 28.2508 42.566 27.0008L42.6244 26.9545C42.7234 26.0732 42.8844 25.0273 43.1074 23.8144C43.4652 21.8583 43.6656 20.3359 43.7085 19.2401C43.7944 18.4841 43.5976 18.1049 43.1206 18.1049C42.8582 18.1049 42.1187 18.5328 40.8998 19.385L39.3327 17.6771C39.5509 17.5101 40.9201 16.2856 43.4473 14.0083C45.2745 12.3641 46.5149 11.5211 47.1672 11.4782C48.2991 11.3936 49.2127 11.8469 49.9092 12.8372C50.6057 13.8286 50.9539 14.9788 50.9539 16.2856C50.9539 16.7077 50.911 17.1089 50.8251 17.488C51.4567 16.5411 52.2264 15.6884 53.1103 14.9568C55.1115 13.2697 57.3537 12.32 59.8345 12.109C61.9669 11.9409 63.4888 12.4255 64.4059 13.5642C65.1442 14.4918 65.4912 15.8218 65.4495 17.5507C65.7784 17.2786 66.1052 17.0042 66.4299 16.7274C67.4293 15.5887 68.4085 14.6831 69.3662 14.0083C70.9763 12.8696 72.6532 12.2365 74.3932 12.109C76.4828 11.9409 77.9831 12.4232 78.8979 13.5584C79.6803 14.4837 80.0297 15.8079 79.9439 17.5286C79.8997 18.7056 79.6052 20.4182 79.0613 22.6665C78.5163 24.916 78.2455 26.2054 78.2455 26.5417C78.2014 27.4264 78.2897 28.034 78.5079 28.3702C78.7238 28.7065 79.245 28.8735 80.0739 28.8735C80.4448 28.8735 80.9958 28.6416 81.7257 28.1754C81.6559 27.6255 81.6272 27.0713 81.6398 26.5173C81.6816 23.1025 83.2499 19.8558 86.3413 16.7761C89.7344 13.403 93.7394 11.7147 98.3538 11.7147C102.619 11.7147 104.882 13.3995 105.144 16.7645C105.316 18.9096 104.098 21.1185 101.488 23.3912C98.7008 25.8749 95.1956 27.4519 90.9748 28.1244C91.7572 29.1773 92.9319 29.7014 94.5003 29.7014C97.6334 29.7014 101.05 28.9315 104.752 27.3858C104.917 27.3186 105.079 27.2501 105.239 27.1829H105.24ZM122.605 21.1023C122.651 19.9613 122.486 18.9154 122.116 17.9646C121.747 17.0138 121.212 16.5384 120.517 16.5384C118.296 16.5384 116.468 17.7002 115.034 20.0251C113.813 21.9267 113.161 23.9559 113.075 26.1092C113.031 27.1667 113.227 28.0966 113.662 28.899C114.139 29.8301 114.814 30.2939 115.685 30.2939C117.644 30.2939 119.321 29.175 120.714 26.9336C121.888 25.0737 122.518 23.1303 122.606 21.1023H122.605ZM97.4402 18.9757C97.4819 17.844 97.0049 17.277 96.0054 17.277C94.7006 17.277 93.3768 18.1478 92.0291 19.8894C90.6814 21.6311 89.9861 23.2985 89.9443 24.8928C89.9193 24.8928 89.9193 25.1665 89.9443 25.7114C92.0365 24.98 93.9307 23.7965 95.4842 22.2502C96.7437 20.9087 97.396 19.8152 97.4402 18.9757ZM41.3268 3.14697C41.2839 4.1975 40.74 5.20514 39.694 6.16987C38.5193 7.26098 37.1263 7.80712 35.5162 7.80712C33.0354 7.80712 31.838 6.75775 31.9251 4.659C31.9668 3.56904 32.6311 2.5185 33.9156 1.51087C35.1989 0.504396 36.6241 0 38.1925 0C39.1061 0 39.8682 0.347859 40.4788 1.03894C41.0871 1.73234 41.3697 2.43502 41.3268 3.14697Z" fill="#737373"/>
</svg>
