<svg width="265" height="60" viewBox="0 0 265 60" fill="none" xmlns="http://www.w3.org/2000/svg">
<g clip-path="url(#clip0_1202_673)">
<path d="M2.10364 0.927246H46.1428L42.0995 13.6363H30.6799V60H16.3918V13.6363H2.13096L2.10364 0.927246Z" fill="#737373"/>
<path d="M118.266 0.927246H163.316L159.273 13.6363H146.87V60H132.609V13.6363H118.294L118.266 0.927246Z" fill="#737373"/>
<path d="M48.8202 19.7183H62.9444V60.0001H48.9295L48.8202 19.7183Z" fill="#737373"/>
<path d="M68.5449 0.763672H82.6418V28.2819L96.6295 14.6455H113.458L95.7826 31.7728L115.589 60H100.044L86.8217 40.3909L82.6418 44.4273V60H68.5449V0.763672Z" fill="#737373"/>
<path d="M217.956 0.763672H232.217V28.2819L246.177 14.6455H263.006L245.33 31.7728L265 60H249.455L236.26 40.3909L232.217 44.4273V60H218.092L217.956 0.763672Z" fill="#737373"/>
<path d="M55.8959 15.1091C59.8189 15.1091 62.999 11.9344 62.999 8.01816C62.999 4.10195 59.8189 0.927246 55.8959 0.927246C51.973 0.927246 48.7928 4.10195 48.7928 8.01816C48.7928 11.9344 51.973 15.1091 55.8959 15.1091Z" fill="#737373"/>
<path d="M161.513 35.891C161.518 23.309 171.214 12.8459 183.779 11.8638C183.151 11.8638 182.304 11.8638 181.675 11.8638C168.905 12.6074 158.931 23.1622 158.931 35.932C158.931 48.7017 168.905 59.2565 181.675 60.0001C182.304 60.0001 183.151 60.0001 183.779 60.0001C171.182 59.0156 161.475 48.5046 161.513 35.891Z" fill="#737373"/>
<path d="M189.27 11.7818C188.614 11.7818 187.768 11.7818 187.139 11.7818C199.664 12.8145 209.302 23.2634 209.302 35.8091C209.302 48.3547 199.664 58.8037 187.139 59.8364C187.768 59.8364 188.614 59.8364 189.27 59.8364C202.608 59.8364 213.421 49.0423 213.421 35.7273C213.421 22.4122 202.608 11.6182 189.27 11.6182V11.7818Z" fill="#737373"/>
<path d="M185.445 47.6181C178.957 47.6181 173.698 42.3676 173.698 35.8908C173.698 29.414 178.957 24.1636 185.445 24.1636C191.933 24.1636 197.193 29.414 197.193 35.8908C197.178 42.3614 191.927 47.6031 185.445 47.6181ZM185.445 11.7817C172.107 11.7817 161.295 22.5757 161.295 35.8908C161.295 49.2059 172.107 59.9999 185.445 59.9999C198.783 59.9999 209.596 49.2059 209.596 35.8908C209.596 29.4967 207.051 23.3645 202.522 18.8431C197.993 14.3218 191.85 11.7817 185.445 11.7817Z" fill="#737373"/>
</g>
<defs>
<clipPath id="clip0_1202_673">
<rect width="265" height="60" fill="white"/>
</clipPath>
</defs>
</svg>
