<svg width="130" height="30" viewBox="0 0 130 30" fill="none" xmlns="http://www.w3.org/2000/svg">
<path d="M40.5817 4.5485C40.1024 2.76634 38.6911 1.35657 36.907 0.87778C33.685 0 20.7169 0 20.7169 0C20.7169 0 7.74887 0.0265994 4.52683 0.904379C2.74273 1.38317 1.33142 2.79294 0.85211 4.57509C-6.34871e-08 7.79362 0 14.5233 0 14.5233C0 14.5233 -6.34871e-08 21.2529 0.878738 24.498C1.35805 26.2802 2.76936 27.69 4.55346 28.1688C7.7755 29.0465 20.7436 29.0465 20.7436 29.0465C20.7436 29.0465 33.7116 29.0465 36.9336 28.1688C38.7177 27.69 40.1291 26.2802 40.6084 24.498C41.4871 21.2795 41.4871 14.5233 41.4871 14.5233C41.4871 14.5233 41.4605 7.79362 40.5817 4.5485Z" fill="#737373"/>
<path d="M16.5895 20.7473L27.3474 14.5231L16.5895 8.29883V20.7473Z" fill="white"/>
<path d="M60.1802 26.4128C59.3547 25.8542 58.7689 25.0031 58.4228 23.8327C58.0766 22.6623 57.9168 21.1195 57.9168 19.1778V16.5445C57.9168 14.6027 58.1032 13.0067 58.5026 11.8364C58.9021 10.6394 59.5145 9.78821 60.3666 9.25622C61.2187 8.72423 62.3105 8.43164 63.6685 8.43164C65 8.43164 66.0917 8.69764 66.8906 9.25622C67.6894 9.81481 68.3019 10.666 68.6747 11.8364C69.0475 13.0067 69.2339 14.5761 69.2339 16.5179V19.1512C69.2339 21.0929 69.0475 22.6357 68.6747 23.8061C68.3019 24.9765 67.7161 25.8276 66.8906 26.3862C66.0651 26.9182 64.9467 27.2108 63.562 27.2108C62.1241 27.2374 61.0057 26.9448 60.1802 26.4128ZM64.7869 23.5667C65.0266 22.9815 65.1331 21.9973 65.1331 20.6674V15.0017C65.1331 13.6983 65.0266 12.7407 64.7869 12.1556C64.5473 11.5438 64.1479 11.2512 63.5887 11.2512C63.0295 11.2512 62.6567 11.5438 62.417 12.1556C62.1774 12.7673 62.0708 13.6983 62.0708 15.0017V20.6674C62.0708 21.9973 62.1774 22.9815 62.3904 23.5667C62.6034 24.1519 63.0028 24.4445 63.5887 24.4445C64.1479 24.4445 64.5473 24.1519 64.7869 23.5667Z" fill="#737373"/>
<path d="M123.156 19.231V20.162C123.156 21.3323 123.183 22.2101 123.263 22.7953C123.343 23.3805 123.476 23.8061 123.689 24.0721C123.902 24.3381 124.248 24.4711 124.701 24.4711C125.313 24.4711 125.739 24.2317 125.952 23.7529C126.192 23.2741 126.299 22.4761 126.325 21.3855L129.867 21.5983C129.893 21.7579 129.893 21.9707 129.893 22.2367C129.893 23.9125 129.441 25.1627 128.509 25.9872C127.577 26.8118 126.299 27.2374 124.621 27.2374C122.597 27.2374 121.186 26.599 120.387 25.3488C119.588 24.0987 119.162 22.1303 119.162 19.497V16.2785C119.162 13.5653 119.588 11.5704 120.414 10.3202C121.266 9.07003 122.704 8.43164 124.728 8.43164C126.139 8.43164 127.204 8.69763 127.95 9.20302C128.695 9.70841 129.228 10.5064 129.547 11.597C129.867 12.6875 130 14.1771 130 16.0923V19.2044H123.156V19.231ZM123.689 11.5704C123.476 11.8364 123.343 12.2354 123.263 12.8205C123.183 13.4057 123.156 14.2835 123.156 15.4805V16.7838H126.139V15.4805C126.139 14.3101 126.112 13.4323 126.032 12.8205C125.952 12.2088 125.819 11.7832 125.606 11.5438C125.393 11.3044 125.074 11.1714 124.648 11.1714C124.195 11.198 123.875 11.331 123.689 11.5704Z" fill="#737373"/>
<path d="M50.2212 18.8855L45.5612 2.07471H49.6354L51.2597 9.68213C51.6858 11.5707 51.9787 13.1666 52.1917 14.47H52.2982C52.4314 13.5124 52.7509 11.9431 53.2302 9.70873L54.9078 2.07471H58.9819L54.2687 18.8589V26.9185H50.2478V18.8855H50.2212Z" fill="#737373"/>
<path d="M82.4416 8.77783V26.9452H79.2462L78.9 24.7109H78.8201C77.9414 26.3866 76.6366 27.2378 74.9058 27.2378C73.7075 27.2378 72.8021 26.8388 72.2429 26.0408C71.6571 25.2429 71.3908 24.0193 71.3908 22.3435V8.77783H75.4916V22.1041C75.4916 22.9021 75.5715 23.4873 75.7579 23.8331C75.9443 24.1789 76.2372 24.3385 76.6366 24.3385C76.9828 24.3385 77.3289 24.2321 77.6485 24.0193C77.968 23.8065 78.2077 23.5139 78.3675 23.1947V8.77783H82.4416Z" fill="#737373"/>
<path d="M103.451 8.77783V26.9452H100.256L99.9099 24.7109H99.83C98.9512 26.3866 97.6465 27.2378 95.9156 27.2378C94.7173 27.2378 93.812 26.8388 93.2528 26.0408C92.6669 25.2429 92.4007 24.0193 92.4007 22.3435V8.77783H96.5014V22.1041C96.5014 22.9021 96.5813 23.4873 96.7677 23.8331C96.9541 24.1789 97.247 24.3385 97.6465 24.3385C97.9926 24.3385 98.3388 24.2321 98.6583 24.0193C98.9779 23.8065 99.2175 23.5139 99.3773 23.1947V8.77783H103.451Z" fill="#737373"/>
<path d="M93.5723 5.37303H89.4981V26.9451H85.5039V5.37303H81.4297V2.07471H93.5457V5.37303H93.5723Z" fill="#737373"/>
<path d="M116.979 11.6769C116.739 10.5331 116.34 9.70856 115.78 9.17657C115.221 8.67118 114.476 8.40519 113.49 8.40519C112.745 8.40519 112.026 8.61798 111.387 9.04357C110.721 9.46916 110.242 10.0277 109.869 10.7193H109.842V1.14355H105.901V26.9184H109.283L109.709 25.1894H109.789C110.109 25.8012 110.588 26.28 111.2 26.6524C111.839 26.9982 112.532 27.1844 113.304 27.1844C114.689 27.1844 115.701 26.546 116.366 25.2692C117.005 23.9924 117.351 21.9975 117.351 19.3109V16.4382C117.351 14.4166 117.218 12.8207 116.979 11.6769ZM113.224 19.0981C113.224 20.4281 113.171 21.4655 113.064 22.2103C112.958 22.955 112.771 23.487 112.505 23.8062C112.239 24.1254 111.893 24.285 111.467 24.285C111.12 24.285 110.828 24.2052 110.535 24.0456C110.242 23.886 110.029 23.6466 109.842 23.3274V13.0069C109.975 12.5015 110.215 12.1025 110.561 11.7833C110.907 11.4641 111.254 11.3045 111.653 11.3045C112.079 11.3045 112.399 11.4641 112.612 11.7833C112.851 12.1025 112.984 12.6611 113.091 13.4325C113.171 14.2039 113.224 15.2944 113.224 16.7308V19.0981Z" fill="#737373"/>
</svg>
