<svg id="Logos" xmlns="http://www.w3.org/2000/svg" viewBox="0 0 2694.19 427"><defs><style>.cls-1{fill:#ed4135;}</style></defs><title>10</title><polygon points="2694.19 0.15 2595.93 0.15 2595.93 167.36 2556.16 215.73 2516.24 167.36 2516.24 0.15 2417.97 0.15 2417.97 202.83 2507.02 310.46 2507.02 425.77 2605.14 425.77 2605.14 310.46 2694.19 202.83 2694.19 0.15"/><rect x="1299.73" y="2.46" width="98.11" height="424.24"/><polygon points="2234.64 424.08 2136.38 424.08 2136.38 49.13 2185.51 0 2368.22 0 2368.22 98.27 2234.64 98.27 2234.64 424.08"/><polygon points="1917.73 327.81 1917.73 263.63 2025.37 263.63 2025.37 165.51 1917.73 165.51 1917.73 98.42 1955.81 98.27 2069.74 98.73 2070.05 0.46 1955.96 0 1868.29 0.46 1819.46 49.59 1819.46 376.79 1868.6 425.92 1955.5 425.92 2069.74 426.38 2070.05 328.27 1955.66 327.81 1917.73 327.81"/><polygon points="1646.27 269.62 1606.35 317.83 1566.43 269.62 1566.43 2.3 1468.32 2.3 1468.32 304.78 1568.12 425.77 1644.58 425.77 1744.38 304.78 1744.38 2.3 1646.27 2.3 1646.27 269.62"/><path d="M316.73,1287.88H152.9V1713.5H403.64l48.82-49.13V1337l-49.13-49.14Zm37.93,327.51H251.48V1385.08H354.66Z" transform="translate(-152.9 -1286.5)"/><polygon points="499.31 98.27 613.24 98.73 613.71 0.46 499.47 0 411.8 0.46 362.97 49.59 362.97 376.79 412.1 425.92 499.01 425.92 613.24 426.38 613.71 328.27 499.31 327.81 461.24 327.81 461.24 263.63 568.87 263.63 568.87 165.51 461.24 165.51 461.24 98.42 499.31 98.27"/><polygon points="767.25 1.38 669.13 1.38 669.13 377.4 718.26 426.38 900.83 426.38 900.83 328.27 767.25 328.27 767.25 1.38"/><polygon points="1135.13 2.3 1135.13 165.51 1047 165.51 1047 1.38 948.88 1.38 948.88 426.69 1047 426.69 1047 263.63 1135.13 263.63 1135.13 426.69 1233.4 426.69 1233.4 2.3 1135.13 2.3"/><rect class="cls-1" x="0.61" y="328.89" width="97.81" height="97.8"/><rect class="cls-1" x="2596.23" y="0.15" width="97.81" height="97.81"/></svg>