<svg width="132" height="53" viewBox="0 0 132 53" fill="none" xmlns="http://www.w3.org/2000/svg">
<path fill-rule="evenodd" clip-rule="evenodd" d="M0.0779739 5.97694L0.0769272 5.91369V0.851482H5.12844V37.9805L5.13054 38.0963V43.106H0.0769272V38.0437L0.0779739 37.9805V5.97694Z" fill="#3781C2"/>
<path fill-rule="evenodd" clip-rule="evenodd" d="M51.443 27.7175C51.5727 35.3972 56.3241 41.5387 62.0562 41.4358C67.7872 41.3329 72.3274 35.0242 72.1978 27.3445C72.067 19.6639 67.3156 13.5223 61.5835 13.6263C55.8525 13.7292 51.3123 20.0379 51.443 27.7175ZM93.2687 18.4323C93.4006 18.7249 93.0876 17.995 93.0876 17.995L93.2687 18.4323ZM96.7115 50.2258C96.943 49.8293 97.2656 49.2226 97.6493 48.4648L96.7115 50.2258ZM97.0083 15.7828C97.0694 15.9532 97.1402 16.1311 97.2195 16.3187L98.9205 20.5085L97.0083 15.7828ZM75.842 36.8741C78.9642 39.7252 81.7756 41.1989 85.3705 41.1989C89.0501 41.2268 92.3213 39.4165 92.3213 35.932C92.3213 33.0241 89.7585 31.3232 85.1797 29.3756C81.2997 27.6865 78.4122 26.5021 76.9031 24.0573C77.0874 25.1194 77.1839 26.217 77.1839 27.3403C77.1839 36.7712 70.3842 44.4176 61.9961 44.4176C53.608 44.4176 46.8084 36.7712 46.8084 27.3403C46.8084 21.6542 49.2801 16.6177 53.0797 13.5137H42.802V37.9802L42.803 38.0778V43.1057H38.2381V38.2418C38.2414 38.156 38.2424 38.0692 38.2424 37.9802V13.5137H34.2177V10.4344H38.3013C38.8287 4.2221 42.654 0.70866 47.9499 0.70866C51.384 0.70866 53.2694 1.0688 54.3583 1.57577V5.78697C54.3412 6.10101 54.3412 6.29287 54.3412 6.29287C54.294 6.28751 54.1815 6.28536 54.1815 6.28536C52.5288 4.75158 50.8985 3.61008 47.0903 3.61437C44.057 3.61437 42.0506 6.09351 42.7516 10.4344H59.8365C60.5428 10.3218 61.263 10.2629 61.9961 10.2629C68.0809 10.2629 73.3307 14.2865 75.7541 20.0979C75.7316 19.7753 75.7209 19.4388 75.7209 19.0872C75.7209 13.0239 81.5548 10.4451 87.6149 10.458C87.8464 10.4569 88.0736 10.458 88.2966 10.4633C90.4295 10.429 93.4681 11.1289 95.3235 11.6198L98.9205 20.5085L104.061 33.1217L104.664 35.1474L105.336 33.1217L111.837 16.9318C113.036 12.4741 117.784 10.5448 123.027 10.5555C125.634 10.5437 127.559 10.8599 129.867 11.6766V16.5727C127.025 14.4945 124.989 13.2865 121.764 13.2865C118.929 13.2865 115.522 14.5491 115.522 18.7464C115.467 21.9008 117.348 22.4774 122.868 25.233C127.405 27.2148 131.591 29.4024 131.615 34.469C131.615 42.916 123.343 44.379 119.316 44.3919C115.721 44.3919 112.426 43.4991 110.594 41.9653V36.3886L110.888 36.634C114.159 39.7059 117.048 41.2975 120.782 41.2975C124.463 41.3254 127.733 39.514 127.733 36.0295C127.733 33.1217 125.17 31.4207 120.592 29.4732C116.215 27.5675 113.344 26.3049 112.17 23.1484C110.386 27.5268 102.085 47.8646 100.131 52.2119H95.6546L97.6804 48.4069C98.8026 46.184 100.435 42.6963 101.885 39.3597L93.2687 18.4323C93.2108 18.3048 93.0694 17.9832 92.7811 17.3241C92.1198 15.8085 91.5045 14.4087 89.6439 13.7035C88.6471 13.3658 87.586 13.189 86.3523 13.189C83.5173 13.189 79.8913 14.4516 79.8913 18.6488C79.8367 21.8032 81.9353 22.3799 87.4563 25.1344C91.9933 27.1173 96.1788 29.3049 96.2034 34.3714C96.2034 42.8185 87.93 44.2804 83.9032 44.2944C80.707 44.2944 77.7466 43.588 75.842 42.3533V36.8741Z" fill="#3781C2"/>
<path fill-rule="evenodd" clip-rule="evenodd" d="M14.5553 10.7494L14.611 14.445L14.6078 14.6937L14.657 14.6926C14.716 14.5383 14.7953 14.4075 14.8704 14.31C16.7257 12.3089 19.0644 10.3207 24.6229 10.3207C29.9434 10.3207 33.3872 14.8684 33.5254 17.7312L33.5308 37.9801V38.0809V43.1056H28.9713V37.068L28.9702 19.8299C28.9702 16.2607 25.8565 13.6797 22.0451 13.6797C18.8768 13.6797 14.8103 16.5479 14.6753 19.4515V37.9855L14.6775 38.1216V43.1099H10.1157V15.0045L10.1168 10.7494H14.5553Z" fill="#3781C2"/>
</svg>
