<svg width="132" height="53" viewBox="0 0 132 53" fill="none" xmlns="http://www.w3.org/2000/svg">
<path d="M25.6672 1.12985C25.6672 1.38061 25.4459 1.45437 24.3396 1.58712C23.8971 1.64613 23.4693 1.74938 23.3808 1.80838C23.3071 1.86739 23.0416 1.95589 22.7908 2.01489C22.3335 2.11815 22.1418 2.1919 20.4307 3.01794C18.2771 4.03574 14.8844 6.33686 12.9963 8.06269C11.1082 9.77378 8.18756 12.8124 7.50902 13.786C7.31726 14.0515 7.05175 14.4055 6.90424 14.553C6.75673 14.7153 6.46172 15.1135 6.24046 15.4381C6.0192 15.7773 5.79794 16.0723 5.75368 16.1166C5.69468 16.1608 5.50292 16.4559 5.31116 16.7804C5.1194 17.1049 4.91289 17.3999 4.86864 17.4442C4.69163 17.5769 4.0426 18.7717 3.1723 20.5418C2.71503 21.4711 2.28726 22.3562 2.19875 22.4889C2.125 22.6364 2.066 22.8282 2.066 22.9314C2.066 23.0347 1.97749 23.3002 1.85949 23.5215C1.74148 23.7427 1.60872 24.1262 1.54972 24.3918C1.49072 24.672 1.38746 24.9818 1.31371 25.1145C0.767932 26.1323 0.0303952 32.6374 0.413914 33.1242C0.487668 33.2274 0.605674 33.6847 0.664677 34.1567C0.708929 34.6288 0.856437 35.1893 0.974443 35.4106C1.0777 35.6318 1.18095 35.8973 1.18095 36.0153C1.18095 36.3988 2.53802 38.2427 3.36406 38.9802C4.26386 39.7768 5.96019 40.6913 6.78623 40.8388C7.0665 40.8978 7.37626 40.9863 7.45002 41.0601C7.71553 41.2518 11.0787 41.3551 12.4653 41.2076C14.1174 41.0158 16.1235 40.6913 16.33 40.5586C16.4037 40.5143 16.8315 40.3963 17.274 40.3225C17.7165 40.234 18.4983 40.057 19.0294 39.9243C19.5604 39.8063 20.3569 39.5998 20.8289 39.4965C21.2862 39.3932 21.714 39.2752 21.8025 39.231C21.8762 39.172 22.2893 39.0687 22.7318 38.995C23.1743 38.9065 24.0299 38.7295 24.6346 38.6115C25.2394 38.4787 26.1392 38.3017 26.626 38.2279C27.1128 38.1542 27.806 38.0214 28.1748 37.9329C29.1336 37.6969 34.1341 37.5789 35.0339 37.7707C35.4469 37.8592 36.0812 38.0067 36.4647 38.0804C36.8482 38.1689 37.276 38.2869 37.4235 38.3755C37.571 38.4492 38.0431 38.6705 38.4708 38.8475C38.8838 39.0392 39.2379 39.2457 39.2379 39.3047C39.2379 39.3785 39.3116 39.4228 39.4001 39.4228C39.6951 39.4228 40.8605 40.4553 41.4062 41.2076L41.9372 41.9156L42.837 41.1043C44.5629 39.5408 46.1855 39.1277 49.5339 39.4228C50.5369 39.4965 51.481 39.644 51.6285 39.7178C51.776 39.8063 52.0563 39.8653 52.248 39.8653C52.4398 39.8653 52.779 39.9685 53.0151 40.0865C53.2363 40.2045 53.5461 40.3078 53.6788 40.3078C53.8116 40.3078 54.3869 40.5438 54.9327 40.8241C55.4932 41.1043 56.0095 41.3403 56.0685 41.3403C56.452 41.3403 56.039 40.9421 54.6229 39.8653C53.7378 39.2162 52.9708 38.641 52.8823 38.5672C52.8085 38.5082 52.4693 38.2869 52.1448 38.0952C51.8202 37.9034 51.5252 37.6969 51.481 37.6379C51.3925 37.5199 48.8111 36.1776 48.6636 36.1776C48.6046 36.1776 48.3686 36.1038 48.1326 36.0006C47.454 35.7203 46.4657 35.4401 45.2857 35.1893C43.8696 34.8943 38.8986 34.7615 37.7628 34.9975C37.3203 35.086 36.4205 35.2188 35.7714 35.2925C34.1194 35.4843 31.4495 36.0006 29.2074 36.5611C28.6763 36.6791 27.8798 36.8709 27.4373 36.9594C26.9948 37.0626 26.567 37.1806 26.4785 37.2249C26.4047 37.2839 26.036 37.3724 25.6672 37.4167C25.2984 37.4757 24.8706 37.5789 24.7084 37.6527C24.5461 37.7264 24.0889 37.8592 23.6758 37.9329C22.54 38.1542 21.5075 38.3902 21.0207 38.5377C20.3422 38.7442 17.9378 39.1277 15.5629 39.408C14.5156 39.526 13.8813 39.526 12.5538 39.349C11.6245 39.2162 10.7984 39.0687 10.7099 38.995C10.6214 38.936 10.3559 38.8327 10.1199 38.7737C9.22011 38.5525 7.52377 37.2249 7.037 36.3546C6.71248 35.7941 6.24046 34.7763 6.0487 34.26C5.79794 33.552 5.69468 30.5281 5.87169 29.6135C6.26996 27.7549 6.35846 27.3862 6.49122 26.9731C6.56497 26.7224 6.77148 26.0586 6.94849 25.5128C7.1255 24.967 7.33201 24.4803 7.39101 24.436C7.46477 24.3918 7.52377 24.259 7.52377 24.1262C7.52377 23.9935 7.75978 23.4035 8.04005 22.8134C8.32031 22.2234 8.55632 21.6776 8.55632 21.6039C8.55632 21.5154 8.60058 21.4269 8.67433 21.3974C8.73333 21.3679 8.93984 21.0138 9.1316 20.6156C9.57413 19.701 10.7984 17.6949 11.6687 16.4116C12.5685 15.0988 13.0405 14.435 13.1291 14.3465C13.1733 14.3023 13.5716 13.8007 14.0141 13.2402C15.1499 11.7799 15.5777 11.2931 17.9968 8.88874C20.2832 6.58762 20.8732 6.07135 22.0975 5.23055C24.4576 3.60797 25.8147 3.01794 27.452 2.88519C28.2486 2.82618 28.3076 2.84094 28.8238 3.35721C29.1484 3.68173 29.3549 4.02099 29.3549 4.24225C29.3549 4.71428 28.8681 5.20105 28.3961 5.20105C27.983 5.20105 27.0538 5.74683 26.685 6.18935C26.2425 6.73513 25.9622 7.45791 25.9622 8.0922C25.9622 8.65272 26.0212 8.75598 26.4637 9.03624L26.98 9.34601L27.5553 9.05099C29.3401 8.13645 30.7414 5.2453 30.2547 3.48997C30.0334 2.64918 29.1779 1.69038 28.5436 1.57237C28.2338 1.51337 27.9978 1.38061 27.9535 1.2036C27.865 0.967592 27.7028 0.92334 26.7587 0.92334C25.9032 0.92334 25.6672 0.967592 25.6672 1.12985ZM88.5053 1.60187C88.2251 1.64613 87.7826 1.76413 87.517 1.88214C87.2663 2.00014 86.9565 2.1034 86.8238 2.1034C86.691 2.1034 86.4697 2.1624 86.3222 2.25091C86.1895 2.32466 85.747 2.53117 85.3339 2.69343C83.2688 3.56372 79.8909 5.59932 78.0176 7.11865C76.1 8.68223 75.4509 9.2575 73.9021 10.8063C71.6157 13.0927 70.5242 14.3613 68.8426 16.6329C68.0608 17.6802 67.3675 18.6095 67.2938 18.698C67.2348 18.7717 67.0135 19.111 66.8218 19.4355C66.63 19.76 66.4235 20.055 66.3792 20.0993C66.158 20.2763 64.4616 23.2707 63.7536 24.7458C63.3258 25.6308 62.8981 26.4864 62.8243 26.6191C62.7505 26.7666 62.6915 26.9584 62.6915 27.0469C62.6915 27.1354 62.603 27.4157 62.485 27.6664C61.5852 29.702 61.1575 32.2096 61.2607 34.7763C61.3492 36.5316 61.423 36.8856 62.131 38.3607C62.485 39.113 63.4438 40.1603 64.0929 40.4996C65.4352 41.2076 65.6712 41.2666 67.456 41.2518C68.4001 41.2371 69.2704 41.1633 69.3736 41.0748C69.4621 41.0011 69.7867 40.8831 70.0669 40.8241C70.5094 40.7208 71.8518 40.1308 73.0171 39.4818C73.9906 38.9507 76.1737 37.0479 77.2948 35.7351C77.7373 35.204 78.1798 34.7025 78.2831 34.5845C78.9764 33.847 80.6137 31.0443 81.2775 29.466C81.4545 29.053 81.6462 28.5957 81.72 28.4335C81.7938 28.2712 81.897 27.9024 81.956 27.6222C82.0003 27.3419 82.1183 27.0174 82.2068 26.9141C82.2953 26.8109 82.3543 25.9111 82.369 24.849C82.3838 22.8724 82.31 22.6217 81.543 21.8399C81.1005 21.3826 80.0827 21.2203 78.9616 21.4269C78.4158 21.5154 77.8996 21.6481 77.8111 21.7071C77.7373 21.7809 77.5013 21.8841 77.3095 21.9431C76.69 22.1349 75.0379 23.3445 74.1086 24.2885C73.1056 25.3063 72.6335 25.9996 71.8813 27.5484C71.601 28.1089 71.306 28.699 71.2322 28.8317C71.1585 28.9792 71.0995 29.2005 71.0995 29.3333C71.0995 29.4513 71.011 29.702 70.9225 29.879C70.6274 30.3806 70.0079 32.9177 70.1259 33.0504C70.1702 33.0799 70.7455 32.6374 71.424 32.0621C72.1025 31.4869 72.7221 31.0148 72.8253 31.0148C72.9138 31.0148 73.0171 30.9558 73.0466 30.8968C73.1056 30.7493 74.4921 29.9085 74.8757 29.7758C75.0674 29.7168 75.2444 29.3923 75.4362 28.7727C76.3802 25.6013 78.4306 23.0494 80.0237 23.0494C81.4545 23.0494 81.8528 24.1557 81.2922 26.6634C81.2037 27.0616 81.0562 27.4599 80.9825 27.5337C80.894 27.6222 80.835 27.8139 80.835 27.9614C80.835 28.1089 80.7464 28.4187 80.6284 28.6252C80.5104 28.8465 80.2597 29.348 80.0679 29.761C79.7286 30.5133 78.9321 31.9146 78.7699 32.0474C78.7256 32.0916 78.3568 32.5489 77.9586 33.0799C76.336 35.2188 73.9464 37.3871 72.3975 38.0804C71.483 38.4935 70.3177 38.6115 69.2556 38.3902C68.5328 38.2427 68.2821 38.0952 67.7215 37.5199C66.807 36.5906 66.4825 35.5138 66.571 33.8027C66.63 32.4457 66.925 30.7346 67.1315 30.5133C67.2053 30.4248 67.2643 30.2035 67.2643 29.997C67.2643 29.7758 67.3675 29.4218 67.4855 29.1857C67.6035 28.9645 67.7068 28.6547 67.7068 28.522C67.7068 28.3892 67.8101 28.0942 67.9281 27.8582C68.0461 27.6369 68.1493 27.3714 68.1493 27.2976C68.1493 26.7076 70.5979 22.0464 72.1615 19.6715C72.309 19.465 72.5008 19.1405 72.5893 18.9487C72.6926 18.7717 72.8106 18.6242 72.8696 18.6242C72.9286 18.6242 73.0171 18.5062 73.0613 18.3587C73.1498 18.1079 74.0791 16.8099 75.4657 15.025C78.4896 11.1456 82.7083 7.1334 86.1452 4.87654C87.222 4.1685 89.2281 3.13595 89.5379 3.13595C89.6707 3.13595 89.8329 3.07695 89.9214 2.98844C89.9952 2.91469 90.4672 2.81143 90.9392 2.76718C92.488 2.61967 92.5913 3.07695 91.2195 3.99149C90.8212 4.25701 90.3639 4.59627 90.2017 4.72903C90.0394 4.86179 89.4789 5.31906 88.9479 5.74683C87.0008 7.28091 85.1864 9.44926 84.1539 11.4554C83.2541 13.2107 83.0328 13.9335 83.0033 15.0545C82.9591 16.7509 83.4901 17.3262 85.0832 17.3262C85.865 17.3262 86.2042 17.2524 87.0155 16.8394C88.2841 16.1903 90.5262 13.9925 91.6325 12.2814C92.7683 10.5556 93.7271 8.62322 93.9041 7.70868C93.9484 7.42841 94.0516 7.11865 94.1254 7.03014C94.1991 6.95639 94.2876 6.2041 94.3319 5.36331C94.3614 4.53727 94.4351 3.79973 94.4794 3.72598C94.5236 3.65223 94.9219 3.51947 95.3497 3.41621C96.0135 3.26871 96.338 3.28346 97.341 3.48997C98.0048 3.62272 98.6538 3.78498 98.8014 3.85874C98.9341 3.91774 99.2881 4.08 99.5684 4.198C99.8487 4.33076 100.247 4.49302 100.453 4.58152C100.866 4.77328 102.032 5.40756 102.371 5.64357C102.489 5.71733 103.123 6.13035 103.772 6.55812C104.421 6.97114 105.483 7.66442 106.132 8.07745C107.534 8.97724 108.67 9.62627 108.876 9.62627C109.009 9.62627 111.694 6.91214 111.767 6.70563C111.797 6.64662 111.487 6.45486 111.103 6.2631C110.72 6.0861 110.307 5.87959 110.189 5.80583C107.681 4.25701 104.997 2.81143 103.625 2.25091C102.002 1.60187 101.914 1.58712 99.0226 1.58712C96.9575 1.58712 96.1462 1.63137 95.9987 1.76413C95.9102 1.86739 95.7037 1.95589 95.5562 1.95589C95.4087 1.95589 94.9219 2.0739 94.4941 2.23616L93.7123 2.51642L92.9896 2.05915C92.311 1.63137 92.1783 1.60187 90.6442 1.57237C89.7592 1.55762 88.7856 1.57237 88.5053 1.60187ZM93.3141 4.53727C93.4321 4.99454 93.1223 7.28091 92.9306 7.47267C92.8421 7.56117 92.7831 7.73818 92.7831 7.88569C92.7831 8.56422 91.1457 11.5439 90.0984 12.7682C88.8741 14.2137 87.1188 15.8216 86.75 15.8216C86.6615 15.8216 86.5877 15.8806 86.5877 15.9543C86.5877 16.0723 85.3044 16.5591 84.9799 16.5591C84.8914 16.5591 84.5964 16.3231 84.3014 16.0428C83.5638 15.2906 83.6081 14.7153 84.6259 12.6502C85.2454 11.3521 85.3044 11.2784 86.3075 9.92129C87.576 8.22495 89.5526 6.29261 91.1162 5.23055C92.7978 4.08 93.1666 3.96199 93.3141 4.53727Z" fill="#CF1A1A"/>
<path d="M120.809 1.94079C120.028 2.1768 118.656 2.81109 118.272 3.12085C118.169 3.20936 117.387 3.78463 116.532 4.41892C114.599 5.84974 109.599 10.7912 107.755 13.0776C107.445 13.4759 107.017 13.9774 106.826 14.1839C106.044 15.0247 103.256 18.8894 102.445 20.276C102.371 20.4235 101.943 21.102 101.53 21.7953C101.102 22.5033 100.748 23.1228 100.748 23.1966C100.748 23.2704 100.66 23.4179 100.571 23.5211C100.468 23.6391 100.262 23.9489 100.099 24.2292C99.9518 24.5094 99.5978 25.1732 99.3028 25.7042C99.0225 26.2353 98.4767 27.2531 98.108 27.9758C97.7097 28.7429 97.3114 29.3329 97.1344 29.3919C96.3379 29.6869 95.7478 29.8344 95.3791 29.8344C94.9808 29.8344 94.9661 29.8197 95.0693 29.2739C95.1283 28.9789 95.2611 28.5659 95.3643 28.3594C95.7183 27.7251 95.9986 26.9728 96.1019 26.4418C96.1609 26.1615 96.2789 25.8517 96.3526 25.7485C96.4264 25.6452 96.5001 24.9077 96.5149 24.0964C96.5296 22.7246 96.5001 22.6066 96.1314 22.105C95.8363 21.7363 95.5118 21.515 94.9365 21.338C94.1843 21.102 94.081 21.102 93.2697 21.338C91.2194 21.9428 89.582 23.0196 87.3399 25.247C85.4223 27.1645 84.8323 27.8283 84.08 28.9494C83.962 29.1264 83.7702 29.3624 83.6817 29.4804C83.5785 29.5837 83.49 29.7017 83.49 29.7459C83.49 29.7902 83.2982 30.0999 83.0622 30.454C82.4574 31.339 81.3069 33.6106 81.2036 34.1269C81.1446 34.3629 81.0414 34.5842 80.9676 34.6284C80.8939 34.6874 80.8348 34.8497 80.8348 34.9972C80.8348 35.1594 80.7316 35.5872 80.5988 35.9707C80.4513 36.3985 80.3628 37.195 80.3628 38.0801C80.3481 39.6732 80.6136 40.4255 81.3806 40.9712C81.9412 41.3695 83.9768 41.3843 84.5225 41.0007C84.7143 40.868 84.9946 40.75 85.1421 40.75C85.2896 40.75 85.4076 40.7057 85.4076 40.632C85.4076 40.573 85.7173 40.3517 86.1156 40.1304C86.8236 39.7174 86.9711 39.5994 88.7412 38.0506C89.6705 37.2393 90.0836 36.782 91.3816 35.2185C91.5734 34.9677 91.8094 34.7022 91.8979 34.5989C91.9717 34.4957 92.0454 34.3777 92.0454 34.3334C92.0454 34.2154 92.6944 33.3156 92.8272 33.2566C92.8862 33.2271 92.9304 33.1091 92.9304 33.0058C92.9304 32.8878 93.019 32.7108 93.1222 32.6076C93.2255 32.5043 93.4762 32.106 93.668 31.7225C94.081 30.8817 94.6415 30.572 95.7773 30.572C96.7066 30.572 96.8984 30.7785 96.5444 31.457C96.4264 31.693 96.3231 31.9438 96.3231 32.0323C96.3231 32.106 96.2494 32.3568 96.1461 32.5928C95.6741 33.7139 95.1578 35.8085 94.9808 37.2098C94.7595 39.1274 95.0398 40.2042 95.9396 40.9122C96.7361 41.5318 98.7275 41.3253 99.6568 40.5287C99.76 40.4402 100.055 40.219 100.335 40.0124C100.601 39.8059 101.324 39.1569 101.928 38.5816C102.533 37.9916 103.079 37.5048 103.138 37.5048C103.271 37.5048 103.271 37.5048 103.315 38.8471C103.359 39.9534 103.728 40.7057 104.377 41.0597C105.011 41.3843 106.457 41.3253 107.283 40.9122C107.947 40.5877 109.938 39.1421 110.263 38.7439C110.351 38.6554 110.572 38.5226 110.764 38.4636C111.089 38.3604 111.103 38.3899 111.015 38.8471C110.912 39.4372 111.251 40.6467 111.605 41.0155C111.811 41.2072 112.121 41.2663 112.977 41.2515C114.024 41.2515 114.157 41.2072 115.13 40.6172C116.62 39.7027 117.8 38.6554 119.556 36.7525C120.721 35.484 121.134 34.9972 121.414 34.5547C121.547 34.3482 121.812 34.0236 121.989 33.8171C122.166 33.6106 122.535 33.1091 122.815 32.7108C123.081 32.2978 123.42 31.8258 123.553 31.634C123.789 31.3095 123.789 31.3095 123.258 31.3095C122.756 31.3095 122.668 31.398 121.709 32.6666C120.455 34.3629 119.91 35.0119 118.965 35.956C117.254 37.6671 116.281 38.1686 115.779 37.5638C115.484 37.2098 115.765 36.605 118.051 32.7993C119.187 30.8965 120.234 29.1411 120.352 28.9051C120.485 28.6691 120.662 28.3741 120.736 28.2414C121.252 27.3858 121.65 26.7663 121.812 26.5155C121.901 26.3533 122.063 26.0582 122.152 25.8517C122.225 25.66 122.343 25.4535 122.402 25.4092C122.461 25.365 122.668 25.0257 122.874 24.6274C123.066 24.2439 123.287 23.9341 123.346 23.9341C123.42 23.9341 123.464 23.8604 123.464 23.7719C123.464 23.6686 123.671 23.2704 123.907 22.8721C124.158 22.4886 124.35 22.0755 124.35 21.9723C124.35 21.8395 123.907 21.81 122.565 21.8248C120.868 21.869 120.75 21.8838 120.426 22.2378C120.234 22.4443 120.028 22.6066 119.969 22.6066C119.91 22.6066 119.629 22.3706 119.349 22.0903C118.685 21.397 117.962 21.22 116.782 21.4265C116.281 21.5298 115.809 21.6478 115.72 21.7215C115.647 21.7805 115.411 21.8838 115.219 21.9428C115.012 22.0018 114.791 22.105 114.703 22.1788C114.614 22.2526 114.113 22.6213 113.611 22.9901C113.095 23.3589 112.372 23.9341 111.988 24.2734C111.251 24.9667 108.699 27.8726 108.301 28.4774C108.168 28.6986 107.991 28.9494 107.902 29.0379C107.829 29.1264 107.666 29.3329 107.563 29.4804C107.46 29.6427 107.15 30.0852 106.855 30.4982C106.56 30.8965 106.014 31.693 105.646 32.2683C105.262 32.8288 104.923 33.3304 104.879 33.3746C104.82 33.4189 104.628 33.7139 104.436 34.0384C104.244 34.3629 104.038 34.6579 103.993 34.7022C103.949 34.7464 103.595 35.1742 103.226 35.661C101.545 37.8588 100.276 38.4931 99.5683 37.5048C99.3175 37.1508 99.2585 36.9 99.3175 36.428C99.4208 35.4397 99.7305 34.0531 99.878 33.9056C99.9518 33.8171 100.011 33.6254 100.011 33.4779C100.011 33.3304 100.099 32.9911 100.217 32.7403C100.321 32.4748 100.527 31.9733 100.675 31.6045C101.176 30.336 102.076 28.5069 102.194 28.5069C102.356 28.5069 105.882 25.9402 106.575 25.306C106.737 25.1584 107.268 24.7159 107.755 24.3029C108.891 23.3589 114.349 17.9453 115.175 16.957C115.809 16.1753 116.296 15.6 116.871 14.9362C117.048 14.7297 117.52 14.1544 117.903 13.6381L118.611 12.7236H118.095C117.653 12.7236 117.505 12.8268 116.797 13.7119C116.369 14.2724 115.956 14.7887 115.868 14.8772C115.794 14.9657 115.263 15.5705 114.703 16.2048C113.404 17.6798 109.289 21.7953 107.829 23.0786C107.224 23.6244 106.486 24.2587 106.206 24.5094C105.926 24.7602 105.646 24.9667 105.587 24.9667C105.528 24.9667 105.395 25.0552 105.277 25.1732C104.864 25.5862 103.949 26.1467 103.698 26.1467C103.492 26.1467 103.448 26.0582 103.507 25.8075C103.551 25.6305 103.669 25.3797 103.757 25.2617C103.861 25.1437 104.082 24.7454 104.259 24.3767C104.451 24.0079 104.657 23.6096 104.731 23.4916C104.805 23.3736 105.41 22.3411 106.073 21.2053C106.752 20.0694 107.342 19.1106 107.416 19.0959C107.475 19.0664 107.534 18.9926 107.534 18.9189C107.534 18.8156 107.991 18.0781 108.743 16.9423C108.964 16.6178 110.041 15.1132 110.956 13.8299C113.552 10.1865 118.036 5.42197 120.411 3.75513C121.296 3.1356 122.063 2.89959 122.373 3.15035C122.697 3.41587 122.491 4.46317 121.886 5.76123C121.606 6.36601 121.414 6.88229 121.458 6.92654C121.562 7.0298 122.579 6.67578 122.579 6.52827C122.579 6.45452 122.653 6.21851 122.756 5.98249C123.287 4.68443 123.45 4.0059 123.464 3.1651V2.23581L122.786 1.95554C122.004 1.61628 121.901 1.61628 120.809 1.94079ZM94.9513 23.0343C95.4676 23.4621 95.7921 24.6127 95.6003 25.2765C95.5118 25.5715 95.4381 25.9255 95.4381 26.0582C95.4381 26.5745 94.14 29.2297 93.7712 29.4509C93.255 29.7754 91.4996 28.4774 91.0129 27.3858C90.4523 26.191 90.7621 25.0994 92.0012 23.9046C93.1222 22.8131 94.2875 22.4738 94.9513 23.0343ZM118.847 23.1376C119.526 23.3146 119.408 23.8456 118.257 25.7485C117.667 26.7368 117.136 27.6513 117.077 27.7693C117.018 27.8873 116.856 28.1676 116.709 28.3889C116.576 28.6101 115.971 29.5984 115.366 30.6015C114.762 31.6045 114.231 32.4453 114.172 32.4896C114.127 32.5338 113.921 32.8288 113.729 33.1533C113.537 33.4779 113.301 33.8171 113.213 33.9204C112.947 34.2449 112.77 34.4662 112.372 35.0709C111.398 36.5165 109.909 37.7998 109.186 37.7998C108.581 37.7998 108.065 37.1803 108.168 36.546C108.374 35.2775 108.891 34.0826 110.189 31.8258C112.682 27.5038 116.768 23.0343 118.228 23.0491C118.39 23.0491 118.67 23.0933 118.847 23.1376ZM90.4966 28.6249C91.0571 29.2297 91.7209 29.7607 92.1782 29.9819C92.9157 30.336 93.314 30.926 92.9747 31.1472C92.8862 31.1915 92.6649 31.516 92.4732 31.8553C90.7031 34.9087 87.7382 37.7998 86.3664 37.7998C86.1746 37.7998 85.7763 37.5638 85.4666 37.2836L84.9208 36.7673L84.9946 35.72C85.0388 35.1447 85.1568 34.5989 85.2453 34.5104C85.3338 34.4219 85.4076 34.2449 85.4076 34.1121C85.4076 33.7729 86.7351 31.1915 87.4727 30.0999C87.8267 29.5837 88.343 28.8166 88.6232 28.3889C88.9035 27.9758 89.228 27.6218 89.3608 27.6218C89.4788 27.6218 89.9803 28.0791 90.4966 28.6249Z" fill="#CF1A1A"/>
<path d="M130.766 3.25421C129.483 4.30151 128.023 5.33406 127.447 5.59958C127.329 5.64383 127.197 5.73233 127.152 5.79134C127.005 5.96835 123.892 7.41392 123.642 7.41392C123.568 7.41392 123.302 7.51717 123.081 7.63518C122.845 7.75318 122.491 7.85644 122.27 7.85644C122.063 7.85644 121.827 7.93019 121.754 8.00395C121.576 8.18096 119.408 8.44647 118.066 8.44647C117.166 8.44647 117.166 8.44647 116.443 9.22826C115.101 10.6738 114.467 11.4261 114.467 11.5441C114.467 11.9276 118.759 11.7654 120.367 11.3081C122.034 10.8361 124.792 9.53802 125.898 8.71198C127.551 7.48767 129.439 5.71758 130.545 4.37527C131.12 3.68198 131.902 2.53142 131.843 2.47242C131.814 2.44292 131.327 2.79694 130.766 3.25421ZM27.0685 11.3524C26.8325 11.3819 26.508 11.5146 26.3457 11.6326C26.1835 11.7506 25.9622 11.8391 25.8589 11.8391C25.6819 11.8391 24.2216 12.6652 24.0446 12.8717C24.0004 12.9159 23.6906 13.1372 23.3513 13.3585C22.7318 13.7862 20.6372 15.7923 19.5456 17.0019C18.0558 18.654 16.4775 21.0288 15.5924 22.9169C14.5451 25.1738 14.3829 25.8228 14.3829 27.8437C14.3829 29.6728 14.5009 30.1153 15.1942 30.6906C15.6367 31.0593 16.5955 31.4576 17.0233 31.4576C18.0853 31.4429 20.1504 30.4398 21.6107 29.245C22.6728 28.3747 25.6377 25.2476 26.1835 24.451C26.508 23.9642 26.8177 23.5365 26.8915 23.5217C26.9505 23.4922 26.9948 23.4185 26.9948 23.3447C26.9948 23.2267 27.8945 21.7959 28.1748 21.4714C28.2486 21.3681 28.3223 21.2501 28.3223 21.2059C28.3223 21.1469 28.4993 20.8813 28.7058 20.6158C29.0009 20.2176 29.2221 20.0996 29.7679 20.011C30.1514 19.952 30.5792 19.8488 30.7267 19.775C30.9185 19.6865 31.007 19.7013 31.066 19.8783C31.1545 20.1143 30.9332 20.6601 30.2989 21.7221C30.1367 22.0024 29.8564 22.6072 29.6646 23.0497C29.4876 23.4922 29.2811 23.9937 29.2074 24.156C28.8976 24.805 28.7206 25.8523 28.6616 27.2242C28.6026 28.4485 28.6468 28.773 28.8828 29.2893C29.2959 30.1743 30.0777 30.9266 30.7414 31.1036C30.9627 31.1479 31.1692 31.2511 31.2135 31.3249C31.3462 31.5609 33.0868 31.4576 33.9424 31.1774C34.7241 30.9118 36.155 30.2333 36.4942 29.9678C36.5827 29.9088 37.2318 29.4073 37.9546 28.8762C38.6626 28.3452 39.5329 27.6372 39.8869 27.2832C40.6687 26.5309 41.1112 26.2506 41.2292 26.4424C41.2735 26.5161 41.2292 26.7374 41.1407 26.9144C41.0227 27.1209 40.949 27.8879 40.949 28.8172C40.9342 30.6611 41.0375 30.8528 42.2175 31.2511C42.8371 31.4576 43.0436 31.4576 43.6336 31.3101C45.0939 30.9118 46.1855 30.2776 47.454 29.0827C47.7933 28.773 48.1326 28.5075 48.2063 28.5075C48.3833 28.5075 48.5308 29.0237 48.5308 29.7318C48.5308 30.4841 48.8701 30.9561 49.6224 31.2364C50.2124 31.4576 50.3157 31.4576 50.9795 31.2364C51.7612 30.9856 52.6315 30.6021 52.8675 30.4103C52.9561 30.3366 53.4281 29.9825 53.9149 29.599C55.2129 28.6107 57.6468 26.0441 59.3136 23.9347C60.1249 22.9169 60.8477 22.0171 60.9215 21.9139C61.1575 21.6336 61.0985 21.5746 60.5822 21.5746C60.1249 21.5746 59.9627 21.7221 58.8859 23.0054C57.4255 24.7903 55.1244 27.0471 54.4459 27.3717C53.1773 27.9912 52.6758 27.2389 53.4723 25.9261C53.6788 25.6016 53.9149 25.1738 54.0034 24.9673C54.0771 24.7755 54.2099 24.569 54.2689 24.5248C54.3279 24.4805 54.5491 24.1708 54.7409 23.8315C54.9327 23.507 55.4342 22.6662 55.8325 22.0024C56.2455 21.3239 56.6437 20.6601 56.7175 20.5126C56.806 20.3651 58.0008 18.359 59.4021 16.0578C60.7887 13.742 61.895 11.8244 61.836 11.7801C61.7918 11.7359 60.9805 11.6916 60.0364 11.6916C58.6941 11.6916 58.2663 11.7359 58.1188 11.9129C57.7795 12.3259 57.4403 12.3112 56.9535 11.8539C56.2455 11.1901 54.9327 11.0869 53.7673 11.6179C53.5313 11.7359 53.2216 11.8539 53.1036 11.8981C52.012 12.3112 48.8848 15.0253 47.395 16.8544C47.1738 17.1347 46.8345 17.5329 46.6427 17.7394C46.451 17.9459 45.6839 18.9047 44.9464 19.8783C42.8518 22.6514 41.8045 23.8905 40.1524 25.5721C36.9663 28.8025 34.9454 29.5253 33.5883 27.9322C33.2491 27.5339 33.1901 27.3127 33.1901 26.6046C33.1901 25.8376 33.5441 24.3773 33.9128 23.566C34.0014 23.4037 34.2226 22.9022 34.4291 22.4597C34.8421 21.5746 35.4322 20.4683 35.7272 20.0553C35.8304 19.9078 36.0517 19.5685 36.214 19.2883C36.686 18.4917 37.3498 17.5624 37.9103 16.9429C39.5329 15.1286 41.5537 13.3142 41.9668 13.3142C42.07 13.3142 42.188 13.2257 42.2323 13.1225C42.2618 13.0192 42.5715 12.9454 43.0288 12.9454C43.6483 12.9454 43.8253 13.0044 44.0909 13.3142C44.6809 14.037 44.3711 14.6713 43.3238 14.8483C41.9668 15.0991 40.7572 17.3117 41.539 18.0935C42.1438 18.6982 43.3533 18.1672 44.1499 16.9576C44.9612 15.7038 45.1529 15.2171 45.2414 14.096C45.3447 12.9012 45.1087 12.3407 44.2236 11.6916C43.7958 11.3671 43.5893 11.3376 42.4093 11.3376C41.4652 11.3524 40.949 11.4261 40.6392 11.5884C40.4032 11.7211 40.1524 11.8391 40.0934 11.8391C39.9754 11.8391 38.4708 12.7242 38.3528 12.8717C38.3086 12.9159 37.9103 13.2405 37.4678 13.5945C37.0253 13.9337 36.0665 14.7598 35.3437 15.4236C33.4851 17.1347 33.1311 17.4444 33.0131 17.4444C32.9541 17.4444 32.8213 17.5477 32.7033 17.6509C32.3493 18.0049 30.5792 18.9195 30.2399 18.9195C29.8859 18.9195 29.6794 18.536 29.9302 18.2852C30.0187 18.1967 30.0924 18.0344 30.0924 17.9164C30.0924 17.7984 30.1809 17.5034 30.2989 17.2527C30.9922 15.6301 31.1692 13.5355 30.6824 12.5767C30.2399 11.7064 29.6499 11.3671 28.4846 11.3229C27.9536 11.2934 27.3193 11.3081 27.0685 11.3524ZM29.1336 12.9897C29.6056 13.329 29.8564 14.0075 29.8416 14.9073C29.8416 15.4236 29.7531 15.9251 29.6646 16.0136C29.5761 16.1021 29.5024 16.2939 29.5024 16.4561C29.5024 16.7216 29.0746 17.7837 28.6911 18.477C28.1306 19.48 26.0065 18.6245 25.1214 17.0461C24.9001 16.6479 24.8706 15.7333 25.0772 15.6006C25.1657 15.5563 25.2247 15.3793 25.2247 15.2318C25.2247 14.8778 26.862 13.211 27.4373 12.9749C27.7618 12.8569 28.9566 12.8569 29.1336 12.9897ZM56.6437 13.1667C57.0715 13.5945 57.0863 13.565 55.9505 15.4531C55.8472 15.6153 55.6997 15.9251 55.5964 16.1464C55.5079 16.3824 55.3899 16.5594 55.3162 16.5594C55.2572 16.5594 55.1687 16.6774 55.1097 16.8101C55.0654 16.9576 54.8884 17.2674 54.7261 17.5182C54.5639 17.7542 54.3574 18.1377 54.2689 18.359C54.1804 18.595 54.0476 18.772 53.9739 18.772C53.9001 18.772 53.8411 18.8605 53.8411 18.9637C53.8411 19.0818 53.6493 19.4505 53.3986 19.775C53.1626 20.1143 52.9561 20.4536 52.9561 20.5273C52.9561 20.6011 52.8676 20.7633 52.7643 20.8666C52.661 20.9698 52.2628 21.5894 51.8645 22.2237C51.481 22.8727 50.9352 23.6987 50.6549 24.0675C50.3747 24.4363 50.0059 24.9378 49.8289 25.1886C49.6519 25.4246 49.0176 26.1178 48.4276 26.6931C47.4688 27.6519 47.277 27.7699 46.7902 27.7699C46.4952 27.7699 46.1707 27.7109 46.0822 27.6519C45.7429 27.4307 45.5512 26.8554 45.6544 26.3391C45.7577 25.8081 45.7872 25.7048 46.215 24.8493C46.3477 24.569 46.4657 24.2888 46.4657 24.2003C46.4657 24.1117 46.7607 23.5512 47.1295 22.9464C47.4983 22.3564 47.7933 21.8254 47.7933 21.7959C47.7933 21.6779 48.7373 20.3208 49.8437 18.8457C53.5461 13.8747 55.6259 12.1489 56.6437 13.1667ZM24.3101 18.0197C24.6346 18.536 25.8884 19.5095 26.2425 19.5095C26.4785 19.5095 27.5848 20.1143 27.5848 20.2323C27.5848 20.3798 27.1128 21.3386 26.9948 21.4271C26.9505 21.4714 26.744 21.7664 26.5522 22.0909C26.3605 22.4154 26.1392 22.7399 26.0802 22.8284C26.0212 22.9022 25.6672 23.3742 25.3132 23.861C24.3986 25.1 22.3483 27.0324 21.4927 27.4454C20.6372 27.8732 20.1652 27.7994 19.5899 27.1357C18.8523 26.3244 19.0441 25.0263 20.2684 22.4597C20.9174 21.0878 22.9826 17.8427 23.3808 17.5624C23.6906 17.3264 23.9856 17.4739 24.3101 18.0197ZM65.2139 12.0604C65.0664 12.2227 64.9042 12.4587 64.8452 12.5767C64.8009 12.6947 64.4616 13.2552 64.1076 13.8305C63.7388 14.391 63.5028 14.922 63.5618 14.981C63.6208 15.04 64.4026 15.0696 65.2729 15.0548L66.8808 15.0105L67.515 14.0813C67.8691 13.565 68.1493 13.1225 68.1493 13.093C68.1493 13.0634 68.3116 12.7832 68.5181 12.4882C68.7246 12.1932 68.8426 11.8981 68.8131 11.8391C68.7689 11.7654 68.0018 11.7211 67.102 11.7359C65.6859 11.7506 65.4499 11.7949 65.2139 12.0604ZM14.9581 45.5298C14.9286 45.6183 14.8844 46.7394 14.8696 48.0227L14.8254 50.3681L14.3386 50.7958C13.9994 51.1056 13.7191 51.2236 13.3061 51.2236C12.4653 51.2236 12.1998 51.1056 11.831 50.5746C11.536 50.132 11.5065 49.9403 11.5065 47.7719V45.4561L10.9017 45.5003L10.2822 45.5446L10.3117 47.9047C10.3412 50.5156 10.3854 50.8401 10.7984 51.3564C11.3442 52.0791 11.8605 52.2562 13.2913 52.2562H14.6189L15.2532 51.6219C15.6219 51.2384 15.9169 50.7811 15.976 50.5008C16.035 50.2206 16.0792 48.9962 16.0792 47.7572V45.5003L15.5482 45.4413C15.2532 45.4118 14.9877 45.4413 14.9581 45.5298ZM27.9536 45.4266C27.7175 45.4708 27.1865 45.7216 26.7735 46.0018C25.7557 46.6656 25.3132 47.5507 25.3132 48.8635C25.3132 50.1911 25.7557 51.0613 26.803 51.7546C27.5405 52.2414 27.688 52.2857 28.7501 52.3004C30.3579 52.3152 31.1987 51.9021 31.9953 50.7073C32.3345 50.1763 32.3788 49.9845 32.3788 48.7897C32.3788 47.4917 32.364 47.4327 31.8772 46.8131C31.1397 45.8838 30.4317 45.5003 29.3254 45.4118C28.8091 45.3823 28.2043 45.3823 27.9536 45.4266ZM30.3284 46.9459C30.7857 47.3737 31.2577 48.3325 31.2725 48.834C31.2725 49.3798 30.7119 50.5303 30.2694 50.8548C30.0334 51.0318 29.5614 51.1646 29.0304 51.1941C28.3223 51.2531 28.0863 51.2089 27.688 50.9286C26.9505 50.4271 26.6555 49.9255 26.5817 49.0847C26.508 48.1112 26.8325 47.3589 27.57 46.8574C28.0273 46.5329 28.2338 46.4886 29.0156 46.5329C29.7384 46.5771 30.0187 46.6656 30.3284 46.9459ZM75.8935 45.5741C75.7755 45.6773 75.6427 45.9133 75.5837 46.1051C75.4952 46.3854 75.1854 47.1524 74.7871 48.0522C74.7134 48.2145 74.5216 48.6717 74.3446 49.0847C74.1676 49.483 73.9759 49.955 73.9021 50.1173C73.2088 51.6661 73.0171 52.1234 73.0171 52.1824C73.0171 52.2267 73.3121 52.2562 73.6808 52.2562C74.1824 52.2562 74.3446 52.1972 74.3446 52.0201C74.3446 51.9021 74.4921 51.5334 74.6839 51.2236L75.0084 50.6336H76.513C78.1651 50.6336 78.1651 50.6336 78.5633 51.7399C78.7108 52.1381 78.7994 52.1824 79.4189 52.2267C79.8172 52.2562 80.0974 52.2267 80.0679 52.1529C79.9499 51.8874 79.6106 51.1203 79.4336 50.7073C79.1534 50.0583 78.8288 49.306 78.5633 48.6865C78.1356 47.7277 77.9143 47.1819 77.6635 46.5771C77.5308 46.2526 77.3685 45.8838 77.3095 45.7658C77.1325 45.4561 76.1442 45.3086 75.8935 45.5741ZM76.9703 47.9342C77.162 48.3177 77.3685 48.7602 77.4423 48.893C77.7373 49.424 77.4718 49.6158 76.4982 49.5715C75.7754 49.542 75.5984 49.4683 75.5542 49.2765C75.4952 48.952 76.3655 47.0491 76.5277 47.1524C76.5867 47.1819 76.7933 47.5359 76.9703 47.9342ZM103.905 45.4561C103.876 45.4856 103.846 47.0344 103.846 48.893V52.2562L106.383 52.2267L108.935 52.1824L108.965 51.7104L109.009 51.2236H107.342C105.07 51.2236 105.026 51.2089 105.026 50.3533C105.026 49.9698 105.1 49.5863 105.203 49.483C105.321 49.365 105.911 49.306 106.9 49.306H108.419V48.3325L107.165 48.3915C106.354 48.4357 105.764 48.3915 105.469 48.2735C105.056 48.1112 105.026 48.0374 105.026 47.3737C105.026 46.5034 105.011 46.5181 107.313 46.4591L108.92 46.4296V45.5446L106.442 45.4708C105.085 45.4266 103.935 45.4266 103.905 45.4561ZM119.585 45.4413C119.187 45.4708 118.877 45.6331 118.523 46.0018C118.051 46.4739 118.007 46.5919 118.007 47.3737C118.007 48.1702 118.051 48.2882 118.449 48.6275C118.7 48.834 119.187 49.07 119.526 49.1585C119.865 49.247 120.264 49.3798 120.396 49.4535C120.544 49.542 120.78 49.601 120.927 49.601C121.208 49.601 121.842 50.1763 121.842 50.4271C121.842 50.5156 121.709 50.7221 121.547 50.8991C121.119 51.3564 119.836 51.3564 119.039 50.8991L118.464 50.5598L118.14 50.8843C117.712 51.3121 117.845 51.5776 118.685 51.9464C119.57 52.3447 121.458 52.3742 122.093 52.0054C122.683 51.6809 123.022 51.0318 123.022 50.2648C123.022 49.719 122.934 49.5273 122.521 49.0995C122.181 48.7602 121.813 48.5685 121.414 48.4947C121.075 48.4357 120.78 48.3325 120.721 48.2587C120.677 48.185 120.485 48.1259 120.308 48.1259C119.467 48.1259 118.818 47.0049 119.467 46.6509C119.895 46.4296 121.149 46.4739 121.488 46.7246C121.635 46.8426 121.857 46.9459 121.975 46.9459C122.226 46.9459 122.565 46.5181 122.58 46.2084C122.58 45.7068 121.031 45.3086 119.585 45.4413ZM3.39357 48.8635V52.2562H8.55633V51.2236H6.84524C4.82439 51.2236 4.57363 51.1351 4.57363 50.3533C4.57363 49.4683 4.86864 49.306 6.52073 49.306C8.01055 49.306 8.18756 49.2323 8.0253 48.6127C7.95155 48.362 7.81879 48.3325 6.57973 48.3915C5.32592 48.4505 5.16366 48.421 4.88339 48.1407C4.47037 47.7277 4.45562 46.8721 4.85389 46.6509C5.01615 46.5771 5.91595 46.5034 6.84524 46.5034H8.55633V45.4708H3.39357V48.8635ZM18.0706 48.8635V52.2709L18.7343 52.2267L19.3981 52.1824L19.3539 51.3269C19.2801 50.2796 19.4571 50.0435 20.2684 50.0435C20.8584 50.0435 20.8879 50.073 21.6107 51.1498L22.3483 52.2562H23.9414L23.6611 51.9316C23.5136 51.7546 23.3218 51.5334 23.2333 51.4449C23.1596 51.3564 22.9531 51.0318 22.7908 50.7368C22.6285 50.4418 22.4515 50.1911 22.3925 50.1911C22.1123 50.1911 22.3188 49.8075 22.7023 49.5715C23.4103 49.1732 23.6758 48.6275 23.6758 47.5949C23.6758 46.8279 23.6168 46.6066 23.3218 46.2969C22.6433 45.5741 22.245 45.4708 20.0767 45.4708H18.0706V48.8635ZM22.0385 46.8131C22.3335 47.0491 22.422 47.2409 22.422 47.6834C22.422 48.6127 21.7877 49.011 20.3422 49.011C19.5456 49.011 19.3244 48.716 19.3244 47.6834C19.3244 46.6361 19.4719 46.5181 20.7404 46.5034C21.4337 46.5034 21.7287 46.5771 22.0385 46.8131ZM34.3701 45.5446C34.3701 45.5888 34.3554 47.0934 34.3554 48.893V52.1824H35.4469L35.4617 51.2679C35.4764 50.7663 35.5354 50.3091 35.5944 50.2501C35.6534 50.1763 36.1845 50.1026 36.7745 50.073C38.8101 49.9698 39.4591 49.4093 39.4591 47.7572C39.4591 45.9133 38.7953 45.4708 36.096 45.4708C35.1372 45.4708 34.3701 45.5003 34.3701 45.5446ZM37.8955 46.8869C38.4856 47.3884 38.5151 48.0964 37.9841 48.6422C37.6595 48.952 37.4678 49.011 36.686 49.011C36.155 49.011 35.6829 48.9372 35.5797 48.834C35.4764 48.7307 35.4027 48.2735 35.4027 47.8162C35.4027 46.7246 35.6092 46.5034 36.6565 46.5034C37.2908 46.5034 37.5415 46.5771 37.8955 46.8869ZM41.1555 48.716V52.0644C41.1555 52.1381 42.2913 52.1824 43.6926 52.1824H46.2297V51.2974L44.6956 51.2679C43.8401 51.2384 42.9993 51.1941 42.837 51.1498C42.4535 51.0613 42.2618 50.2648 42.483 49.6895C42.6158 49.306 42.6453 49.306 44.1056 49.306C45.3447 49.306 45.6102 49.2618 45.6839 49.07C45.7282 48.9372 45.7134 48.716 45.6249 48.598C45.5069 48.4062 45.2267 48.362 44.1499 48.4062C42.896 48.4357 42.7928 48.421 42.5715 48.1112C42.306 47.7129 42.2618 47.1967 42.483 46.7836C42.6305 46.5329 42.8075 46.5034 44.4006 46.5034H46.1707V45.4708H41.1555V48.716ZM50.3009 45.6331C50.3009 45.7658 50.1092 46.2231 49.5634 47.4622C49.4896 47.6244 49.2979 48.0817 49.1209 48.4947C48.9439 48.893 48.7521 49.365 48.6783 49.5273C48.6046 49.6895 48.4128 50.1468 48.2358 50.5598C48.0736 50.9581 47.8376 51.4744 47.7195 51.6956C47.4098 52.2414 47.4245 52.2562 48.0736 52.2562C48.6783 52.2562 49.0029 51.9464 49.2094 51.1646C49.3274 50.6778 49.6076 50.6041 51.2597 50.6631L52.5873 50.7073L52.9561 51.4744C53.3101 52.2267 53.3396 52.2562 53.9591 52.2562C54.2984 52.2562 54.5786 52.2119 54.5786 52.1676C54.5786 52.1086 54.4311 51.7546 54.2689 51.3859C54.0919 51.0171 53.8559 50.4861 53.7378 50.2353C53.6346 49.9698 53.4428 49.5273 53.3101 49.2323C53.1921 48.952 53.0003 48.4947 52.8675 48.1997C52.7495 47.9194 52.5578 47.4769 52.4398 47.2114C52.3218 46.9459 52.1153 46.4444 51.9825 46.0904C51.717 45.4856 51.7022 45.4708 51.009 45.4708C50.6107 45.4708 50.3009 45.5446 50.3009 45.6331ZM51.2892 47.3589C51.3777 47.4179 51.5105 47.6687 51.5695 47.9047C51.6285 48.1554 51.776 48.4947 51.8793 48.6717C52.2628 49.247 52.012 49.5715 51.1565 49.6305C50.1092 49.6895 49.7256 49.2913 50.2272 48.6275C50.3452 48.48 50.4484 48.2735 50.4484 48.1702C50.4484 48.0817 50.5074 47.8309 50.5959 47.6244C50.7434 47.2409 50.9647 47.1524 51.2892 47.3589ZM56.0537 48.8635V52.2562H57.4108L57.3665 50.1468C57.3223 48.0522 57.3223 48.0227 57.809 48.0964C57.8828 48.1112 58.4286 48.775 59.0186 49.5568C59.6086 50.3533 60.2429 51.1646 60.4347 51.3711C60.6264 51.5776 60.8182 51.8579 60.8625 52.0054C60.9215 52.2119 61.069 52.2562 61.5262 52.2267L62.1163 52.1824V45.5446L61.5115 45.5003L60.9215 45.4561V47.3589C60.9215 49.9845 60.833 50.0288 59.4464 48.1702C58.8416 47.3737 58.3253 46.6951 58.2811 46.6509C58.2221 46.6066 58.0303 46.3264 57.8238 46.0313C57.4845 45.5151 57.396 45.4708 56.7617 45.4708H56.0537V48.8635ZM67.4118 48.8635V52.2562H68.5918V51.3269C68.5918 50.7958 68.6656 50.3238 68.7689 50.2206C68.8721 50.1173 69.3884 50.0435 70.0227 50.0435C71.2027 50.0435 71.719 49.8223 72.2943 49.0847C72.7663 48.4947 72.7515 47.0049 72.2795 46.4001C71.6895 45.6478 71.0847 45.4708 69.1524 45.4708H67.4118V48.8635ZM71.0847 46.9311C71.5862 47.4327 71.5715 48.2145 71.0405 48.657C70.716 48.952 70.4799 49.011 69.7129 49.011C68.6213 49.011 68.5918 48.9667 68.5918 47.6982C68.5918 46.6066 68.7393 46.4591 69.8456 46.5329C70.5389 46.5771 70.8192 46.6656 71.0847 46.9311ZM81.72 45.5446C81.72 45.5888 81.7053 47.0934 81.7053 48.893V52.1824H82.8263L82.7821 51.3269C82.7083 50.2648 82.8853 50.0435 83.7261 50.0435C84.3309 50.0435 84.8177 50.3091 84.8177 50.6483C84.8177 50.7368 84.9062 50.8843 85.0094 50.9876C85.0979 51.1056 85.2897 51.3416 85.4077 51.5186C85.5257 51.6956 85.7027 51.9464 85.7765 52.0644C85.8945 52.2119 86.1452 52.2562 86.632 52.2267L87.34 52.1824L86.5877 51.1498C86.1895 50.5893 85.8502 50.073 85.8502 50.014C85.8502 49.955 86.1452 49.6305 86.514 49.2913C87.163 48.6865 87.1778 48.6717 87.1778 47.7277C87.1778 46.6509 86.9713 46.2231 86.2042 45.7806C85.747 45.5151 85.4372 45.4708 83.6966 45.4708C82.605 45.4708 81.72 45.5003 81.72 45.5446ZM85.688 46.9459C86.1157 47.4622 86.0862 48.1407 85.6142 48.5832C85.2897 48.893 85.0979 48.9372 84.1539 48.9372C83.5638 48.9372 83.0181 48.893 82.9591 48.8192C82.9001 48.7602 82.8116 48.3177 82.7821 47.8604C82.6936 46.6361 82.9001 46.4591 84.3161 46.5329C85.2307 46.5771 85.4224 46.6361 85.688 46.9459ZM88.6086 45.5741C88.5643 45.6478 88.5496 45.8543 88.5643 46.0608C88.5791 46.4001 88.6381 46.4296 89.4641 46.5034C89.9509 46.5476 90.4377 46.6361 90.5409 46.6951C90.6737 46.7836 90.7179 47.5212 90.7179 49.542V52.2562H92.0455V49.4683C92.0455 46.2969 91.957 46.5034 93.3878 46.5034H94.2581V45.4708H91.4702C89.9214 45.4708 88.6381 45.5151 88.6086 45.5741ZM95.7332 48.8635V52.2562H96.9133V50.3533C96.9133 48.3767 96.9723 47.9784 97.2673 47.9784C97.3558 47.9932 98.1523 48.952 99.0374 50.1173C100.616 52.2267 100.645 52.2562 101.206 52.2562H101.781V45.4708H100.601V47.5359C100.601 49.0995 100.557 49.601 100.424 49.601C100.144 49.5863 99.8339 49.306 99.3914 48.6422C99.1701 48.3177 98.7571 47.7867 98.4621 47.4622C98.1818 47.1376 97.9458 46.8279 97.9458 46.7836C97.9458 46.7246 97.7541 46.4591 97.5033 46.1936C97.2673 45.9133 97.0608 45.6478 97.0608 45.5741C97.0608 45.5151 96.7658 45.4708 96.397 45.4708H95.7332V48.8635ZM110.779 48.8635V52.2562H111.959V51.3859C111.959 50.1468 112.018 50.0435 112.77 50.0435C113.331 50.0435 113.464 50.1026 113.832 50.5893C114.068 50.8991 114.408 51.3859 114.585 51.6956C114.88 52.1677 114.998 52.2267 115.588 52.2857C115.956 52.3152 116.296 52.2857 116.325 52.2267C116.369 52.1676 116.089 51.7104 115.72 51.1941C115.352 50.6926 115.057 50.1763 115.057 50.0288C115.057 49.896 115.219 49.66 115.425 49.5125C116.384 48.8045 116.664 47.4179 116.06 46.5034C115.455 45.6183 115.071 45.5003 112.815 45.4856L110.779 45.4708V48.8635ZM114.378 46.6509C114.599 46.7246 114.865 47.0196 114.998 47.2999C115.234 47.7867 115.234 47.8162 114.909 48.2735C114.732 48.5242 114.422 48.8045 114.216 48.8782C113.641 49.0995 112.446 49.0405 112.195 48.775C111.915 48.4947 111.871 46.9459 112.136 46.6804C112.343 46.4739 113.847 46.4444 114.378 46.6509Z" fill="#CF1A1A"/>
</svg>
