<svg width="2387" height="512" viewBox="0 0 2387 512" fill="none" xmlns="http://www.w3.org/2000/svg">
<path d="M255.55 0C114.42 0 0 114.42 0 255.55C0 396.68 114.42 511.11 255.55 511.11C396.68 511.11 511.15 396.69 511.15 255.55C511.15 114.41 396.7 0 255.55 0ZM142.38 319.29C142.259 324.863 139.961 330.167 135.976 334.066C131.992 337.965 126.639 340.148 121.065 340.148C115.491 340.148 110.138 337.965 106.154 334.066C102.169 330.167 99.8707 324.863 99.75 319.29V266C99.6843 263.198 100.172 260.41 101.185 257.796C102.198 255.182 103.716 252.794 105.653 250.768C107.59 248.742 109.908 247.117 112.473 245.988C115.039 244.858 117.802 244.246 120.604 244.185C123.407 244.125 126.194 244.618 128.805 245.635C131.417 246.653 133.803 248.176 135.825 250.117C137.848 252.058 139.468 254.378 140.593 256.946C141.717 259.513 142.325 262.277 142.38 265.08C142.38 265.38 142.38 265.69 142.38 266V319.29ZM209.73 360.63C209.73 366.282 207.485 371.702 203.488 375.698C199.492 379.695 194.072 381.94 188.42 381.94C182.768 381.94 177.348 379.695 173.352 375.698C169.355 371.702 167.11 366.282 167.11 360.63V170.09C167.11 164.438 169.355 159.018 173.352 155.022C177.348 151.025 182.768 148.78 188.42 148.78C194.072 148.78 199.492 151.025 203.488 155.022C207.485 159.018 209.73 164.438 209.73 170.09V360.63ZM277.09 319.29C276.969 324.863 274.671 330.167 270.686 334.066C266.702 337.965 261.349 340.148 255.775 340.148C250.201 340.148 244.848 337.965 240.864 334.066C236.879 330.167 234.581 324.863 234.46 319.29V106.56C234.581 100.987 236.879 95.6826 240.864 91.7838C244.848 87.885 250.201 85.7017 255.775 85.7017C261.349 85.7017 266.702 87.885 270.686 91.7838C274.671 95.6826 276.969 100.987 277.09 106.56V319.29ZM344.44 383.23C344.319 388.803 342.021 394.107 338.036 398.006C334.052 401.905 328.699 404.088 323.125 404.088C317.551 404.088 312.198 401.905 308.214 398.006C304.229 394.107 301.931 388.803 301.81 383.23V170.09C301.744 167.288 302.232 164.5 303.245 161.886C304.258 159.272 305.776 156.884 307.713 154.858C309.65 152.832 311.968 151.207 314.533 150.078C317.099 148.948 319.862 148.336 322.664 148.275C325.467 148.215 328.253 148.708 330.865 149.725C333.477 150.743 335.863 152.266 337.885 154.207C339.908 156.148 341.528 158.468 342.653 161.036C343.777 163.603 344.385 166.367 344.44 169.17C344.44 169.47 344.44 169.78 344.44 170.09V383.23ZM411.79 229.8C411.79 235.454 409.544 240.877 405.546 244.875C401.547 248.874 396.124 251.12 390.47 251.12C384.816 251.12 379.393 248.874 375.394 244.875C371.396 240.877 369.15 235.454 369.15 229.8V170.09C369.15 164.438 371.395 159.018 375.392 155.022C379.388 151.025 384.808 148.78 390.46 148.78C396.112 148.78 401.532 151.025 405.528 155.022C409.525 159.018 411.77 164.438 411.77 170.09L411.79 229.8Z" fill="#373c44"/>
<path d="M658.15 370.4L578.37 132.9H629.26L687.26 315.43L744.95 132.9H796.15L716.15 370.4H658.15Z" fill="#373c44"/>
<path d="M937.66 349.19C920.24 366.523 898.98 375.19 873.88 375.19C848.78 375.19 827.573 366.523 810.26 349.19C792.927 331.89 784.26 310.687 784.26 285.58C784.26 260.473 792.927 239.267 810.26 221.96C827.593 204.66 848.8 195.993 873.88 195.96C898.96 195.927 920.22 204.593 937.66 221.96C955.08 239.26 963.79 260.467 963.79 285.58C963.79 310.693 955.08 331.897 937.66 349.19ZM841.14 319.19C849.807 328.003 860.72 332.407 873.88 332.4C887.04 332.393 898.01 327.98 906.79 319.16C915.61 310.34 920.02 299.147 920.02 285.58C920.02 272.013 915.61 260.817 906.79 251.99C897.963 243.197 886.993 238.8 873.88 238.8C860.767 238.8 849.857 243.197 841.15 251.99C832.437 260.81 828.08 272.007 828.08 285.58C828.08 299.153 832.437 310.347 841.15 319.16L841.14 319.19Z" fill="#373c44"/>
<path d="M1012.98 180.4C1005.9 180.292 999.146 177.435 994.138 172.433C989.131 167.431 986.266 160.677 986.15 153.6C986.135 150.057 986.836 146.548 988.211 143.283C989.586 140.019 991.606 137.065 994.15 134.6C996.552 132.011 999.467 129.949 1002.71 128.546C1005.95 127.143 1009.45 126.429 1012.98 126.45C1016.57 126.407 1020.12 127.109 1023.42 128.512C1026.72 129.915 1029.69 131.988 1032.15 134.6C1034.69 137.065 1036.71 140.019 1038.09 143.283C1039.46 146.548 1040.16 150.057 1040.15 153.6C1040.17 157.119 1039.48 160.605 1038.1 163.844C1036.72 167.082 1034.7 170.005 1032.15 172.43C1029.67 174.997 1026.69 177.028 1023.39 178.399C1020.09 179.77 1016.55 180.451 1012.98 180.4ZM991.26 370.4V222.64C991.273 216.843 993.585 211.288 997.689 207.194C1001.79 203.099 1007.35 200.8 1013.15 200.8C1018.95 200.803 1024.52 203.11 1028.62 207.215C1032.73 211.32 1035.03 216.886 1035.03 222.69V370.4H991.26Z" fill="#373c44"/>
<path d="M1152.42 375.15C1126.86 375.15 1105.53 366.553 1088.42 349.36C1071.31 332.167 1062.77 310.907 1062.8 285.58C1062.8 260.247 1071.34 238.983 1088.42 221.79C1105.5 204.597 1126.83 196.003 1152.42 196.01C1168.26 195.829 1183.85 199.93 1197.55 207.88C1210.68 215.35 1221.39 226.427 1228.42 239.8L1190.76 261.8C1187.41 254.828 1182.02 249.032 1175.32 245.17C1168.27 241.061 1160.24 238.949 1152.08 239.06C1138.96 239.06 1128.1 243.417 1119.51 252.13C1110.92 260.843 1106.62 271.983 1106.62 285.55C1106.62 298.883 1110.92 309.91 1119.51 318.63C1128.1 327.35 1138.96 331.703 1152.08 331.69C1160.33 331.841 1168.47 329.791 1175.66 325.75C1182.39 322.005 1187.8 316.27 1191.15 309.33L1229.15 331.04C1221.71 344.369 1210.81 355.445 1197.6 363.1C1183.92 371.162 1168.3 375.329 1152.42 375.15V375.15Z" fill="#373c44"/>
<path d="M1283.05 303.56C1288.93 324.82 1304.88 335.45 1330.89 335.45C1347.62 335.45 1360.29 329.783 1368.89 318.45L1404.15 338.8C1387.41 363.013 1362.74 375.117 1330.15 375.11C1302.1 375.11 1279.6 366.627 1262.63 349.66C1245.66 332.693 1237.17 311.32 1237.15 285.54C1237.15 259.98 1245.52 238.647 1262.26 221.54C1279 204.433 1300.49 195.897 1326.72 195.93C1351.6 195.93 1372.13 204.523 1388.3 221.71C1404.47 238.897 1412.56 260.16 1412.56 285.5C1412.52 291.538 1411.96 297.561 1410.87 303.5L1283.05 303.56ZM1282.37 269.63H1368.89C1366.4 258.09 1361.25 249.48 1353.45 243.8C1345.72 238.173 1336.37 235.198 1326.81 235.32C1315.05 235.32 1305.32 238.32 1297.63 244.32C1289.94 250.32 1284.85 258.757 1282.37 269.63Z" fill="#373c44"/>
<path d="M1627.41 196.01C1646.86 196.01 1662.41 202.343 1674.06 215.01C1685.71 227.677 1691.54 244.64 1691.54 265.9V370.4H1647.77V268.95C1647.77 258.77 1645.28 250.853 1640.31 245.2C1635.34 239.547 1628.34 236.72 1619.31 236.72C1609.36 236.72 1601.62 240 1596.07 246.56C1590.52 253.12 1587.75 262.62 1587.76 275.06V370.4H1543.95V268.95C1543.95 258.77 1541.46 250.853 1536.49 245.2C1531.52 239.547 1524.52 236.72 1515.49 236.72C1505.76 236.72 1498.01 240 1492.25 246.56C1486.49 253.12 1483.61 262.62 1483.6 275.06V370.4H1439.83V200.8H1483.6V218.8C1493.78 203.653 1509.5 196.077 1530.76 196.07C1551.57 196.07 1566.95 204.21 1576.9 220.49C1588.19 204.17 1605.03 196.01 1627.41 196.01Z" fill="#373c44"/>
<path d="M1854.39 200.8H1898.15V370.4H1854.38V350.4C1841.26 366.907 1822.83 375.163 1799.08 375.17C1776.46 375.17 1757.06 366.503 1740.89 349.17C1724.72 331.837 1716.63 310.633 1716.63 285.56C1716.63 260.453 1724.72 239.247 1740.89 221.94C1757.06 204.633 1776.46 195.967 1799.08 195.94C1822.83 195.94 1841.27 204.193 1854.38 220.7L1854.39 200.8ZM1773.64 320.06C1782.46 329 1793.66 333.47 1807.23 333.47C1820.8 333.47 1832.06 329 1840.99 320.06C1849.92 311.133 1854.39 299.657 1854.39 285.63C1854.39 271.603 1849.92 260.123 1840.99 251.19C1832.05 242.263 1820.8 237.8 1807.23 237.8C1793.66 237.8 1782.47 242.267 1773.64 251.2C1764.82 260.14 1760.41 271.62 1760.41 285.64C1760.41 299.66 1764.82 311.12 1773.64 320.02V320.06Z" fill="#373c44"/>
<path d="M2090.86 370.4H2039.97L1978.22 293.4V370.4H1934.46V132.9H1978.22V275.4L2036.58 200.8H2088.83L2020.63 284.61L2090.86 370.4Z" fill="#373c44"/>
<path d="M2133.95 303.56C2139.83 324.82 2155.78 335.45 2181.79 335.45C2198.53 335.45 2211.2 329.783 2219.79 318.45L2255.08 338.8C2238.33 363.013 2213.67 375.117 2181.08 375.11C2153.03 375.11 2130.53 366.627 2113.57 349.66C2096.61 332.693 2088.14 311.333 2088.15 285.58C2088.15 260.02 2096.52 238.687 2113.26 221.58C2130 204.473 2151.49 195.937 2177.72 195.97C2202.6 195.97 2223.13 204.563 2239.3 221.75C2255.47 238.937 2263.56 260.2 2263.56 285.54C2263.52 291.578 2262.96 297.602 2261.86 303.54L2133.95 303.56ZM2133.27 269.63H2219.79C2217.3 258.09 2212.16 249.493 2204.35 243.84C2196.62 238.213 2187.28 235.238 2177.72 235.36C2165.96 235.36 2156.23 238.36 2148.54 244.36C2140.85 250.36 2135.76 258.783 2133.27 269.63V269.63Z" fill="#373c44"/>
<path d="M2334.47 229.93C2338.54 219.077 2345.26 210.937 2354.65 205.51C2364.2 200.038 2375.04 197.224 2386.04 197.36V246.22C2372.71 244.64 2360.77 247.353 2350.24 254.36C2339.71 261.367 2334.45 273.033 2334.47 289.36V370.36H2290.7V200.8H2334.47V229.93Z" fill="#373c44"/>
</svg>
