<svg xmlns="http://www.w3.org/2000/svg" viewBox="0 0 2386.02 511.12"><defs><style>.cls-1{fill:#e8eaed;}</style></defs><g id="Layer_2" data-name="Layer 2"><g id="Layer_1-2" data-name="Layer 1"><path class="cls-1" d="M255.53,0C114.4,0,0,114.42,0,255.56S114.4,511.12,255.53,511.12,511.1,396.7,511.1,255.56,396.68,0,255.53,0ZM142.37,319.29a21.32,21.32,0,0,1-42.64,0V266a21.32,21.32,0,0,1,42.64,0h0Zm67.34,41.35a21.31,21.31,0,1,1-42.62,0V170.09a21.31,21.31,0,1,1,42.62,0V360.64Zm67.36-41.35a21.32,21.32,0,0,1-42.63,0V106.56a21.32,21.32,0,0,1,42.63,0Zm67.36,63.94a21.32,21.32,0,0,1-42.64,0V170.09a21.32,21.32,0,1,1,42.64,0Zm67.34-153.46a21.31,21.31,0,1,1-42.62,0v-59.7a21.31,21.31,0,0,1,42.62,0v59.7Z"/><path class="cls-1" d="M658.08,375.15,578.35,137.66h50.89l58,182.53,57.67-182.53h51.23l-80,237.49Z"/><path class="cls-1" d="M937.64,354q-26.13,26-63.78,25.95T810.24,354q-26-26-26-63.61t26-63.62q26-26,63.62-26t63.78,26q26.13,26,26.13,63.62T937.64,354Zm-96.52-30q13.05,13.23,32.74,13.24T906.77,324Q920,310.69,920,290.34t-13.23-33.6q-13.23-13.19-32.91-13.18t-32.74,13.23q-13.07,13.24-13.07,33.6t13.07,33.53Z"/><path class="cls-1" d="M1013,185.16a27.25,27.25,0,0,1-26.8-26.8,26.3,26.3,0,0,1,8-19,25.51,25.51,0,0,1,18.83-8.14,25.88,25.88,0,0,1,19.17,8.14,26.34,26.34,0,0,1,8,19,25.73,25.73,0,0,1-8,18.82A26.13,26.13,0,0,1,1013,185.16Zm-21.72,190V227.4a21.9,21.9,0,0,1,21.85-21.84h0A21.89,21.89,0,0,1,1035,227.4V375.15Z"/><path class="cls-1" d="M1152.4,379.9q-38.34,0-64-25.78t-25.62-63.78q0-38,25.62-63.79t64-25.79a87.93,87.93,0,0,1,45.13,11.88,79,79,0,0,1,30.87,31.92l-37.66,22a38.41,38.41,0,0,0-15.44-16.63,44.93,44.93,0,0,0-23.24-6.11q-19.68,0-32.57,13.06t-12.89,33.43q0,20,12.89,33.07t32.57,13.07a46.41,46.41,0,0,0,23.58-5.94,37.35,37.35,0,0,0,15.44-16.46l38,21.72a85,85,0,0,1-31.55,32.06A87,87,0,0,1,1152.4,379.9Z"/><path class="cls-1" d="M1283,308.32q8.82,31.89,47.84,31.89,25.1,0,38-17l35.31,20.35q-25.11,36.32-74,36.3-42.08,0-67.52-25.44t-25.45-64.12q0-38.34,25.11-64t64.47-25.62q37.31,0,61.58,25.79t24.25,63.79a102.53,102.53,0,0,1-1.69,18Zm-.68-33.93h86.52q-3.75-17.31-15.44-25.79a44.28,44.28,0,0,0-26.63-8.48q-17.65,0-29.18,9t-15.24,25.27Z"/><path class="cls-1" d="M1627.39,200.76q29.19,0,46.65,19t17.48,50.9V375.15h-43.77V273.71q0-15.27-7.46-23.75t-21-8.48q-14.93,0-23.24,9.84t-8.31,28.5v95.33H1544V273.71q0-15.27-7.46-23.75t-21-8.48q-14.6,0-23.24,9.84t-8.65,28.5v95.33h-43.77V205.56h43.77v18q15.27-22.74,47.16-22.74,31.21,0,46.14,24.43Q1593.81,200.77,1627.39,200.76Z"/><path class="cls-1" d="M1854.37,205.56h43.77V375.15h-43.77v-20q-19.68,24.77-55.3,24.76-33.93,0-58.19-26t-24.26-63.61q0-37.67,24.26-63.62t58.19-26q35.63,0,55.3,24.77Zm-80.75,119.26q13.23,13.41,33.59,13.4t33.76-13.4q13.4-13.4,13.4-34.43T1841,255.9q-13.41-13.4-33.76-13.4t-33.59,13.4q-13.23,13.41-13.23,34.44t13.2,34.43Z"/><path class="cls-1" d="M2090.85,375.15H2040l-61.75-77v77h-43.76V137.66h43.76v142.5l58.31-74.6h52.25l-68.19,83.81Z"/><path class="cls-1" d="M2133.93,308.32q8.82,31.89,47.84,31.89,25.11,0,38-17l35.29,20.35q-25.11,36.32-74,36.3-42.06,0-67.51-25.44T2088.1,290.3q0-38.34,25.11-64t64.46-25.62q37.32,0,61.58,25.79t24.26,63.79a103.49,103.49,0,0,1-1.69,18Zm-.67-33.93h86.51q-3.76-17.31-15.43-25.83a44.31,44.31,0,0,0-26.64-8.48q-17.64,0-29.18,9t-15.26,25.31Z"/><path class="cls-1" d="M2334.45,234.69q6.11-16.27,20.18-24.42a61.47,61.47,0,0,1,31.39-8.15V251q-20-2.37-35.8,8.14t-15.77,34.95v81.08h-43.77V205.56h43.77Z"/></g></g></svg>