<svg width="167" height="329" viewBox="0 0 167 329" fill="none" xmlns="http://www.w3.org/2000/svg">
<path d="M148.782 59.8711C148.559 62.0913 147.52 64.1495 145.865 65.6464C144.21 67.1434 142.059 67.9722 139.827 67.9722C137.596 67.9722 135.444 67.1434 133.789 65.6464C132.135 64.1495 131.095 62.0913 130.872 59.8711V34.7911C130.739 33.5363 130.872 32.2676 131.261 31.0673C131.65 29.8671 132.288 28.7621 133.132 27.824C133.976 26.886 135.007 26.136 136.16 25.6225C137.313 25.1091 138.56 24.8438 139.822 24.8438C141.084 24.8438 142.332 25.1091 143.484 25.6225C144.637 26.136 145.669 26.886 146.513 27.824C147.357 28.7621 147.994 29.8671 148.383 31.0673C148.773 32.2676 148.905 33.5363 148.772 34.7911L148.782 59.8711Z" fill="#F7F7FC"/>
<path d="M35.6222 74.7011V97.4711C35.3993 99.6913 34.3597 101.75 32.705 103.246C31.0503 104.743 28.8985 105.572 26.6672 105.572C24.4358 105.572 22.2841 104.743 20.6293 103.246C18.9746 101.75 17.935 99.6913 17.7122 97.4711V75.0711C17.8887 72.8511 18.8821 70.7754 20.5002 69.2453C22.1184 67.7152 24.2463 66.8394 26.4727 66.7871C28.6991 66.7349 30.8658 67.51 32.5539 68.9625C34.242 70.415 35.3317 72.4419 35.6122 74.6511C35.6122 74.6511 35.6122 74.7011 35.6222 74.7011Z" fill="#F7F7FC"/>
<path d="M63.9022 34.7911V114.791C63.6682 117.002 62.6244 119.047 60.9719 120.534C59.3194 122.021 57.1751 122.844 54.9522 122.844C52.7292 122.844 50.5849 122.021 48.9324 120.534C47.2799 119.047 46.2361 117.002 46.0021 114.791V34.7911C45.8693 33.5363 46.0018 32.2676 46.3911 31.0673C46.7804 29.8671 47.4177 28.7621 48.2616 27.824C49.1056 26.886 50.1374 26.136 51.29 25.6225C52.4426 25.1091 53.6903 24.8438 54.9522 24.8438C56.214 24.8438 57.4617 25.1091 58.6143 25.6225C59.7669 26.136 60.7987 26.886 61.6427 27.824C62.4867 28.7621 63.1239 29.8671 63.5132 31.0673C63.9025 32.2676 64.035 33.5363 63.9022 34.7911Z" fill="#F7F7FC"/>
<path d="M92.162 8.10112V97.4611C91.9391 99.6813 90.8995 101.74 89.2448 103.236C87.5901 104.733 85.4383 105.562 83.207 105.562C80.9756 105.562 78.8239 104.733 77.1692 103.236C75.5145 101.74 74.4748 99.6813 74.252 97.4611V8.10112C74.4748 5.88095 75.5145 3.82273 77.1692 2.32581C78.8239 0.828882 80.9756 0 83.207 0C85.4383 0 87.5901 0.828882 89.2448 2.32581C90.8995 3.82273 91.9391 5.88095 92.162 8.10112Z" fill="#F7F7FC"/>
<path d="M120.492 34.4013V124.311C120.269 126.532 119.23 128.59 117.575 130.087C115.92 131.584 113.768 132.412 111.537 132.412C109.306 132.412 107.154 131.584 105.499 130.087C103.845 128.59 102.805 126.532 102.582 124.311V34.7913C102.759 32.5713 103.752 30.4956 105.37 28.9655C106.988 27.4354 109.116 26.5596 111.343 26.5074C113.569 26.4551 115.736 27.2302 117.424 28.6827C119.112 30.1352 120.202 32.1621 120.482 34.3713L120.492 34.4013Z" fill="#F7F7FC"/>
<path d="M7.52211 263.631L0.162109 241.801H4.86211L10.1621 258.571L15.4621 241.801H20.1621L12.8121 263.631H7.52211Z" fill="#F7F7FC"/>
<path d="M33.1622 261.701C32.0039 262.833 30.5375 263.599 28.9464 263.903C27.3552 264.206 25.7099 264.034 24.216 263.408C22.7222 262.781 21.4461 261.729 20.5472 260.381C19.6484 259.034 19.1666 257.451 19.1622 255.831C19.1546 254.468 19.4852 253.123 20.1243 251.919C20.7633 250.714 21.691 249.687 22.8244 248.928C23.9577 248.17 25.2613 247.705 26.6186 247.573C27.9759 247.442 29.3446 247.65 30.6022 248.177C31.8597 248.704 32.967 249.535 33.8249 250.595C34.6828 251.655 35.2645 252.911 35.5182 254.251C35.7718 255.591 35.6893 256.972 35.2782 258.273C34.8671 259.573 34.1401 260.751 33.1622 261.701ZM24.2922 258.941C24.6805 259.341 25.1479 259.655 25.6645 259.863C26.1811 260.071 26.7355 260.169 27.2922 260.151C27.8481 260.163 28.4006 260.062 28.9163 259.854C29.4319 259.646 29.9 259.335 30.2922 258.941C30.9083 258.345 31.3321 257.578 31.5092 256.739C31.6863 255.901 31.6086 255.028 31.2862 254.234C30.9637 253.439 30.4112 252.76 29.6995 252.282C28.9878 251.804 28.1495 251.549 27.2922 251.551C26.7363 251.539 26.1836 251.64 25.6679 251.848C25.1521 252.056 24.6841 252.367 24.2922 252.761C23.5207 253.605 23.0928 254.707 23.0928 255.851C23.0928 256.995 23.5207 258.097 24.2922 258.941Z" fill="#F7F7FC"/>
<path d="M40.1621 246.171C39.5042 246.171 38.8728 245.912 38.4049 245.45C37.9369 244.987 37.67 244.359 37.6621 243.701C37.6622 243.377 37.7268 243.057 37.8521 242.758C37.9774 242.459 38.161 242.188 38.3921 241.961C38.6127 241.723 38.8804 241.533 39.1782 241.404C39.4761 241.275 39.7975 241.209 40.1221 241.211C40.4532 241.206 40.7817 241.27 41.0866 241.399C41.3914 241.528 41.6658 241.72 41.8921 241.961C42.1232 242.188 42.3068 242.459 42.4321 242.758C42.5574 243.057 42.622 243.377 42.6221 243.701C42.6241 244.024 42.5604 244.344 42.4349 244.641C42.3094 244.939 42.1248 245.207 41.8921 245.431C41.6678 245.664 41.3991 245.849 41.102 245.976C40.8048 246.103 40.4853 246.17 40.1621 246.171ZM38.1621 263.631V250.051C38.1621 249.521 38.3728 249.012 38.7479 248.637C39.123 248.262 39.6317 248.051 40.1621 248.051C40.6925 248.051 41.2013 248.262 41.5763 248.637C41.9514 249.012 42.1621 249.521 42.1621 250.051V263.631H38.1621Z" fill="#F7F7FC"/>
<path d="M52.9422 264.061C51.8614 264.061 50.7912 263.848 49.7927 263.435C48.7942 263.021 47.8869 262.415 47.1227 261.651C46.3584 260.887 45.7522 259.979 45.3386 258.981C44.925 257.982 44.7122 256.912 44.7122 255.831C44.7122 254.751 44.925 253.68 45.3386 252.682C45.7522 251.683 46.3584 250.776 47.1227 250.012C47.8869 249.248 48.7942 248.641 49.7927 248.228C50.7912 247.814 51.8614 247.601 52.9422 247.601C54.3955 247.582 55.8268 247.959 57.0822 248.691C58.2867 249.38 59.2715 250.396 59.9222 251.621L56.4622 253.621C56.1555 252.979 55.6601 252.445 55.0422 252.091C54.3967 251.713 53.66 251.52 52.9122 251.531C52.3561 251.512 51.8022 251.608 51.2856 251.815C50.769 252.022 50.3013 252.334 49.9122 252.731C49.1518 253.567 48.7305 254.656 48.7305 255.786C48.7305 256.916 49.1518 258.006 49.9122 258.841C50.3013 259.239 50.769 259.551 51.2856 259.758C51.8022 259.964 52.3561 260.061 52.9122 260.041C53.6679 260.051 54.4128 259.861 55.0722 259.491C55.694 259.149 56.1938 258.621 56.5022 257.981L59.9922 259.981C59.2904 261.217 58.2719 262.244 57.0416 262.956C55.8113 263.668 54.4135 264.039 52.9922 264.031L52.9422 264.061Z" fill="#F7F7FC"/>
<path d="M64.942 257.481C65.482 259.481 66.942 260.411 69.342 260.411C70.0065 260.452 70.6711 260.332 71.2789 260.06C71.8867 259.789 72.4196 259.374 72.832 258.851L76.072 260.721C75.3205 261.815 74.3002 262.696 73.1092 263.281C71.9183 263.866 70.5968 264.135 69.272 264.061C68.1308 264.111 66.9913 263.928 65.9235 263.522C64.8556 263.116 63.8819 262.497 63.062 261.701C61.5681 260.106 60.7368 258.002 60.7368 255.816C60.7368 253.63 61.5681 251.527 63.062 249.931C63.8304 249.148 64.7538 248.533 65.7731 248.127C66.7925 247.72 67.8854 247.531 68.982 247.571C70.0399 247.54 71.0922 247.735 72.0685 248.144C73.0447 248.552 73.9222 249.165 74.642 249.941C76.1304 251.523 76.9321 253.63 76.872 255.801C76.8722 256.358 76.822 256.913 76.722 257.461L64.942 257.481ZM64.882 254.371H72.832C72.6761 253.427 72.1688 252.577 71.412 251.991C70.7014 251.473 69.8416 251.199 68.962 251.211C68.0004 251.176 67.0553 251.468 66.282 252.041C65.5537 252.627 65.0575 253.453 64.882 254.371Z" fill="#F7F7FC"/>
<path d="M96.5821 247.601C97.3812 247.565 98.1786 247.703 98.9192 248.005C99.6599 248.308 100.326 248.767 100.872 249.351C101.99 250.643 102.567 252.315 102.482 254.021V263.631H98.4821V254.301C98.5332 253.516 98.2909 252.739 97.8021 252.121C97.5579 251.857 97.2582 251.65 96.9245 251.515C96.5908 251.38 96.2314 251.321 95.8721 251.341C95.4695 251.319 95.0672 251.389 94.6961 251.547C94.325 251.705 93.9952 251.946 93.7321 252.251C93.1764 253.003 92.9069 253.929 92.9721 254.861V263.631H88.9721V254.301C89.0232 253.516 88.7809 252.739 88.2921 252.121C88.0479 251.857 87.7481 251.65 87.4145 251.515C87.0808 251.38 86.7214 251.321 86.3621 251.341C85.96 251.323 85.5588 251.395 85.1883 251.552C84.8178 251.71 84.4876 251.949 84.2221 252.251C83.6467 252.995 83.3654 253.924 83.4321 254.861V263.631H79.4321V248.041H83.4321V249.701C83.9111 249.009 84.5623 248.452 85.3215 248.088C86.0808 247.723 86.9219 247.562 87.7621 247.621C88.6063 247.57 89.4485 247.752 90.1963 248.147C90.9441 248.542 91.5689 249.135 92.0021 249.861C92.512 249.128 93.1997 248.536 94.0007 248.141C94.8017 247.746 95.6899 247.56 96.5821 247.601Z" fill="#F7F7FC"/>
<path d="M117.442 248.041H121.442V263.631H117.442V261.791C116.834 262.543 116.057 263.14 115.174 263.535C114.291 263.929 113.328 264.11 112.362 264.061C111.351 264.073 110.348 263.866 109.425 263.453C108.501 263.04 107.678 262.433 107.012 261.671C105.577 260.063 104.784 257.982 104.784 255.826C104.784 253.67 105.577 251.59 107.012 249.981C107.683 249.226 108.507 248.622 109.429 248.209C110.352 247.797 111.352 247.587 112.362 247.591C113.329 247.542 114.293 247.724 115.176 248.12C116.059 248.516 116.836 249.117 117.442 249.871V248.041ZM110.022 259.041C110.425 259.448 110.907 259.767 111.439 259.978C111.97 260.19 112.54 260.29 113.112 260.271C113.685 260.288 114.256 260.188 114.789 259.976C115.322 259.765 115.806 259.447 116.212 259.041C117.003 258.177 117.441 257.048 117.441 255.876C117.441 254.705 117.003 253.576 116.212 252.711C115.806 252.306 115.322 251.988 114.789 251.776C114.256 251.565 113.685 251.464 113.112 251.481C112.54 251.463 111.97 251.562 111.439 251.774C110.907 251.986 110.425 252.305 110.022 252.711C109.238 253.579 108.804 254.707 108.804 255.876C108.804 257.046 109.238 258.174 110.022 259.041Z" fill="#F7F7FC"/>
<path d="M139.162 263.631H134.482L128.812 256.551V263.631H124.812V241.801H128.812V254.901L134.172 248.041H138.972L132.712 255.741L139.162 263.631Z" fill="#F7F7FC"/>
<path d="M143.162 257.481C143.702 259.481 145.162 260.411 147.552 260.411C148.218 260.453 148.885 260.333 149.494 260.062C150.104 259.79 150.638 259.375 151.052 258.851L154.262 260.701C153.511 261.795 152.49 262.676 151.299 263.261C150.108 263.846 148.787 264.115 147.462 264.041C146.324 264.095 145.186 263.915 144.12 263.513C143.054 263.11 142.081 262.494 141.262 261.701C139.768 260.106 138.937 258.002 138.937 255.816C138.937 253.631 139.768 251.527 141.262 249.931C142.031 249.156 142.952 248.548 143.968 248.147C144.983 247.746 146.071 247.56 147.162 247.601C148.22 247.571 149.272 247.767 150.248 248.176C151.224 248.584 152.102 249.196 152.822 249.971C154.308 251.555 155.109 253.661 155.052 255.831C155.044 256.385 154.991 256.937 154.892 257.481H143.162ZM143.102 254.371H151.102C150.942 253.431 150.435 252.586 149.682 252.001C148.972 251.483 148.112 251.209 147.232 251.221C146.272 251.183 145.327 251.472 144.552 252.041C143.791 252.612 143.265 253.44 143.072 254.371H143.102Z" fill="#F7F7FC"/>
<path d="M161.552 250.701C161.887 249.755 162.546 248.958 163.412 248.451C164.289 247.951 165.283 247.692 166.292 247.701V252.191C165.141 252.035 163.972 252.301 163.002 252.941C162.505 253.309 162.111 253.798 161.857 254.362C161.603 254.926 161.498 255.545 161.552 256.161V263.601H157.552V248.041H161.552V250.701Z" fill="#F7F7FC"/>
<path d="M19.7021 286.201V286.991H17.1621V294.601H16.3222V286.991H13.7021V286.201H19.7021Z" fill="#F7F7FC"/>
<path d="M22.4723 288.451C22.8805 288.438 23.2864 288.516 23.6602 288.681C24.0341 288.845 24.3662 289.091 24.6323 289.401C25.1715 290.014 25.4638 290.805 25.4523 291.621C25.4523 291.711 25.4523 291.831 25.4523 291.991H20.1623C20.2212 292.556 20.4973 293.076 20.9323 293.441C21.3923 293.804 21.9665 293.992 22.5523 293.971C22.9634 293.983 23.3704 293.886 23.7323 293.691C24.0467 293.519 24.3066 293.263 24.4823 292.951L25.1723 293.361C24.9091 293.786 24.5359 294.131 24.0923 294.361C23.6127 294.616 23.0754 294.744 22.5323 294.731C21.908 294.731 21.2974 294.548 20.7762 294.204C20.255 293.86 19.8461 293.371 19.6002 292.798C19.3543 292.224 19.2821 291.59 19.3927 290.976C19.5033 290.362 19.7917 289.793 20.2223 289.341C20.515 289.045 20.8662 288.812 21.2536 288.659C21.641 288.506 22.056 288.435 22.4723 288.451ZM22.4723 289.221C21.9004 289.205 21.3436 289.405 20.9123 289.781C20.4896 290.153 20.2219 290.671 20.1623 291.231H24.6323C24.5892 290.662 24.3276 290.132 23.9023 289.751C23.5074 289.404 22.998 289.215 22.4723 289.221Z" fill="#F7F7FC"/>
<path d="M31.5123 294.601H30.5623L28.6923 292.131L26.8223 294.601H25.8223L28.1723 291.491L25.9823 288.601H26.9223L28.6423 290.871L30.3623 288.601H31.3023L29.1623 291.491L31.5123 294.601Z" fill="#F7F7FC"/>
<path d="M35.7722 289.371H34.0422V293.001C34.0157 293.25 34.0835 293.5 34.2322 293.701C34.3076 293.777 34.3983 293.836 34.4984 293.874C34.5984 293.912 34.7054 293.928 34.8122 293.921C35.0722 293.921 35.3822 293.921 35.8122 293.921V294.621C35.1799 294.776 34.5139 294.713 33.9222 294.441C33.6984 294.284 33.5215 294.069 33.4106 293.819C33.2996 293.569 33.2587 293.293 33.2922 293.021V289.391H31.9922V288.621H33.2522V287.181L34.0422 286.941V288.621H35.7722V289.371Z" fill="#F7F7FC"/>
<path d="M43.2722 289.371H41.5422V293.001C41.5157 293.25 41.5835 293.5 41.7322 293.701C41.8076 293.777 41.8984 293.836 41.9984 293.874C42.0985 293.912 42.2055 293.928 42.3122 293.921C42.5722 293.921 42.8822 293.921 43.3122 293.921V294.621C42.6799 294.776 42.014 294.713 41.4222 294.441C41.1984 294.284 41.0216 294.069 40.9106 293.819C40.7996 293.569 40.7587 293.293 40.7922 293.021V289.391H39.5322V288.621H40.7922V287.181L41.5822 286.941V288.621H43.3122L43.2722 289.371Z" fill="#F7F7FC"/>
<path d="M49.2621 293.841C48.6607 294.417 47.86 294.739 47.0271 294.739C46.1941 294.739 45.3934 294.417 44.7921 293.841C44.2033 293.244 43.8733 292.439 43.8733 291.601C43.8733 290.763 44.2033 289.958 44.7921 289.361C45.3898 288.778 46.1919 288.451 47.0271 288.451C47.8622 288.451 48.6643 288.778 49.2621 289.361C49.8508 289.958 50.1808 290.763 50.1808 291.601C50.1808 292.439 49.8508 293.244 49.2621 293.841ZM45.3421 293.281C45.7911 293.724 46.3964 293.972 47.0271 293.972C47.6577 293.972 48.263 293.724 48.7121 293.281C49.1478 292.828 49.3912 292.224 49.3912 291.596C49.3912 290.968 49.1478 290.364 48.7121 289.911C48.263 289.468 47.6577 289.22 47.0271 289.22C46.3964 289.22 45.7911 289.468 45.3421 289.911C44.9064 290.364 44.663 290.968 44.663 291.596C44.663 292.224 44.9064 292.828 45.3421 293.281Z" fill="#F7F7FC"/>
<path d="M57.2621 294.701C56.5562 294.727 55.859 294.539 55.2621 294.161C54.7476 293.806 54.3618 293.294 54.1621 292.701L54.8821 292.281C55.0119 292.773 55.3089 293.204 55.7221 293.501C56.1862 293.809 56.7355 293.963 57.2921 293.941C57.8126 293.973 58.3281 293.825 58.7521 293.521C58.9207 293.393 59.0559 293.226 59.1464 293.035C59.2369 292.843 59.28 292.633 59.2721 292.421C59.2858 292.227 59.2488 292.033 59.1646 291.858C59.0804 291.682 58.9521 291.532 58.7921 291.421C58.2863 291.104 57.7373 290.861 57.1621 290.701C56.5656 290.524 55.9865 290.293 55.4321 290.011C55.126 289.854 54.87 289.614 54.6932 289.319C54.5164 289.024 54.426 288.685 54.4321 288.341C54.4184 288.021 54.4789 287.701 54.609 287.408C54.7391 287.115 54.9353 286.856 55.1821 286.651C55.6975 286.231 56.3473 286.011 57.0121 286.031C57.6215 286.017 58.2199 286.196 58.7221 286.541C59.1879 286.873 59.5543 287.326 59.7821 287.851L59.0821 288.241C58.9336 287.817 58.6516 287.452 58.2785 287.202C57.9053 286.951 57.461 286.828 57.0121 286.851C56.5613 286.832 56.1172 286.966 55.7521 287.231C55.5945 287.36 55.469 287.524 55.3857 287.709C55.3024 287.895 55.2635 288.098 55.2721 288.301C55.2613 288.481 55.2948 288.661 55.3698 288.825C55.4448 288.989 55.5589 289.132 55.7021 289.241C56.1453 289.52 56.6271 289.732 57.1321 289.871L57.7921 290.101L58.3621 290.311C58.5569 290.383 58.7444 290.474 58.9221 290.581C59.0421 290.651 59.1821 290.761 59.3621 290.891C59.5082 290.997 59.6336 291.13 59.7321 291.281C59.8143 291.434 59.8813 291.595 59.9321 291.761C59.9935 291.959 60.0238 292.164 60.0221 292.371C60.0331 292.697 59.9684 293.021 59.833 293.318C59.6977 293.614 59.4954 293.876 59.2421 294.081C58.6729 294.509 57.9737 294.728 57.2621 294.701Z" fill="#F7F7FC"/>
<path d="M64.6321 288.451C65.0406 288.447 65.4455 288.527 65.8221 288.685C66.1986 288.843 66.5389 289.077 66.8221 289.371C67.4001 289.97 67.7232 290.769 67.7232 291.601C67.7232 292.433 67.4001 293.233 66.8221 293.831C66.5381 294.124 66.1974 294.355 65.8208 294.512C65.4443 294.668 65.0398 294.746 64.6321 294.741C64.1457 294.761 63.6631 294.648 63.2353 294.416C62.8075 294.184 62.4505 293.84 62.2021 293.421V297.001H61.4121V288.601H62.1621V289.771C62.4138 289.346 62.7771 288.999 63.2126 288.766C63.6481 288.533 64.1391 288.424 64.6321 288.451ZM62.8921 293.281C63.1088 293.507 63.3701 293.685 63.6594 293.803C63.9487 293.922 64.2595 293.979 64.5721 293.971C64.8844 293.977 65.1945 293.919 65.4834 293.8C65.7724 293.681 66.0339 293.505 66.2521 293.281C66.6878 292.829 66.9312 292.225 66.9312 291.596C66.9312 290.968 66.6878 290.364 66.2521 289.911C66.0339 289.688 65.7724 289.511 65.4834 289.393C65.1945 289.274 64.8844 289.216 64.5721 289.221C64.2595 289.213 63.9487 289.27 63.6594 289.389C63.3701 289.508 63.1088 289.686 62.8921 289.911C62.4493 290.36 62.2011 290.966 62.2011 291.596C62.2011 292.227 62.4493 292.832 62.8921 293.281Z" fill="#F7F7FC"/>
<path d="M71.8222 288.451C72.2287 288.439 72.6327 288.518 73.0047 288.683C73.3766 288.847 73.7072 289.093 73.9722 289.401C74.5148 290.012 74.8076 290.804 74.7922 291.621C74.7922 291.711 74.7922 291.831 74.7922 291.991H69.5222C69.5811 292.556 69.8572 293.076 70.2922 293.441C70.7522 293.804 71.3264 293.992 71.9122 293.971C72.3233 293.983 72.7303 293.886 73.0922 293.691C73.4066 293.52 73.6665 293.263 73.8422 292.951L74.5422 293.361C74.2738 293.781 73.9019 294.126 73.4622 294.361C72.9818 294.614 72.4451 294.742 71.9022 294.731C71.4766 294.75 71.0517 294.681 70.6541 294.528C70.2566 294.374 69.8951 294.141 69.5922 293.841C69.2982 293.547 69.0676 293.195 68.9145 292.808C68.7615 292.421 68.6892 292.007 68.7022 291.591C68.6919 291.176 68.7644 290.764 68.9155 290.377C69.0666 289.991 69.2933 289.639 69.5822 289.341C69.8737 289.046 70.2233 288.814 70.6089 288.661C70.9944 288.508 71.4076 288.436 71.8222 288.451ZM71.8222 289.221C71.2471 289.204 70.6866 289.404 70.2522 289.781C69.8295 290.153 69.5618 290.671 69.5022 291.231H73.9822C73.9355 290.661 73.6704 290.131 73.2422 289.751C72.8513 289.404 72.345 289.215 71.8222 289.221Z" fill="#F7F7FC"/>
<path d="M78.8322 288.451C79.2387 288.439 79.6427 288.518 80.0146 288.683C80.3866 288.847 80.7172 289.093 80.9822 289.401C81.5248 290.012 81.8175 290.804 81.8022 291.621C81.8022 291.711 81.8022 291.831 81.8022 291.991H76.5322C76.5911 292.556 76.8672 293.076 77.3022 293.441C77.7622 293.804 78.3364 293.992 78.9222 293.971C79.3333 293.983 79.7403 293.886 80.1022 293.691C80.4166 293.52 80.6765 293.263 80.8522 292.951L81.5422 293.361C81.2802 293.783 80.911 294.128 80.4722 294.361C79.9887 294.616 79.4484 294.743 78.9022 294.731C78.2779 294.731 77.6673 294.548 77.1461 294.204C76.6249 293.861 76.216 293.371 75.9701 292.798C75.7242 292.224 75.652 291.59 75.7626 290.976C75.8732 290.362 76.1616 289.793 76.5922 289.341C76.8837 289.046 77.2333 288.814 77.6188 288.661C78.0044 288.508 78.4175 288.436 78.8322 288.451ZM78.8322 289.221C78.2571 289.204 77.6966 289.404 77.2622 289.781C76.8395 290.153 76.5718 290.671 76.5122 291.231H80.9922C80.9454 290.661 80.6803 290.131 80.2522 289.751C79.8603 289.405 79.3546 289.217 78.8322 289.221Z" fill="#F7F7FC"/>
<path d="M85.862 294.701C85.3766 294.704 84.8973 294.594 84.4614 294.381C84.0255 294.167 83.6448 293.856 83.349 293.471C83.0532 293.086 82.8503 292.639 82.7561 292.162C82.662 291.686 82.6791 291.195 82.8062 290.726C82.9333 290.258 83.1669 289.825 83.4888 289.462C83.8107 289.099 84.2122 288.815 84.6619 288.633C85.1116 288.45 85.5974 288.374 86.0814 288.41C86.5653 288.446 87.0344 288.594 87.452 288.841C87.8973 289.111 88.247 289.513 88.452 289.991L87.812 290.361C87.651 289.998 87.3775 289.697 87.032 289.501C86.6685 289.288 86.2536 289.177 85.832 289.181C85.5194 289.173 85.2085 289.23 84.9193 289.349C84.63 289.468 84.3687 289.646 84.152 289.871C83.7092 290.32 83.461 290.926 83.461 291.556C83.461 292.187 83.7092 292.792 84.152 293.241C84.3687 293.467 84.63 293.645 84.9193 293.763C85.2085 293.882 85.5194 293.939 85.832 293.931C86.241 293.941 86.6445 293.836 86.9976 293.629C87.3507 293.423 87.6396 293.122 87.832 292.761L88.502 293.141C88.2522 293.619 87.8704 294.015 87.402 294.281C86.9341 294.553 86.4032 294.698 85.862 294.701Z" fill="#F7F7FC"/>
<path d="M92.4921 288.451C92.8099 288.435 93.1275 288.486 93.424 288.602C93.7205 288.717 93.9891 288.894 94.2121 289.121C94.6502 289.611 94.8766 290.255 94.8421 290.911V294.601H94.0521V290.911C94.0811 290.459 93.9301 290.013 93.6321 289.671C93.4728 289.516 93.2829 289.396 93.0745 289.319C92.8662 289.241 92.644 289.208 92.4221 289.221C92.1633 289.21 91.9049 289.253 91.6637 289.347C91.4225 289.442 91.204 289.587 91.0221 289.771C90.8255 290.002 90.6765 290.269 90.5838 290.557C90.4911 290.845 90.4566 291.149 90.4821 291.451V294.601H89.6821V286.201H90.4821V289.531C90.6872 289.185 90.9828 288.902 91.337 288.712C91.6911 288.521 92.0905 288.431 92.4921 288.451Z" fill="#F7F7FC"/>
<path d="M103.422 294.701C102.756 294.703 102.097 294.552 101.498 294.259C100.9 293.966 100.376 293.539 99.9682 293.012C99.5604 292.484 99.2793 291.87 99.1466 291.217C99.0139 290.564 99.0332 289.888 99.2029 289.244C99.3726 288.599 99.6882 288.002 100.125 287.499C100.563 286.995 101.11 286.599 101.724 286.341C102.339 286.082 103.005 285.969 103.67 286.009C104.335 286.049 104.983 286.241 105.562 286.571C106.193 286.925 106.712 287.448 107.062 288.081L106.322 288.511C106.055 287.999 105.645 287.576 105.142 287.291C104.622 286.982 104.027 286.823 103.422 286.831C102.486 286.831 101.588 287.203 100.926 287.865C100.264 288.527 99.8922 289.425 99.8922 290.361C99.8922 291.297 100.264 292.195 100.926 292.857C101.588 293.519 102.486 293.891 103.422 293.891C104.026 293.894 104.62 293.735 105.142 293.431C105.645 293.146 106.055 292.723 106.322 292.211L107.062 292.631C106.716 293.264 106.2 293.787 105.572 294.141C104.917 294.512 104.176 294.705 103.422 294.701Z" fill="#F7F7FC"/>
<path d="M113.292 293.841C112.85 294.282 112.286 294.581 111.674 294.702C111.061 294.823 110.426 294.76 109.849 294.52C109.273 294.28 108.78 293.875 108.433 293.356C108.087 292.836 107.902 292.226 107.902 291.601C107.891 291.184 107.968 290.77 108.126 290.384C108.284 289.998 108.522 289.65 108.822 289.361C109.42 288.778 110.222 288.451 111.057 288.451C111.892 288.451 112.694 288.778 113.292 289.361C113.881 289.958 114.211 290.763 114.211 291.601C114.211 292.439 113.881 293.244 113.292 293.841ZM109.382 293.281C109.599 293.506 109.86 293.684 110.149 293.803C110.439 293.922 110.75 293.979 111.062 293.971C111.374 293.977 111.685 293.918 111.973 293.8C112.262 293.681 112.524 293.505 112.742 293.281C113.178 292.828 113.421 292.224 113.421 291.596C113.421 290.968 113.178 290.364 112.742 289.911C112.524 289.688 112.262 289.511 111.973 289.392C111.685 289.274 111.374 289.215 111.062 289.221C110.75 289.213 110.439 289.27 110.149 289.389C109.86 289.508 109.599 289.686 109.382 289.911C108.939 290.36 108.691 290.965 108.691 291.596C108.691 292.227 108.939 292.832 109.382 293.281Z" fill="#F7F7FC"/>
<path d="M118.342 288.451C118.66 288.436 118.977 288.488 119.273 288.603C119.57 288.719 119.838 288.895 120.062 289.121C120.5 289.611 120.727 290.255 120.692 290.911V294.601H119.902V290.911C119.917 290.686 119.886 290.461 119.813 290.248C119.739 290.035 119.623 289.839 119.472 289.671C119.315 289.515 119.127 289.395 118.921 289.317C118.714 289.24 118.493 289.207 118.272 289.221C118.012 289.21 117.752 289.253 117.509 289.348C117.267 289.443 117.046 289.587 116.862 289.771C116.666 290.002 116.517 290.269 116.424 290.557C116.331 290.845 116.297 291.149 116.322 291.451V294.601H115.532V288.601H116.322V289.531C116.529 289.184 116.826 288.901 117.182 288.711C117.538 288.52 117.939 288.431 118.342 288.451Z" fill="#F7F7FC"/>
<path d="M126.492 288.601H127.332L124.872 294.601H123.872L121.412 288.601H122.252L124.352 293.771L126.492 288.601Z" fill="#F7F7FC"/>
<path d="M130.822 288.451C131.229 288.437 131.633 288.516 132.006 288.68C132.378 288.845 132.708 289.091 132.972 289.401C133.518 290.01 133.815 290.803 133.802 291.621C133.809 291.745 133.809 291.868 133.802 291.991H128.532C128.59 292.559 128.871 293.08 129.312 293.441C129.767 293.806 130.339 293.994 130.922 293.971C131.333 293.984 131.74 293.888 132.102 293.691C132.421 293.526 132.682 293.268 132.852 292.951L133.552 293.361C133.289 293.786 132.916 294.131 132.472 294.361C131.992 294.615 131.455 294.742 130.912 294.731C130.488 294.749 130.065 294.68 129.669 294.527C129.273 294.373 128.913 294.14 128.612 293.841C128.316 293.549 128.083 293.197 127.93 292.81C127.777 292.423 127.706 292.008 127.722 291.591C127.71 291.177 127.781 290.765 127.93 290.379C128.079 289.992 128.304 289.64 128.592 289.341C128.882 289.047 129.23 288.817 129.614 288.663C129.998 288.51 130.409 288.438 130.822 288.451ZM130.822 289.221C130.247 289.205 129.687 289.405 129.252 289.781C128.829 290.154 128.562 290.671 128.502 291.231H132.982C132.939 290.662 132.677 290.132 132.252 289.751C131.856 289.406 131.347 289.217 130.822 289.221Z" fill="#F7F7FC"/>
<path d="M135.852 289.591C136.028 289.244 136.302 288.956 136.64 288.763C136.977 288.569 137.364 288.478 137.752 288.501V289.271C137.255 289.256 136.77 289.427 136.392 289.751C136.198 289.949 136.05 290.186 135.957 290.447C135.864 290.708 135.828 290.985 135.852 291.261V294.601H135.062V288.601H135.852V289.591Z" fill="#F7F7FC"/>
<path d="M142.162 289.371H140.442V293.001C140.416 293.25 140.483 293.5 140.632 293.701C140.706 293.777 140.795 293.835 140.893 293.873C140.992 293.911 141.097 293.927 141.202 293.921C141.462 293.921 141.782 293.921 142.202 293.921V294.621C141.57 294.776 140.904 294.713 140.312 294.441C140.088 294.284 139.911 294.069 139.801 293.819C139.69 293.569 139.649 293.293 139.682 293.021V289.391H138.422V288.621H139.682V287.181L140.482 286.941V288.621H142.162V289.371Z" fill="#F7F7FC"/>
<path d="M145.862 288.451C146.268 288.44 146.672 288.519 147.044 288.683C147.416 288.847 147.747 289.093 148.012 289.401C148.555 290.012 148.847 290.805 148.832 291.621C148.832 291.711 148.832 291.831 148.832 291.991H143.562C143.621 292.556 143.897 293.076 144.332 293.441C144.792 293.805 145.366 293.992 145.952 293.971C146.372 293.992 146.79 293.898 147.162 293.701C147.476 293.53 147.736 293.273 147.912 292.961L148.612 293.371C148.344 293.792 147.972 294.136 147.532 294.371C147.052 294.625 146.515 294.752 145.972 294.741C145.546 294.76 145.122 294.691 144.724 294.538C144.326 294.385 143.965 294.151 143.662 293.851C143.368 293.557 143.137 293.205 142.984 292.818C142.831 292.431 142.759 292.017 142.772 291.601C142.762 291.187 142.834 290.774 142.985 290.388C143.136 290.001 143.363 289.649 143.652 289.351C143.939 289.058 144.284 288.827 144.664 288.672C145.044 288.517 145.452 288.442 145.862 288.451ZM145.862 289.221C145.287 289.204 144.726 289.404 144.292 289.781C143.869 290.154 143.602 290.671 143.542 291.231H148.022C147.975 290.661 147.71 290.131 147.282 289.751C146.891 289.404 146.385 289.215 145.862 289.221Z" fill="#F7F7FC"/>
<path d="M150.882 289.591C151.058 289.244 151.332 288.956 151.67 288.763C152.007 288.569 152.394 288.478 152.782 288.501V289.271C152.285 289.256 151.8 289.427 151.422 289.751C151.229 289.949 151.08 290.186 150.987 290.447C150.894 290.708 150.858 290.985 150.882 291.261V294.601H150.092V288.601H150.882V289.591Z" fill="#F7F7FC"/>
<path d="M2.85196 306.201C3.59398 306.185 4.3126 306.461 4.85196 306.971C5.35881 307.514 5.64072 308.229 5.64072 308.971C5.64072 309.714 5.35881 310.429 4.85196 310.971C4.2922 311.467 3.57004 311.741 2.82196 311.741C2.07389 311.741 1.35172 311.467 0.791956 310.971C0.528821 310.711 0.322716 310.399 0.186716 310.054C0.0507156 309.71 -0.0122079 309.341 0.00195461 308.971C-0.00704276 308.372 0.171246 307.784 0.511957 307.291L3.26196 303.201H4.26196L2.16196 306.271C2.38859 306.222 2.62006 306.198 2.85196 306.201ZM1.41196 310.391C1.60447 310.572 1.83083 310.712 2.07798 310.805C2.32513 310.898 2.58818 310.941 2.85196 310.931C3.14243 310.99 3.44238 310.984 3.73011 310.913C4.01784 310.842 4.28616 310.707 4.51566 310.52C4.74515 310.332 4.93008 310.096 5.05708 309.828C5.18407 309.56 5.24996 309.268 5.24996 308.971C5.24996 308.675 5.18407 308.382 5.05708 308.114C4.93008 307.846 4.74515 307.61 4.51566 307.423C4.28616 307.235 4.01784 307.101 3.73011 307.03C3.44238 306.959 3.14243 306.952 2.85196 307.011C2.58818 307.002 2.32513 307.045 2.07798 307.137C1.83083 307.23 1.60447 307.371 1.41196 307.551C1.06471 307.943 0.872957 308.448 0.872957 308.971C0.872957 309.494 1.06471 310 1.41196 310.391Z" fill="#F7F7FC"/>
<path d="M12.1621 310.561C11.9002 310.936 11.5467 311.237 11.1354 311.437C10.7241 311.636 10.2686 311.727 9.81214 311.701C9.35248 311.72 8.89556 311.622 8.48443 311.415C8.0733 311.209 7.72149 310.901 7.46214 310.521C6.918 309.557 6.63208 308.468 6.63208 307.361C6.63208 306.254 6.918 305.165 7.46214 304.201C7.721 303.82 8.07244 303.511 8.48348 303.303C8.89453 303.095 9.35171 302.994 9.81214 303.011C10.2767 302.996 10.7374 303.101 11.1493 303.316C11.5611 303.532 11.9101 303.851 12.1621 304.241C12.7129 305.203 13.0027 306.293 13.0027 307.401C13.0027 308.51 12.7129 309.599 12.1621 310.561ZM8.10214 310.001C8.28978 310.286 8.54515 310.519 8.84534 310.681C9.14554 310.843 9.48118 310.927 9.82214 310.927C10.1631 310.927 10.4987 310.843 10.7989 310.681C11.0991 310.519 11.3545 310.286 11.5421 310.001C11.9988 309.214 12.2144 308.31 12.1621 307.401C12.2128 306.489 11.9974 305.583 11.5421 304.791C11.3529 304.509 11.097 304.277 10.797 304.117C10.497 303.957 10.1622 303.873 9.82214 303.873C9.48208 303.873 9.14724 303.957 8.84725 304.117C8.54726 304.277 8.29135 304.509 8.10214 304.791C7.64188 305.581 7.42611 306.489 7.48214 307.401C7.42144 308.309 7.63389 309.215 8.09214 310.001H8.10214Z" fill="#F7F7FC"/>
<path d="M19.712 310.561C19.4509 310.935 19.0991 311.235 18.6897 311.435C18.2802 311.634 17.8267 311.726 17.372 311.701C16.9123 311.72 16.4554 311.622 16.0442 311.415C15.6331 311.209 15.2813 310.901 15.022 310.521C14.4778 309.557 14.1919 308.469 14.1919 307.361C14.1919 306.254 14.4778 305.166 15.022 304.201C15.2808 303.82 15.6323 303.511 16.0433 303.303C16.4543 303.095 16.9115 302.994 17.372 303.011C17.8312 302.993 18.2873 303.093 18.697 303.302C19.1066 303.51 19.4561 303.82 19.712 304.201C20.2628 305.163 20.5525 306.253 20.5525 307.361C20.5525 308.47 20.2628 309.559 19.712 310.521V310.561ZM15.642 310.001C15.8292 310.288 16.085 310.524 16.3862 310.687C16.6873 310.85 17.0245 310.935 17.367 310.935C17.7095 310.935 18.0466 310.85 18.3478 310.687C18.649 310.524 18.9047 310.288 19.092 310.001C19.5486 309.214 19.7642 308.31 19.712 307.401C19.7627 306.49 19.5473 305.583 19.092 304.791C18.9016 304.509 18.6447 304.277 18.3439 304.117C18.0432 303.957 17.7077 303.874 17.367 303.874C17.0263 303.874 16.6908 303.957 16.39 304.117C16.0892 304.277 15.8323 304.509 15.642 304.791C15.1901 305.584 14.9782 306.491 15.032 307.401C14.9767 308.309 15.1888 309.213 15.642 310.001Z" fill="#F7F7FC"/>
<path d="M26.9121 307.011V307.781H24.7721V309.921H24.0021V307.781H21.8721V307.011H24.0021V304.881H24.7721V307.011H26.9121Z" fill="#F7F7FC"/>
<path d="M37.1622 311.601L36.3822 309.531H32.3822L31.5922 311.601H30.7122L33.9322 303.201H34.8022L38.0322 311.601H37.1622ZM32.7122 308.701H36.1022L34.4122 304.201L32.7122 308.701Z" fill="#F7F7FC"/>
<path d="M39.1621 303.201H40.0021V311.601H39.1621V303.201Z" fill="#F7F7FC"/>
<path d="M47.1623 311.601L44.0723 303.201H44.9823L47.5923 310.481L50.2123 303.201H51.1623L48.0723 311.601H47.1623Z" fill="#F7F7FC"/>
<path d="M56.4022 310.841C55.7992 311.418 54.9968 311.74 54.1622 311.74C53.3276 311.74 52.5252 311.418 51.9222 310.841C51.3335 310.244 51.0034 309.439 51.0034 308.601C51.0034 307.763 51.3335 306.958 51.9222 306.361C52.5216 305.777 53.3253 305.45 54.1622 305.45C54.999 305.45 55.8028 305.777 56.4022 306.361C56.9861 306.96 57.313 307.764 57.313 308.601C57.313 309.438 56.9861 310.242 56.4022 310.841ZM52.4822 310.281C52.6989 310.506 52.9602 310.684 53.2495 310.803C53.5387 310.922 53.8496 310.979 54.1622 310.971C54.487 310.992 54.8128 310.946 55.1192 310.836C55.4257 310.727 55.7063 310.555 55.9439 310.333C56.1814 310.11 56.3707 309.841 56.5002 309.542C56.6296 309.244 56.6964 308.921 56.6964 308.596C56.6964 308.27 56.6296 307.948 56.5002 307.65C56.3707 307.351 56.1814 307.082 55.9439 306.859C55.7063 306.637 55.4257 306.465 55.1192 306.355C54.8128 306.246 54.487 306.2 54.1622 306.221C53.8496 306.213 53.5387 306.27 53.2495 306.389C52.9602 306.508 52.6989 306.686 52.4822 306.911C52.0465 307.364 51.8031 307.968 51.8031 308.596C51.8031 309.224 52.0465 309.828 52.4822 310.281Z" fill="#F7F7FC"/>
<path d="M59.4421 304.161C59.3472 304.256 59.2224 304.315 59.0888 304.328C58.9553 304.341 58.8213 304.308 58.7098 304.233C58.5982 304.158 58.516 304.047 58.4771 303.919C58.4382 303.791 58.445 303.653 58.4964 303.529C58.5478 303.405 58.6406 303.302 58.7589 303.239C58.8773 303.176 59.0139 303.156 59.1455 303.182C59.2771 303.208 59.3956 303.279 59.4806 303.383C59.5657 303.487 59.6122 303.617 59.6121 303.751C59.6127 303.827 59.5979 303.903 59.5687 303.973C59.5395 304.044 59.4965 304.108 59.4421 304.161ZM58.6321 311.601V305.601H59.4321V311.601H58.6321Z" fill="#F7F7FC"/>
<path d="M63.9021 311.701C63.4742 311.725 63.0458 311.662 62.6433 311.515C62.2407 311.368 61.8724 311.14 61.561 310.846C61.2495 310.551 61.0013 310.196 60.8318 309.803C60.6622 309.409 60.5747 308.985 60.5747 308.556C60.5747 308.128 60.6622 307.704 60.8318 307.31C61.0013 306.916 61.2495 306.561 61.561 306.267C61.8724 305.973 62.2407 305.745 62.6433 305.598C63.0458 305.451 63.4742 305.387 63.9021 305.411C64.4647 305.406 65.0179 305.555 65.5021 305.841C65.9449 306.114 66.2938 306.515 66.5021 306.991L65.8521 307.361C65.692 307.001 65.4226 306.7 65.0821 306.501C64.7151 306.287 64.297 306.177 63.8721 306.181C63.5598 306.176 63.2497 306.234 62.9608 306.353C62.6719 306.471 62.4103 306.648 62.1921 306.871C61.7564 307.324 61.513 307.928 61.513 308.556C61.513 309.185 61.7564 309.789 62.1921 310.241C62.5664 310.608 63.0494 310.843 63.5688 310.911C64.0881 310.98 64.6156 310.878 65.0721 310.621C65.418 310.411 65.7038 310.114 65.9021 309.761L66.5621 310.141C66.3165 310.619 65.9379 311.014 65.4721 311.281C64.9953 311.558 64.4534 311.703 63.9021 311.701Z" fill="#F7F7FC"/>
<path d="M70.442 305.451C70.8502 305.438 71.2562 305.516 71.63 305.681C72.0038 305.845 72.336 306.091 72.602 306.401C73.1413 307.014 73.4335 307.805 73.422 308.621C73.4293 308.744 73.4293 308.868 73.422 308.991H68.162C68.2168 309.557 68.4937 310.079 68.932 310.441C69.3881 310.805 69.9593 310.993 70.542 310.971C70.9563 310.983 71.3665 310.886 71.732 310.691C72.0465 310.52 72.3064 310.263 72.482 309.951L73.172 310.361C72.9088 310.786 72.5356 311.131 72.092 311.361C71.6125 311.617 71.0752 311.744 70.532 311.731C69.9077 311.731 69.2972 311.548 68.776 311.204C68.2548 310.861 67.8459 310.372 67.6 309.798C67.354 309.224 67.2819 308.591 67.3925 307.976C67.5031 307.362 67.7915 306.793 68.222 306.341C68.5113 306.049 68.8576 305.818 69.2395 305.665C69.6214 305.512 70.0307 305.439 70.442 305.451ZM70.442 306.221C69.8702 306.205 69.3134 306.405 68.882 306.781C68.4593 307.154 68.1917 307.671 68.132 308.231H72.602C72.5589 307.662 72.2974 307.132 71.872 306.751C71.4771 306.404 70.9678 306.215 70.442 306.221Z" fill="#F7F7FC"/>
<path d="M75.0622 307.171C75.0606 307.302 75.093 307.43 75.1561 307.544C75.2192 307.658 75.3109 307.754 75.4222 307.821C75.6927 307.993 75.9902 308.118 76.3022 308.191L77.3022 308.481C77.6359 308.585 77.9384 308.771 78.1823 309.021C78.429 309.294 78.5584 309.654 78.5423 310.021C78.5466 310.263 78.4935 310.502 78.3875 310.72C78.2815 310.937 78.1255 311.126 77.9323 311.271C77.4797 311.607 76.9252 311.777 76.3622 311.751C75.8464 311.764 75.3373 311.633 74.8922 311.371C74.5121 311.137 74.2176 310.786 74.0522 310.371L74.7222 309.981C74.8311 310.29 75.0477 310.549 75.3322 310.711C75.6343 310.892 75.9804 310.985 76.3322 310.981C76.6804 310.998 77.0265 310.919 77.3322 310.751C77.4576 310.677 77.5602 310.569 77.629 310.441C77.6977 310.312 77.73 310.167 77.7222 310.021C77.7242 309.894 77.6929 309.767 77.6316 309.655C77.5702 309.543 77.4809 309.449 77.3723 309.381C77.1005 309.21 76.8036 309.081 76.4922 309.001C76.1422 308.921 75.8022 308.821 75.4922 308.711C75.1567 308.612 74.8533 308.425 74.6122 308.171C74.4887 308.037 74.3932 307.879 74.3313 307.708C74.2695 307.536 74.2426 307.354 74.2522 307.171C74.2476 306.937 74.2975 306.705 74.3982 306.493C74.4989 306.281 74.6475 306.096 74.8322 305.951C75.2452 305.612 75.7678 305.434 76.3022 305.451C76.7543 305.442 77.2004 305.556 77.5922 305.781C77.9487 305.99 78.2317 306.305 78.4023 306.681L77.7422 307.061C77.6253 306.784 77.4218 306.553 77.1622 306.402C76.9025 306.25 76.6008 306.187 76.3022 306.221C75.9871 306.212 75.6766 306.299 75.4122 306.471C75.2988 306.548 75.2071 306.653 75.1458 306.776C75.0845 306.898 75.0557 307.034 75.0622 307.171Z" fill="#F7F7FC"/>
<path d="M83.6922 304.161C83.6387 304.215 83.5748 304.258 83.5044 304.288C83.434 304.317 83.3584 304.332 83.2822 304.331C83.1284 304.331 82.9809 304.27 82.8722 304.161C82.7703 304.049 82.7139 303.903 82.7139 303.751C82.7139 303.599 82.7703 303.453 82.8722 303.341C82.9809 303.232 83.1284 303.171 83.2822 303.171C83.399 303.169 83.5136 303.202 83.6112 303.266C83.7087 303.331 83.7846 303.423 83.8289 303.531C83.8732 303.639 83.8839 303.758 83.8595 303.872C83.8351 303.986 83.7768 304.09 83.6922 304.171V304.161ZM82.8922 311.601V305.601H83.6822V311.601H82.8922Z" fill="#F7F7FC"/>
<path d="M88.162 305.451C88.4796 305.437 88.7967 305.489 89.0929 305.604C89.3891 305.72 89.6579 305.896 89.882 306.121C90.3201 306.611 90.5466 307.255 90.5121 307.911V311.601H89.722V307.911C89.7471 307.457 89.5927 307.012 89.2921 306.671C89.1334 306.515 88.9436 306.394 88.7351 306.317C88.5266 306.239 88.304 306.207 88.082 306.221C87.8233 306.211 87.5653 306.254 87.3243 306.349C87.0833 306.444 86.8646 306.587 86.6821 306.771C86.4854 307.001 86.3364 307.269 86.2437 307.557C86.151 307.845 86.1165 308.149 86.142 308.451V311.601H85.3521V305.601H86.162V306.531C86.3672 306.188 86.6613 305.906 87.0134 305.716C87.3654 305.526 87.7623 305.434 88.162 305.451Z" fill="#F7F7FC"/>
<path d="M94.4521 303.201H99.6122V303.991L96.4521 311.601H95.5722L98.7422 303.991H94.4521V303.201Z" fill="#F7F7FC"/>
<path d="M105.982 310.561C105.711 310.927 105.357 311.225 104.95 311.43C104.543 311.634 104.093 311.741 103.637 311.741C103.181 311.741 102.732 311.634 102.325 311.43C101.917 311.225 101.564 310.927 101.292 310.561C100.741 309.599 100.452 308.51 100.452 307.401C100.452 306.293 100.741 305.203 101.292 304.241C101.563 303.873 101.916 303.574 102.323 303.368C102.73 303.162 103.181 303.054 103.637 303.054C104.094 303.054 104.544 303.162 104.951 303.368C105.359 303.574 105.712 303.873 105.982 304.241C106.526 305.205 106.812 306.294 106.812 307.401C106.812 308.508 106.526 309.597 105.982 310.561ZM101.912 310.001C102.099 310.288 102.355 310.524 102.656 310.687C102.958 310.85 103.295 310.935 103.637 310.935C103.98 310.935 104.317 310.85 104.618 310.687C104.919 310.524 105.175 310.288 105.362 310.001C105.815 309.213 106.028 308.309 105.972 307.401C106.026 306.49 105.814 305.584 105.362 304.791C105.172 304.509 104.915 304.277 104.614 304.117C104.313 303.957 103.978 303.873 103.637 303.873C103.297 303.873 102.961 303.957 102.66 304.117C102.359 304.277 102.103 304.509 101.912 304.791C101.46 305.584 101.249 306.49 101.302 307.401C101.247 308.309 101.459 309.213 101.912 310.001Z" fill="#F7F7FC"/>
<path d="M111.252 311.601V302.841H112.052V311.601H111.252Z" fill="#F7F7FC"/>
<path d="M118.892 305.601H119.682V311.601H118.892V310.421C118.639 310.833 118.279 311.168 117.852 311.393C117.425 311.619 116.945 311.725 116.462 311.701C116.054 311.706 115.65 311.628 115.273 311.472C114.897 311.315 114.556 311.084 114.272 310.791C113.694 310.193 113.371 309.393 113.371 308.561C113.371 307.729 113.694 306.93 114.272 306.331C114.555 306.037 114.896 305.804 115.272 305.645C115.649 305.487 116.054 305.408 116.462 305.411C116.949 305.392 117.431 305.504 117.859 305.737C118.287 305.969 118.644 306.313 118.892 306.731V305.601ZM114.892 310.281C115.11 310.505 115.372 310.681 115.661 310.8C115.95 310.919 116.26 310.977 116.572 310.971C116.885 310.979 117.196 310.922 117.485 310.803C117.774 310.685 118.035 310.507 118.252 310.281C118.695 309.832 118.943 309.227 118.943 308.596C118.943 307.966 118.695 307.36 118.252 306.911C118.035 306.686 117.774 306.508 117.485 306.389C117.196 306.271 116.885 306.213 116.572 306.221C116.26 306.216 115.95 306.274 115.661 306.393C115.372 306.511 115.11 306.688 114.892 306.911C114.456 307.364 114.213 307.968 114.213 308.596C114.213 309.225 114.456 309.829 114.892 310.281Z" fill="#F7F7FC"/>
<path d="M124.162 305.451C124.48 305.437 124.797 305.489 125.093 305.604C125.389 305.72 125.658 305.896 125.882 306.121C126.32 306.611 126.547 307.255 126.512 307.911V311.601H125.722V307.911C125.747 307.457 125.593 307.012 125.292 306.671C125.133 306.515 124.944 306.394 124.735 306.317C124.527 306.239 124.304 306.207 124.082 306.221C123.823 306.211 123.565 306.254 123.324 306.349C123.083 306.444 122.865 306.587 122.682 306.771C122.485 307.001 122.336 307.269 122.244 307.557C122.151 307.845 122.116 308.149 122.142 308.451V311.601H121.352V305.601H122.162V306.531C122.367 306.188 122.661 305.906 123.013 305.716C123.365 305.526 123.762 305.434 124.162 305.451Z" fill="#F7F7FC"/>
<path d="M133.212 305.601H134.012V311.361C134.022 311.74 133.948 312.116 133.794 312.462C133.64 312.808 133.41 313.115 133.122 313.361C132.524 313.856 131.768 314.118 130.992 314.101C130.435 314.169 129.871 314.072 129.368 313.823C128.865 313.575 128.446 313.185 128.162 312.701L128.862 312.301C129.069 312.676 129.383 312.98 129.765 313.174C130.146 313.369 130.577 313.444 131.002 313.391C131.594 313.424 132.177 313.231 132.632 312.851C132.83 312.663 132.986 312.434 133.088 312.18C133.189 311.927 133.235 311.654 133.222 311.381V310.441C132.976 310.86 132.621 311.203 132.195 311.436C131.769 311.668 131.287 311.781 130.802 311.761C130.394 311.766 129.99 311.688 129.613 311.532C129.237 311.375 128.896 311.144 128.612 310.851C128.029 310.255 127.703 309.455 127.703 308.621C127.703 307.787 128.029 306.987 128.612 306.391C128.895 306.097 129.236 305.863 129.612 305.705C129.989 305.547 130.394 305.467 130.802 305.471C131.287 305.451 131.769 305.564 132.195 305.796C132.621 306.028 132.976 306.372 133.222 306.791L133.212 305.601ZM129.212 310.281C129.604 310.687 130.125 310.945 130.685 311.009C131.246 311.074 131.812 310.941 132.285 310.633C132.758 310.326 133.11 309.864 133.28 309.325C133.449 308.787 133.426 308.206 133.215 307.683C133.003 307.16 132.616 306.727 132.119 306.458C131.623 306.189 131.049 306.102 130.495 306.21C129.941 306.319 129.442 306.617 129.084 307.053C128.726 307.489 128.531 308.037 128.532 308.601C128.519 308.909 128.567 309.217 128.676 309.505C128.784 309.794 128.949 310.058 129.162 310.281H129.212Z" fill="#F7F7FC"/>
<path d="M140.852 305.601H141.642V311.601H140.852V310.421C140.604 310.84 140.247 311.184 139.819 311.416C139.391 311.648 138.909 311.761 138.422 311.741C138.014 311.746 137.61 311.668 137.233 311.512C136.857 311.355 136.516 311.124 136.232 310.831C135.654 310.233 135.331 309.433 135.331 308.601C135.331 307.769 135.654 306.97 136.232 306.371C136.515 306.077 136.856 305.844 137.232 305.685C137.609 305.527 138.014 305.448 138.422 305.451C138.909 305.432 139.391 305.544 139.819 305.777C140.247 306.009 140.604 306.353 140.852 306.771V305.601ZM136.802 310.281C137.02 310.505 137.282 310.681 137.571 310.8C137.86 310.919 138.17 310.977 138.482 310.971C138.795 310.979 139.106 310.922 139.395 310.803C139.684 310.685 139.945 310.507 140.162 310.281C140.605 309.832 140.853 309.227 140.853 308.596C140.853 307.966 140.605 307.36 140.162 306.911C139.945 306.686 139.684 306.508 139.395 306.389C139.106 306.271 138.795 306.213 138.482 306.221C138.17 306.216 137.86 306.274 137.571 306.393C137.282 306.511 137.02 306.688 136.802 306.911C136.366 307.364 136.123 307.968 136.123 308.596C136.123 309.225 136.366 309.829 136.802 310.281Z" fill="#F7F7FC"/>
<path d="M147.542 305.601H148.332V311.601H147.542V310.701C147.337 311.045 147.043 311.326 146.691 311.516C146.339 311.707 145.942 311.798 145.542 311.781C145.224 311.798 144.905 311.748 144.607 311.635C144.309 311.521 144.038 311.346 143.812 311.121C143.375 310.626 143.149 309.98 143.182 309.321V305.601H143.982V309.281C143.954 309.737 144.104 310.185 144.402 310.531C144.562 310.685 144.752 310.803 144.961 310.879C145.169 310.955 145.391 310.986 145.612 310.971C145.87 310.981 146.127 310.938 146.368 310.845C146.608 310.752 146.828 310.611 147.012 310.431C147.408 309.961 147.602 309.354 147.552 308.741L147.542 305.601Z" fill="#F7F7FC"/>
<path d="M155.162 305.601H155.962V311.361C155.972 311.74 155.898 312.116 155.744 312.462C155.59 312.808 155.36 313.115 155.072 313.361C154.474 313.856 153.718 314.118 152.942 314.101C152.393 314.158 151.839 314.057 151.347 313.809C150.854 313.561 150.443 313.176 150.162 312.701L150.862 312.301C151.069 312.676 151.383 312.98 151.765 313.174C152.146 313.369 152.577 313.444 153.002 313.391C153.594 313.424 154.177 313.231 154.632 312.851C154.83 312.663 154.986 312.434 155.088 312.18C155.189 311.927 155.235 311.654 155.222 311.381V310.441C154.976 310.86 154.621 311.203 154.195 311.436C153.769 311.668 153.287 311.781 152.802 311.761C152.394 311.766 151.99 311.688 151.613 311.532C151.237 311.375 150.896 311.144 150.612 310.851C150.029 310.255 149.703 309.455 149.703 308.621C149.703 307.787 150.029 306.987 150.612 306.391C150.895 306.097 151.236 305.863 151.612 305.705C151.989 305.547 152.394 305.467 152.802 305.471C153.287 305.451 153.769 305.564 154.195 305.796C154.621 306.028 154.976 306.372 155.222 306.791L155.162 305.601ZM151.162 310.281C151.554 310.687 152.075 310.945 152.635 311.009C153.196 311.074 153.762 310.941 154.235 310.633C154.708 310.326 155.06 309.864 155.23 309.325C155.399 308.787 155.376 308.206 155.165 307.683C154.953 307.16 154.566 306.727 154.069 306.458C153.573 306.189 152.999 306.102 152.445 306.21C151.891 306.319 151.392 306.617 151.034 307.053C150.676 307.489 150.481 308.037 150.482 308.601C150.475 308.913 150.532 309.222 150.649 309.511C150.766 309.8 150.94 310.062 151.162 310.281Z" fill="#F7F7FC"/>
<path d="M160.422 305.451C160.829 305.439 161.233 305.518 161.605 305.683C161.977 305.847 162.307 306.093 162.572 306.401C163.115 307.012 163.408 307.804 163.392 308.621C163.392 308.711 163.392 308.831 163.392 308.991H158.122C158.181 309.558 158.461 310.08 158.902 310.441C159.357 310.806 159.929 310.994 160.512 310.971C160.923 310.983 161.33 310.886 161.692 310.691C162.007 310.52 162.266 310.263 162.442 309.951L163.142 310.361C162.874 310.781 162.502 311.126 162.062 311.361C161.582 311.614 161.045 311.742 160.502 311.731C160.077 311.75 159.652 311.681 159.254 311.528C158.857 311.374 158.495 311.141 158.192 310.841C157.898 310.548 157.667 310.196 157.516 309.809C157.364 309.421 157.295 309.007 157.312 308.591C157.3 308.177 157.371 307.765 157.52 307.378C157.67 306.992 157.895 306.639 158.182 306.341C158.474 306.046 158.823 305.814 159.209 305.661C159.594 305.508 160.008 305.436 160.422 305.451ZM160.422 306.221C159.847 306.204 159.287 306.404 158.852 306.781C158.429 307.153 158.162 307.671 158.102 308.231H162.582C162.535 307.661 162.27 307.131 161.842 306.751C161.451 306.404 160.945 306.215 160.422 306.221Z" fill="#F7F7FC"/>
<path d="M61.9221 322.601H62.7322L60.8822 328.601H60.0222L58.4722 323.761L56.9222 328.601H56.0622L54.2122 322.601H55.0322L56.5022 327.601L58.0822 322.601H58.8722L60.4422 327.601L61.9221 322.601Z" fill="#F7F7FC"/>
<path d="M68.7323 327.841C68.1293 328.418 67.3269 328.74 66.4923 328.74C65.6577 328.74 64.8553 328.418 64.2523 327.841C63.6635 327.244 63.3335 326.439 63.3335 325.601C63.3335 324.763 63.6635 323.958 64.2523 323.361C64.8517 322.777 65.6554 322.45 66.4923 322.45C67.3291 322.45 68.1329 322.777 68.7323 323.361C69.3162 323.96 69.643 324.764 69.643 325.601C69.643 326.438 69.3162 327.242 68.7323 327.841ZM64.8123 327.281C65.029 327.506 65.2903 327.684 65.5795 327.803C65.8688 327.922 66.1797 327.979 66.4923 327.971C66.8171 327.992 67.1428 327.946 67.4493 327.836C67.7557 327.727 68.0364 327.555 68.2739 327.333C68.5115 327.11 68.7008 326.841 68.8302 326.542C68.9597 326.244 69.0265 325.921 69.0265 325.596C69.0265 325.27 68.9597 324.948 68.8302 324.65C68.7008 324.351 68.5115 324.082 68.2739 323.859C68.0364 323.637 67.7557 323.465 67.4493 323.355C67.1428 323.246 66.8171 323.2 66.4923 323.221C66.1797 323.213 65.8688 323.27 65.5795 323.389C65.2903 323.508 65.029 323.686 64.8123 323.911C64.3766 324.364 64.1332 324.968 64.1332 325.596C64.1332 326.224 64.3766 326.828 64.8123 327.281Z" fill="#F7F7FC"/>
<path d="M71.7622 323.591C71.9378 323.246 72.2099 322.959 72.5454 322.766C72.8809 322.572 73.2654 322.48 73.6522 322.501V323.271C73.1583 323.259 72.6774 323.43 72.3022 323.751C72.1086 323.949 71.9602 324.186 71.867 324.447C71.7738 324.707 71.738 324.985 71.7622 325.261V328.601H70.9622V322.601H71.7622V323.591Z" fill="#F7F7FC"/>
<path d="M74.7322 328.601V319.841H75.5222V328.601H74.7322Z" fill="#F7F7FC"/>
<path d="M82.3622 320.201H83.1622V328.601H82.3622V327.421C82.1162 327.84 81.7612 328.184 81.3349 328.416C80.9087 328.649 80.4273 328.761 79.9422 328.741C79.5345 328.746 79.13 328.668 78.7535 328.512C78.3769 328.355 78.0362 328.124 77.7522 327.831C77.1695 327.235 76.8433 326.435 76.8433 325.601C76.8433 324.768 77.1695 323.967 77.7522 323.371C78.0354 323.077 78.3757 322.843 78.7523 322.685C79.1289 322.527 79.5338 322.447 79.9422 322.451C80.4273 322.431 80.9087 322.544 81.3349 322.776C81.7612 323.009 82.1162 323.353 82.3622 323.771V320.201ZM78.3622 327.281C78.7538 327.688 79.2746 327.945 79.8354 328.009C80.3961 328.074 80.9617 327.941 81.4351 327.634C81.9085 327.326 82.2603 326.864 82.4299 326.326C82.5995 325.787 82.5764 325.207 82.3647 324.684C82.1529 324.16 81.7657 323.727 81.2694 323.458C80.7731 323.19 80.1987 323.102 79.6449 323.211C79.091 323.319 78.5922 323.617 78.2341 324.053C77.876 324.489 77.6808 325.037 77.6822 325.601C77.6701 325.91 77.7205 326.218 77.8305 326.507C77.9404 326.795 78.1077 327.059 78.3222 327.281H78.3622Z" fill="#F7F7FC"/>
<path d="M92.0623 322.601H92.8823L91.0323 328.601H90.1623L88.6223 323.761L87.0723 328.601H86.1623L84.3223 322.601H85.1623L86.6423 327.601L88.2123 322.601H89.0023L90.5723 327.601L92.0623 322.601Z" fill="#F7F7FC"/>
<path d="M94.8821 321.161C94.8286 321.215 94.7648 321.258 94.6944 321.288C94.6239 321.317 94.5484 321.332 94.4721 321.331C94.3183 321.331 94.1709 321.27 94.0621 321.161C93.9602 321.049 93.9038 320.903 93.9038 320.751C93.9038 320.599 93.9602 320.453 94.0621 320.341C94.1709 320.232 94.3183 320.171 94.4721 320.171C94.5889 320.169 94.7036 320.202 94.8011 320.266C94.8987 320.331 94.9746 320.423 95.0189 320.531C95.0632 320.639 95.0738 320.758 95.0494 320.872C95.025 320.986 94.9667 321.09 94.8821 321.171V321.161ZM94.0821 328.601V322.601H94.8721V328.601H94.0821Z" fill="#F7F7FC"/>
<path d="M101.712 320.201H102.502V328.601H101.712V327.421C101.464 327.841 101.108 328.185 100.68 328.417C100.252 328.65 99.7686 328.762 99.282 328.741C98.8742 328.746 98.4698 328.668 98.0932 328.512C97.7167 328.355 97.376 328.124 97.092 327.831C96.514 327.233 96.1909 326.433 96.1909 325.601C96.1909 324.769 96.514 323.97 97.092 323.371C97.3751 323.077 97.7155 322.843 98.092 322.685C98.4686 322.527 98.8735 322.447 99.282 322.451C99.7686 322.431 100.252 322.543 100.68 322.775C101.108 323.007 101.464 323.352 101.712 323.771V320.201ZM97.662 327.281C97.8801 327.505 98.1417 327.681 98.4306 327.8C98.7196 327.918 99.0297 327.977 99.342 327.971C99.6546 327.979 99.9654 327.922 100.255 327.803C100.544 327.684 100.805 327.507 101.022 327.281C101.465 326.832 101.713 326.227 101.713 325.596C101.713 324.966 101.465 324.36 101.022 323.911C100.805 323.686 100.544 323.508 100.255 323.389C99.9654 323.27 99.6546 323.213 99.342 323.221C99.0297 323.216 98.7196 323.274 98.4306 323.393C98.1417 323.511 97.8801 323.688 97.662 323.911C97.2263 324.364 96.9829 324.968 96.9829 325.596C96.9829 326.225 97.2263 326.828 97.662 327.281Z" fill="#F7F7FC"/>
<path d="M106.952 322.451C107.36 322.438 107.766 322.516 108.14 322.681C108.514 322.845 108.846 323.091 109.112 323.401C109.651 324.014 109.944 324.805 109.932 325.621C109.939 325.744 109.939 325.868 109.932 325.991H104.672C104.727 326.557 105.004 327.079 105.442 327.441C105.898 327.805 106.469 327.993 107.052 327.971C107.466 327.983 107.877 327.886 108.242 327.691C108.556 327.52 108.816 327.263 108.992 326.951L109.682 327.361C109.419 327.786 109.046 328.131 108.602 328.361C108.123 328.617 107.585 328.744 107.042 328.731C106.418 328.731 105.807 328.548 105.286 328.204C104.765 327.861 104.356 327.372 104.11 326.798C103.864 326.224 103.792 325.591 103.902 324.976C104.013 324.362 104.302 323.793 104.732 323.341C105.021 323.049 105.368 322.818 105.75 322.665C106.131 322.512 106.541 322.439 106.952 322.451ZM106.952 323.221C106.38 323.205 105.823 323.405 105.392 323.781C104.969 324.154 104.702 324.671 104.642 325.231H109.162C109.119 324.662 108.857 324.132 108.432 323.751C108.024 323.392 107.495 323.203 106.952 323.221Z" fill="#F7F7FC"/>
<path d="M111.722 328.531C111.596 328.653 111.427 328.721 111.252 328.721C111.076 328.722 110.908 328.653 110.782 328.531C110.72 328.47 110.671 328.396 110.638 328.316C110.606 328.235 110.59 328.148 110.592 328.061C110.591 327.974 110.607 327.888 110.639 327.807C110.672 327.726 110.721 327.653 110.782 327.591C110.844 327.53 110.917 327.481 110.998 327.449C111.079 327.416 111.165 327.4 111.252 327.401C111.339 327.399 111.426 327.415 111.507 327.448C111.587 327.48 111.661 327.529 111.722 327.591C111.844 327.717 111.913 327.886 111.912 328.061C111.912 328.236 111.844 328.405 111.722 328.531Z" fill="#F7F7FC"/>
</svg>
