<?xml version="1.0" standalone="no"?>
<!DOCTYPE svg PUBLIC "-//W3C//DTD SVG 20010904//EN"
 "http://www.w3.org/TR/2001/REC-SVG-20010904/DTD/svg10.dtd">
<svg version="1.0" xmlns="http://www.w3.org/2000/svg"
 width="974.000000pt" height="974.000000pt" viewBox="0 0 974.000000 974.000000"
 preserveAspectRatio="xMidYMid meet">
<metadata>
Created by potrace 1.11, written by Peter Selinger 2001-2013
</metadata>
<g transform="translate(0.000000,974.000000) scale(0.100000,-0.100000)"
fill="#000000" stroke="none">
<path d="M4727 9724 c-144 -34 -279 -119 -367 -230 -21 -26 -82 -126 -85 -139
-1 -5 -5 -17 -8 -25 -17 -40 -28 -76 -35 -109 -10 -49 -9 -6709 1 -6746 4 -16
10 -41 13 -54 19 -93 153 -301 193 -301 6 0 11 -5 11 -10 0 -11 132 -100 148
-100 5 0 23 -7 38 -15 16 -8 37 -15 46 -15 9 0 19 -4 22 -8 9 -15 231 -22 291
-10 17 4 41 9 53 12 90 20 267 137 323 214 13 18 30 39 37 47 40 44 94 190
107 290 4 30 7 510 3 605 0 8 0 62 1 120 0 58 0 112 0 120 0 8 0 211 1 450 0
239 0 440 -1 445 -1 6 -1 13 0 17 0 4 1 56 0 115 0 59 0 117 0 128 1 36 0 200
-1 210 0 6 0 57 1 115 0 58 0 113 0 123 0 9 0 100 0 202 0 102 0 191 0 198 -1
6 -1 59 0 117 0 58 0 113 0 123 0 9 0 100 0 202 0 102 0 191 0 198 -1 6 -1 59
0 117 0 58 0 113 0 123 0 9 0 100 0 202 0 102 0 191 0 198 -1 6 -1 59 0 117 0
58 0 113 0 123 0 9 0 100 0 202 0 102 0 191 0 198 -1 6 -1 59 0 117 0 58 0
113 0 123 0 9 0 100 0 202 0 102 0 191 0 198 -1 6 -1 59 0 117 0 58 0 113 0
123 0 9 0 100 0 202 0 102 0 191 0 198 -1 6 -1 59 0 117 0 58 0 114 0 125 0
11 0 83 1 160 0 180 -5 228 -35 325 -25 79 -92 187 -157 250 -53 54 -172 132
-218 145 -3 1 -30 9 -60 19 -73 23 -246 29 -323 10z"/>
<path d="M2807 7804 c-1 -1 -32 -4 -69 -8 -37 -3 -98 -17 -135 -31 -37 -14
-72 -27 -78 -28 -5 -1 -12 -5 -15 -8 -3 -3 -30 -22 -60 -41 -83 -53 -169 -149
-211 -238 -46 -95 -58 -133 -64 -196 -1 -11 -4 -24 -6 -30 -6 -10 -2 -5956 4
-5994 10 -64 71 -221 89 -228 4 -2 8 -8 8 -13 0 -5 8 -18 17 -30 10 -11 28
-33 40 -47 13 -15 23 -31 23 -36 0 -5 3 -7 6 -4 3 4 18 -6 32 -21 49 -49 173
-118 247 -137 6 -1 24 -5 40 -10 57 -14 232 -12 287 3 29 8 59 15 66 16 6 0
12 3 12 7 0 3 10 6 21 7 12 1 29 9 38 17 10 9 21 13 24 9 4 -3 7 -1 7 5 0 7 5
12 10 12 20 0 116 78 156 125 21 26 44 52 50 59 33 36 98 190 110 264 9 55 11
6003 1 6009 -4 2 -5 8 -2 12 15 24 -70 238 -111 278 -8 8 -14 18 -14 22 0 7
-16 24 -110 114 -16 15 -33 27 -38 27 -5 0 -21 9 -34 20 -14 10 -28 16 -32 13
-3 -3 -6 -2 -6 3 0 8 -77 42 -110 50 -3 0 -16 4 -30 8 -26 7 -158 24 -163 20z"/>
<path d="M6854 7798 c-125 -16 -239 -64 -339 -142 -50 -39 -75 -67 -122 -136
-21 -30 -42 -58 -48 -62 -5 -4 -7 -8 -3 -8 4 0 -4 -24 -17 -52 -13 -29 -27
-68 -30 -87 -3 -19 -9 -39 -13 -45 -12 -19 -10 -6669 2 -6685 9 -12 8 -13 -2
-7 -11 7 -12 4 -3 -13 7 -11 10 -21 7 -21 -3 0 2 -24 10 -53 38 -132 91 -220
192 -314 37 -35 72 -63 79 -63 6 0 13 -3 15 -7 6 -14 66 -44 141 -70 110 -38
248 -40 387 -6 44 11 125 51 180 87 56 37 150 128 150 144 0 7 4 12 8 12 4 0
17 15 27 32 26 43 76 158 68 158 -3 0 0 6 6 14 6 7 14 35 17 62 10 81 9 6717
0 6739 -5 11 -10 26 -12 34 -15 76 -44 139 -102 221 -26 36 -58 75 -72 86 -14
12 -41 36 -60 53 -19 17 -44 34 -55 37 -11 4 -22 10 -25 13 -7 10 -99 47 -148
61 -88 23 -154 28 -238 18z"/>
<path d="M8999 7806 c-2 -2 -35 -6 -74 -9 -83 -7 -116 -13 -161 -32 -19 -8
-34 -11 -34 -7 0 4 -4 3 -8 -3 -4 -5 -33 -23 -65 -40 -33 -16 -61 -36 -64 -42
-3 -7 -9 -13 -14 -13 -12 0 -85 -73 -121 -120 -15 -19 -40 -60 -56 -91 -25
-47 -32 -67 -47 -121 -2 -5 -3 -9 -5 -10 -11 -14 -14 -188 -16 -1063 -3 -997
-2 -1011 18 -1090 12 -44 25 -81 30 -83 4 -2 8 -11 8 -19 0 -22 81 -140 132
-192 82 -84 205 -149 328 -175 96 -20 242 -14 312 13 13 5 26 9 30 10 4 1 23
8 42 16 20 8 40 15 46 15 5 0 10 4 10 10 0 5 11 12 25 16 14 3 25 10 25 15 0
5 6 9 13 9 6 0 44 33 82 73 78 82 98 107 103 128 2 7 7 16 11 19 9 7 30 54 55
125 20 59 21 76 24 1055 4 1128 7 1080 -69 1246 -41 91 -139 197 -239 259 -57
35 -160 79 -160 69 0 -4 -6 -2 -12 4 -7 5 -40 13 -73 17 -32 3 -62 8 -66 10
-3 3 -8 3 -10 1z"/>
<path d="M665 4868 c-32 -4 -75 -13 -95 -19 -37 -12 -162 -70 -170 -79 -3 -3
-25 -21 -50 -40 -25 -19 -48 -39 -52 -45 -3 -6 -19 -23 -33 -39 -24 -26 -88
-122 -91 -136 0 -3 -8 -21 -16 -40 -47 -106 -47 -122 -47 -1065 0 -865 0 -892
20 -960 11 -38 22 -74 23 -80 3 -11 30 -67 52 -107 8 -16 19 -28 25 -28 5 0 9
-5 9 -11 0 -6 14 -28 32 -48 80 -92 223 -176 350 -206 81 -19 242 -13 318 11
30 10 58 18 62 18 3 1 10 5 15 9 4 5 24 15 43 23 51 22 150 100 190 151 19 25
40 50 46 57 16 17 75 131 79 152 2 11 4 19 6 19 1 0 3 9 5 20 2 11 8 38 13 60
17 63 8 1900 -9 1900 -2 0 -5 12 -13 50 -5 23 -49 117 -58 125 -3 3 -19 25
-36 50 -87 127 -233 219 -404 256 -43 9 -153 10 -214 2z"/>
</g>
</svg>
